AbhayaLibre-Regular.ufo
<glyph name="uni0021" format="1">
  <advance width="279"/>
  <unicode hex="0021"/>
  <outline>
    <contour>
      <point x="140" y="610" type="curve" smooth="yes"/>
      <point x="99" y="610"/>
      <point x="87" y="583"/>
      <point x="87" y="544" type="curve" smooth="yes"/>
      <point x="87" y="461"/>
      <point x="124" y="382"/>
      <point x="124" y="167" type="curve"/>
      <point x="154" y="167" type="line"/>
      <point x="154" y="377"/>
      <point x="192" y="463"/>
      <point x="192" y="546" type="curve" smooth="yes"/>
      <point x="192" y="582"/>
      <point x="183" y="610"/>
    </contour>
    <component base="uni002E" xOffset="37"/>
  </outline>
</glyph>
<glyph name="uni002C" format="1">
  <advance width="193"/>
  <unicode hex="002C"/>
  <outline>
    <contour>
      <point x="153" y="37" type="curve" smooth="yes"/>
      <point x="153" y="75"/>
      <point x="134" y="103"/>
      <point x="98" y="103" type="curve" smooth="yes"/>
      <point x="71" y="103"/>
      <point x="50" y="81"/>
      <point x="50" y="53" type="curve" smooth="yes"/>
      <point x="50" y="27"/>
      <point x="70" y="11"/>
      <point x="90" y="7" type="curve" smooth="yes"/>
      <point x="104" y="4"/>
      <point x="113" y="-1"/>
      <point x="113" y="-10" type="curve" smooth="yes"/>
      <point x="113" y="-27"/>
      <point x="93" y="-57"/>
      <point x="69" y="-82" type="curve"/>
      <point x="90" y="-97" type="line"/>
      <point x="131" y="-55"/>
      <point x="153" y="-4"/>
    </contour>
  </outline>
</glyph>
<glyph name="uni002E" format="1">
  <advance width="202"/>
  <unicode hex="002E"/>
  <outline>
    <contour>
      <point x="152" y="46" type="curve" smooth="yes"/>
      <point x="152" y="75"/>
      <point x="129" y="98"/>
      <point x="101" y="98" type="curve" smooth="yes"/>
      <point x="73" y="98"/>
      <point x="50" y="75"/>
      <point x="50" y="46" type="curve" smooth="yes"/>
      <point x="50" y="18"/>
      <point x="73" y="-5"/>
      <point x="101" y="-5" type="curve" smooth="yes"/>
      <point x="129" y="-5"/>
      <point x="152" y="18"/>
    </contour>
  </outline>
</glyph>
eger>
      <key>public.markColor</key>
      <string>0.18,0.16,0.78,1</string>
      <key>com.schriftgestaltung.Glyphs.Export</key>
      <false/>
    </dict>
  </lib>
</glyph>
<glyph name="uni0030" format="1">
  <advance width="523"/>
  <unicode hex="0030"/>
  <outline>
    <contour>
      <point x="265" y="540" type="curve" smooth="yes"/>
      <point x="145" y="540"/>
      <point x="45" y="446"/>
      <point x="45" y="269" type="curve" smooth="yes"/>
      <point x="45" y="86"/>
      <point x="140" y="-10"/>
      <point x="261" y="-10" type="curve" smooth="yes"/>
      <point x="381" y="-10"/>
      <point x="478" y="88"/>
      <point x="478" y="266" type="curve" smooth="yes"/>
      <point x="478" y="451"/>
      <point x="385" y="540"/>
    </contour>
    <contour>
      <point x="264" y="16" type="curve" smooth="yes"/>
      <point x="181" y="16"/>
      <point x="133" y="78"/>
      <point x="133" y="266" type="curve" smooth="yes"/>
      <point x="133" y="451"/>
      <point x="180" y="514"/>
      <point x="263" y="514" type="curve" smooth="yes"/>
      <point x="345" y="514"/>
      <point x="390" y="459"/>
      <point x="390" y="269" type="curve" smooth="yes"/>
      <point x="390" y="87"/>
      <point x="346" y="16"/>
    </contour>
  </outline>
</glyph>
<glyph name="uni0031" format="1">
  <advance width="418"/>
  <unicode hex="0031"/>
  <outline>
    <contour>
      <point x="221" y="530" type="line"/>
      <point x="20" y="397" type="line"/>
      <point x="38" y="368" type="line"/>
      <point x="194" y="468" type="line"/>
      <point x="194" y="35" type="line"/>
      <point x="57" y="26" type="line"/>
      <point x="57" y="0" type="line"/>
      <point x="403" y="0" type="line"/>
      <point x="403" y="19"/>
      <point x="397" y="25"/>
      <point x="377" y="27" type="curve" smooth="yes"/>
      <point x="274" y="35" type="line"/>
      <point x="274" y="530" type="line"/>
    </contour>
  </outline>
</glyph>
<glyph name="uni0037" format="1">
  <advance width="446"/>
  <unicode hex="0037"/>
  <outline>
    <contour>
      <point x="456" y="510" type="curve"/>
      <point x="429" y="521" type="line"/>
      <point x="202" y="186"/>
      <point x="97" y="48"/>
      <point x="97" y="-27" type="curve" smooth="yes"/>
      <point x="97" y="-56"/>
      <point x="114" y="-75"/>
      <point x="146" y="-75" type="curve" smooth="yes"/>
      <point x="249" y="-75"/>
      <point x="148" y="59"/>
    </contour>
    <contour>
      <point x="47" y="354" type="line"/>
      <point x="65" y="410" type="line" smooth="yes"/>
      <point x="78" y="451"/>
      <point x="102" y="457"/>
      <point x="143" y="457" type="curve"/>
      <point x="27" y="530" type="line"/>
      <point x="25" y="354" type="line"/>
    </contour>
    <contour>
      <point x="386" y="457" type="line"/>
      <point x="456" y="510" type="line"/>
      <point x="456" y="530" type="line"/>
      <point x="27" y="530" type="line"/>
      <point x="27" y="457" type="line"/>
    </contour>
  </outline>
</glyph>
<glyph name="uni0046" format="1">
  <advance width="529"/>
  <unicode hex="0046"/>
  <outline>
    <contour>
      <point x="504" y="420" type="line"/>
      <point x="499" y="600" type="line"/>
      <point x="35" y="600" type="line"/>
      <point x="35" y="574" type="line"/>
      <point x="364" y="574" type="line" smooth="yes"/>
      <point x="431" y="574"/>
      <point x="456" y="515"/>
      <point x="470" y="467" type="curve" smooth="yes"/>
      <point x="484" y="420" type="line"/>
    </contour>
    <contour>
      <point x="324" y="0" type="line"/>
      <point x="324" y="26" type="line"/>
      <point x="35" y="26" type="line"/>
      <point x="35" y="0" type="line"/>
    </contour>
    <contour>
      <point x="410" y="295" type="line"/>
      <point x="410" y="324" type="line"/>
      <point x="160" y="324" type="line"/>
      <point x="160" y="295" type="line"/>
    </contour>
    <component base="vertical_stem_upper" xOffset="78"/>
  </outline>
</glyph>
<glyph name="uni004A" format="1">
  <advance width="355"/>
  <unicode hex="004A"/>
  <outline>
    <contour>
      <point x="330" y="574" type="line"/>
      <point x="330" y="600" type="line"/>
      <point x="74" y="600" type="line"/>
      <point x="74" y="574" type="line"/>
    </contour>
    <contour>
      <point x="164" y="600" type="line"/>
      <point x="164" y="162" type="line" smooth="yes"/>
      <point x="164" y="61"/>
      <point x="153" y="7"/>
      <point x="106" y="7" type="curve" smooth="yes"/>
      <point x="47" y="7"/>
      <point x="88" y="95"/>
      <point x="19" y="95" type="curve" smooth="yes"/>
      <point x="-7" y="95"/>
      <point x="-25" y="74"/>
      <point x="-25" y="51" type="curve" smooth="yes"/>
      <point x="-25" y="20"/>
      <point x="6" y="-17"/>
      <point x="74" y="-17" type="curve" smooth="yes"/>
      <point x="173" y="-17"/>
      <point x="249" y="30"/>
      <point x="249" y="141" type="curve" smooth="yes"/>
      <point x="249" y="600" type="line"/>
    </contour>
  </outline>
</glyph>
<glyph name="uni004B" format="1">
  <advance width="640"/>
  <unicode hex="004B"/>
  <outline>
    <contour>
      <point x="289" y="0" type="line"/>
      <point x="289" y="22"/>
      <point x="284" y="26"/>
      <point x="265" y="26" type="curve" smooth="yes"/>
      <point x="40" y="26" type="line"/>
      <point x="40" y="0" type="line"/>
    </contour>
    <contour>
      <point x="289" y="574" type="line"/>
      <point x="289" y="600" type="line"/>
      <point x="40" y="600" type="line"/>
      <point x="40" y="574" type="line"/>
    </contour>
    <contour>
      <point x="630" y="0" type="line"/>
      <point x="630" y="22"/>
      <point x="624" y="26"/>
      <point x="604" y="26" type="curve" smooth="yes"/>
      <point x="577" y="26" type="line"/>
      <point x="313" y="369" type="line"/>
      <point x="251" y="312" type="line"/>
      <point x="491" y="0" type="line"/>
    </contour>
    <contour>
      <point x="494" y="532" type="line" smooth="yes"/>
      <point x="520" y="556"/>
      <point x="539" y="574"/>
      <point x="564" y="574" type="curve" smooth="yes"/>
      <point x="593" y="574"/>
      <point x="595" y="572"/>
      <point x="595" y="600" type="curve"/>
      <point x="415" y="600" type="line"/>
      <point x="415" y="574" type="line"/>
      <point x="495" y="574" type="line"/>
      <point x="189" y="292" type="line"/>
      <point x="196" y="253" type="line"/>
    </contour>
    <component base="vertical_stem_upper" xOffset="76"/>
    <contour>
      <point x="320" y="630" type="move" name="top"/>
    </contour>
    <contour>
      <point x="359" y="0" type="move" name="bottom"/>
    </contour>
  </outline>
</glyph>
<glyph name="uni004C" format="1">
  <advance width="499"/>
  <unicode hex="004C"/>
  <outline>
    <contour>
      <point x="476" y="0" type="line"/>
      <point x="481" y="200" type="line"/>
      <point x="461" y="200" type="line"/>
      <point x="444" y="133" type="line" smooth="yes"/>
      <point x="431" y="83"/>
      <point x="408" y="26"/>
      <point x="341" y="26" type="curve" smooth="yes"/>
      <point x="35" y="26" type="line"/>
      <point x="35" y="0" type="line"/>
    </contour>
    <contour>
      <point x="291" y="574" type="line"/>
      <point x="291" y="600" type="line"/>
      <point x="35" y="600" type="line"/>
      <point x="35" y="574" type="line"/>
    </contour>
    <component base="vertical_stem_upper" xOffset="78"/>
    <contour>
      <point x="240" y="630" type="move" name="top"/>
    </contour>
    <contour>
      <point x="250" y="0" type="move" name="bottom"/>
    </contour>
    <contour>
      <point x="479" y="630" type="move" name="topright"/>
    </contour>
  </outline>
</glyph>
<glyph name="uni004F" format="1">
  <advance width="705"/>
  <unicode hex="004F"/>
  <outline>
    <contour>
      <point x="355" y="610" type="curve" smooth="yes"/>
      <point x="207" y="610"/>
      <point x="55" y="502"/>
      <point x="55" y="304" type="curve" smooth="yes"/>
      <point x="55" y="99"/>
      <point x="203" y="-10"/>
      <point x="352" y="-10" type="curve" smooth="yes"/>
      <point x="500" y="-10"/>
      <point x="650" y="102"/>
      <point x="650" y="300" type="curve" smooth="yes"/>
      <point x="650" y="507"/>
      <point x="502" y="610"/>
    </contour>
    <contour>
      <point x="355" y="18" type="curve" smooth="yes"/>
      <point x="245" y="18"/>
      <point x="155" y="90"/>
      <point x="155" y="300" type="curve" smooth="yes"/>
      <point x="155" y="508"/>
      <point x="242" y="582"/>
      <point x="352" y="582" type="curve" smooth="yes"/>
      <point x="462" y="582"/>
      <point x="550" y="517"/>
      <point x="550" y="304" type="curve" smooth="yes"/>
      <point x="550" y="100"/>
      <point x="465" y="18"/>
    </contour>
    <contour>
      <point x="353" y="630" type="move" name="top"/>
    </contour>
  </outline>
</glyph>
<glyph name="uni0057" format="1">
  <advance width="842"/>
  <unicode hex="0057"/>
  <outline>
    <contour>
      <point x="303" y="0" type="line"/>
      <point x="472" y="472" type="line"/>
      <point x="439" y="472" type="line"/>
      <point x="276" y="0" type="line"/>
    </contour>
    <contour>
      <point x="226" y="574" type="line"/>
      <point x="226" y="600" type="line"/>
      <point x="7" y="600" type="line"/>
      <point x="7" y="574" type="line"/>
    </contour>
    <contour>
      <point x="590" y="0" type="line"/>
      <point x="789" y="574" type="line"/>
      <point x="757" y="574" type="line"/>
      <point x="565" y="0" type="line"/>
    </contour>
    <contour>
      <point x="513" y="574" type="line"/>
      <point x="513" y="600" type="line"/>
      <point x="398" y="600" type="line"/>
      <point x="398" y="574" type="line"/>
    </contour>
    <contour>
      <point x="842" y="574" type="line"/>
      <point x="842" y="600" type="line"/>
      <point x="678" y="600" type="line"/>
      <point x="678" y="574" type="line"/>
    </contour>
    <contour>
      <point x="303" y="0" type="line"/>
      <point x="313" y="101" type="line"/>
      <point x="134" y="600" type="line"/>
      <point x="54" y="600" type="line"/>
      <point x="271" y="0" type="line"/>
    </contour>
    <contour>
      <point x="590" y="0" type="line"/>
      <point x="600" y="101" type="line"/>
      <point x="430" y="600" type="line"/>
      <point x="349" y="600" type="line"/>
      <point x="561" y="0" type="line"/>
    </contour>
  </outline>
</glyph>
<glyph name="uni0066" format="1">
  <advance width="304"/>
  <unicode hex="0066"/>
  <outline>
    <contour>
      <point x="252" y="26" type="curve" smooth="yes"/>
      <point x="181" y="26" type="line"/>
      <point x="181" y="431" type="line"/>
      <point x="106" y="441" type="line"/>
      <point x="106" y="78" type="line" smooth="yes"/>
      <point x="106" y="36"/>
      <point x="72" y="26"/>
      <point x="30" y="26" type="curve"/>
      <point x="30" y="0" type="line"/>
      <point x="276" y="0" type="line"/>
      <point x="276" y="22"/>
      <point x="271" y="26"/>
    </contour>
    <contour>
      <point x="391" y="586" type="curve" smooth="yes"/>
      <point x="391" y="623"/>
      <point x="345" y="655"/>
      <point x="277" y="655" type="curve" smooth="yes"/>
      <point x="196" y="655"/>
      <point x="106" y="603"/>
      <point x="106" y="441" type="curve"/>
      <point x="181" y="431" type="line"/>
      <point x="181" y="591"/>
      <point x="210" y="630"/>
      <point x="256" y="630" type="curve" smooth="yes"/>
      <point x="316" y="630"/>
      <point x="308" y="549"/>
      <point x="352" y="549" type="curve" smooth="yes"/>
      <point x="378" y="549"/>
      <point x="391" y="566"/>
    </contour>
    <contour>
      <point x="35" y="399" type="line"/>
      <point x="296" y="399" type="line"/>
      <point x="296" y="425" type="line"/>
      <point x="35" y="425" type="line"/>
    </contour>
  </outline>
</glyph>
<glyph name="uni0068" format="1">
  <advance width="571"/>
  <unicode hex="0068"/>
  <outline>
    <contour>
      <point x="470" y="273" type="line" smooth="yes"/>
      <point x="470" y="383"/>
      <point x="408" y="435"/>
      <point x="338" y="435" type="curve" smooth="yes"/>
      <point x="275" y="435"/>
      <point x="204" y="398"/>
      <point x="180" y="323" type="curve"/>
      <point x="182" y="241" type="line"/>
      <point x="182" y="342"/>
      <point x="248" y="390"/>
      <point x="299" y="390" type="curve" smooth="yes"/>
      <point x="352" y="390"/>
      <point x="395" y="351"/>
      <point x="395" y="273" type="curve" smooth="yes"/>
      <point x="395" y="78" type="line" smooth="yes"/>
      <point x="395" y="38"/>
      <point x="369" y="26"/>
      <point x="326" y="26" type="curve"/>
      <point x="326" y="0" type="line"/>
      <point x="546" y="0" type="line"/>
      <point x="546" y="22"/>
      <point x="541" y="26"/>
      <point x="521" y="26" type="curve" smooth="yes"/>
      <point x="470" y="26" type="line"/>
    </contour>
    <contour>
      <point x="233" y="26" type="curve" smooth="yes"/>
      <point x="182" y="26" type="line"/>
      <point x="182" y="297" type="line"/>
      <point x="182" y="650" type="line"/>
      <point x="30" y="650" type="line"/>
      <point x="30" y="624" type="line"/>
      <point x="107" y="624" type="line"/>
      <point x="107" y="78" type="line" smooth="yes"/>
      <point x="107" y="36"/>
      <point x="72" y="26"/>
      <point x="30" y="26" type="curve"/>
      <point x="30" y="0" type="line"/>
      <point x="257" y="0" type="line"/>
      <point x="257" y="22"/>
      <point x="252" y="26"/>
    </contour>
  </outline>
</glyph>
<glyph name="uni006D" format="1">
  <advance width="818"/>
  <unicode hex="006D"/>
  <outline>
    <contour>
      <point x="233" y="26" type="curve" smooth="yes"/>
      <point x="182" y="26" type="line"/>
      <point x="182" y="297" type="line"/>
      <point x="177" y="425" type="line"/>
      <point x="30" y="425" type="line"/>
      <point x="30" y="399" type="line"/>
      <point x="107" y="399" type="line"/>
      <point x="107" y="78" type="line" smooth="yes"/>
      <point x="107" y="36"/>
      <point x="72" y="26"/>
      <point x="30" y="26" type="curve"/>
      <point x="30" y="0" type="line"/>
      <point x="257" y="0" type="line"/>
      <point x="257" y="22"/>
      <point x="252" y="26"/>
    </contour>
    <contour>
      <point x="449" y="273" type="line" smooth="yes"/>
      <point x="449" y="378"/>
      <point x="391" y="435"/>
      <point x="327" y="435" type="curve" smooth="yes"/>
      <point x="271" y="435"/>
      <point x="209" y="400"/>
      <point x="180" y="323" type="curve"/>
      <point x="182" y="241" type="line"/>
      <point x="185" y="337"/>
      <point x="247" y="392"/>
      <point x="297" y="392" type="curve" smooth="yes"/>
      <point x="338" y="392"/>
      <point x="374" y="358"/>
      <point x="374" y="283" type="curve" smooth="yes"/>
      <point x="374" y="78" type="line" smooth="yes"/>
      <point x="374" y="38"/>
      <point x="351" y="26"/>
      <point x="308" y="26" type="curve"/>
      <point x="308" y="0" type="line"/>
      <point x="528" y="0" type="line"/>
      <point x="528" y="22"/>
      <point x="523" y="26"/>
      <point x="503" y="26" type="curve" smooth="yes"/>
      <point x="449" y="26" type="line"/>
    </contour>
    <contour>
      <point x="717" y="273" type="line" smooth="yes"/>
      <point x="717" y="378"/>
      <point x="656" y="435"/>
      <point x="585" y="435" type="curve" smooth="yes"/>
      <point x="529" y="435"/>
      <point x="471" y="400"/>
      <point x="442" y="323" type="curve"/>
      <point x="444" y="241" type="line"/>
      <point x="447" y="338"/>
      <point x="509" y="393"/>
      <point x="560" y="393" type="curve" smooth="yes"/>
      <point x="603" y="393"/>
      <point x="642" y="358"/>
      <point x="642" y="283" type="curve" smooth="yes"/>
      <point x="642" y="78" type="line" smooth="yes"/>
      <point x="642" y="38"/>
      <point x="616" y="26"/>
      <point x="573" y="26" type="curve"/>
      <point x="573" y="0" type="line"/>
      <point x="793" y="0" type="line"/>
      <point x="793" y="22"/>
      <point x="788" y="26"/>
      <point x="768" y="26" type="curve" smooth="yes"/>
      <point x="717" y="26" type="line"/>
    </contour>
  </outline>
</glyph>
<glyph name="uni006E" format="1">
  <advance width="571"/>
  <unicode hex="006E"/>
  <outline>
    <contour>
      <point x="470" y="273" type="line" smooth="yes"/>
      <point x="470" y="378"/>
      <point x="405" y="435"/>
      <point x="332" y="435" type="curve" smooth="yes"/>
      <point x="274" y="435"/>
      <point x="209" y="400"/>
      <point x="180" y="323" type="curve"/>
      <point x="182" y="241" type="line"/>
      <point x="185" y="341"/>
      <point x="249" y="392"/>
      <point x="303" y="392" type="curve" smooth="yes"/>
      <point x="354" y="392"/>
      <point x="395" y="356"/>
      <point x="395" y="283" type="curve" smooth="yes"/>
      <point x="395" y="78" type="line" smooth="yes"/>
      <point x="395" y="38"/>
      <point x="369" y="26"/>
      <point x="326" y="26" type="curve"/>
      <point x="326" y="0" type="line"/>
      <point x="546" y="0" type="line"/>
      <point x="546" y="22"/>
      <point x="541" y="26"/>
      <point x="521" y="26" type="curve" smooth="yes"/>
      <point x="470" y="26" type="line"/>
    </contour>
    <contour>
      <point x="233" y="26" type="curve" smooth="yes"/>
      <point x="182" y="26" type="line"/>
      <point x="182" y="297" type="line"/>
      <point x="177" y="425" type="line"/>
      <point x="30" y="425" type="line"/>
      <point x="30" y="399" type="line"/>
      <point x="107" y="399" type="line"/>
      <point x="107" y="78" type="line" smooth="yes"/>
      <point x="107" y="36"/>
      <point x="72" y="26"/>
      <point x="30" y="26" type="curve"/>
      <point x="30" y="0" type="line"/>
      <point x="257" y="0" type="line"/>
      <point x="257" y="22"/>
      <point x="252" y="26"/>
    </contour>
    <contour>
      <point x="286" y="500" type="move" name="top"/>
    </contour>
    <contour>
      <point x="286" y="0" type="move" name="bottom"/>
    </contour>
  </outline>
</glyph>
<glyph name="uni0071" format="1">
  <advance width="550"/>
  <unicode hex="0071"/>
  <outline>
    <contour>
      <point x="40" y="195" type="curve" smooth="yes"/>
      <point x="40" y="60"/>
      <point x="122" y="-10"/>
      <point x="214" y="-10" type="curve" smooth="yes"/>
      <point x="288" y="-10"/>
      <point x="360" y="35"/>
      <point x="386" y="129" type="curve"/>
      <point x="375" y="129" type="line"/>
      <point x="374" y="-113" type="line" smooth="yes"/>
      <point x="374" y="-162"/>
      <point x="347" y="-164"/>
      <point x="277" y="-164" type="curve"/>
      <point x="277" y="-190" type="line"/>
      <point x="525" y="-190" type="line"/>
      <point x="525" y="-167"/>
      <point x="520" y="-164"/>
      <point x="501" y="-164" type="curve" smooth="yes"/>
      <point x="449" y="-164" type="line"/>
      <point x="449" y="399" type="line"/>
      <point x="525" y="399" type="line"/>
      <point x="525" y="425" type="line"/>
      <point x="384" y="425" type="line"/>
      <point x="372" y="325" type="line"/>
      <point x="418" y="325" type="line"/>
      <point x="390" y="396"/>
      <point x="314" y="435"/>
      <point x="242" y="435" type="curve" smooth="yes"/>
      <point x="143" y="435"/>
      <point x="40" y="361"/>
    </contour>
    <contour>
      <point x="375" y="232" type="curve" smooth="yes"/>
      <point x="375" y="105"/>
      <point x="324" y="30"/>
      <point x="244" y="30" type="curve" smooth="yes"/>
      <point x="168" y="30"/>
      <point x="125" y="96"/>
      <point x="125" y="213" type="curve" smooth="yes"/>
      <point x="125" y="331"/>
      <point x="169" y="410"/>
      <point x="255" y="410" type="curve" smooth="yes"/>
      <point x="331" y="410"/>
      <point x="375" y="350"/>
    </contour>
  </outline>
</glyph>
<glyph name="uni0073" format="1">
  <advance width="404"/>
  <unicode hex="0073"/>
  <outline>
    <contour>
      <point x="192" y="17" type="curve" smooth="yes"/>
      <point x="247" y="17"/>
      <point x="294" y="43"/>
      <point x="294" y="92" type="curve" smooth="yes"/>
      <point x="294" y="196"/>
      <point x="52" y="174"/>
      <point x="52" y="325" type="curve" smooth="yes"/>
      <point x="52" y="405"/>
      <point x="123" y="435"/>
      <point x="200" y="435" type="curve" smooth="yes"/>
      <point x="244" y="435"/>
      <point x="288" y="425"/>
      <point x="318" y="407" type="curve"/>
      <point x="318" y="432"/>
      <point x="325" y="441"/>
      <point x="345" y="441" type="curve"/>
      <point x="345" y="316" type="line"/>
      <point x="320" y="316" type="line"/>
      <point x="318" y="336" type="line"/>
      <point x="318" y="377"/>
      <point x="276" y="409"/>
      <point x="217" y="409" type="curve" smooth="yes"/>
      <point x="163" y="409"/>
      <point x="119" y="387"/>
      <point x="119" y="340" type="curve" smooth="yes"/>
      <point x="119" y="233"/>
      <point x="362" y="261"/>
      <point x="362" y="109" type="curve" smooth="yes"/>
      <point x="362" y="25"/>
      <point x="285" y="-10"/>
      <point x="204" y="-10" type="curve" smooth="yes"/>
      <point x="155" y="-10"/>
      <point x="113" y="3"/>
      <point x="79" y="26" type="curve"/>
      <point x="79" y="0"/>
      <point x="74" y="-5"/>
      <point x="52" y="-5" type="curve"/>
      <point x="52" y="147" type="line"/>
      <point x="79" y="147" type="line"/>
      <point x="79" y="133" type="line"/>
      <point x="79" y="53"/>
      <point x="134" y="17"/>
    </contour>
    <contour>
      <point x="202" y="500" type="move" name="top"/>
    </contour>
    <contour>
      <point x="202" y="0" type="move" name="bottom"/>
    </contour>
  </outline>
</glyph>
<glyph name="uni0075" format="1">
  <advance width="567"/>
  <unicode hex="0075"/>
  <outline>
    <contour>
      <point x="20" y="399" type="line"/>
      <point x="97" y="399" type="line"/>
      <point x="97" y="162" type="line" smooth="yes"/>
      <point x="97" y="22"/>
      <point x="167" y="-10"/>
      <point x="240" y="-10" type="curve" smooth="yes"/>
      <point x="298" y="-10"/>
      <point x="363" y="25"/>
      <point x="392" y="102" type="curve"/>
      <point x="390" y="184" type="line"/>
      <point x="387" y="84"/>
      <point x="323" y="33"/>
      <point x="269" y="33" type="curve" smooth="yes"/>
      <point x="215" y="33"/>
      <point x="172" y="64"/>
      <point x="172" y="147" type="curve" smooth="yes"/>
      <point x="172" y="425" type="line"/>
      <point x="20" y="425" type="line"/>
    </contour>
    <contour>
      <point x="308" y="399" type="line"/>
      <point x="390" y="399" type="line"/>
      <point x="390" y="128" type="line"/>
      <point x="399" y="0" type="line"/>
      <point x="542" y="0" type="line"/>
      <point x="542" y="23"/>
      <point x="537" y="26"/>
      <point x="518" y="26" type="curve" smooth="yes"/>
      <point x="465" y="26" type="line"/>
      <point x="465" y="425" type="line"/>
      <point x="308" y="425" type="line"/>
    </contour>
    <contour>
      <point x="542" y="9" type="move" name="ogonek"/>
    </contour>
    <contour>
      <point x="284" y="500" type="move" name="top"/>
    </contour>
  </outline>
</glyph>
<glyph name="uni0076" format="1">
  <advance width="465"/>
  <unicode hex="0076"/>
  <outline>
    <contour>
      <point x="197" y="399" type="line"/>
      <point x="197" y="425" type="line"/>
      <point x="3" y="425" type="line"/>
      <point x="3" y="399" type="line"/>
      <point x="49" y="399" type="line"/>
      <point x="171" y="65" type="line" smooth="yes"/>
      <point x="193" y="5"/>
      <point x="208" y="-5"/>
      <point x="245" y="-5" type="curve" smooth="yes"/>
      <point x="258" y="-5" type="line"/>
      <point x="399" y="365" type="line" smooth="yes"/>
      <point x="410" y="393"/>
      <point x="414" y="399"/>
      <point x="437" y="399" type="curve" smooth="yes"/>
      <point x="455" y="399"/>
      <point x="462" y="400"/>
      <point x="462" y="425" type="curve"/>
      <point x="310" y="425" type="line"/>
      <point x="310" y="399" type="line"/>
      <point x="383" y="399" type="line"/>
      <point x="253" y="51" type="line"/>
      <point x="259" y="51" type="line"/>
      <point x="128" y="399" type="line"/>
    </contour>
  </outline>
</glyph>
<glyph name="uni0077" format="1">
  <advance width="684"/>
  <unicode hex="0077"/>
  <outline>
    <contour>
      <point x="203" y="399" type="line"/>
      <point x="203" y="425" type="line"/>
      <point x="5" y="425" type="line"/>
      <point x="5" y="399" type="line"/>
      <point x="51" y="399" type="line"/>
      <point x="176" y="65" type="line" smooth="yes"/>
      <point x="199" y="4"/>
      <point x="212" y="-5"/>
      <point x="246" y="-5" type="curve" smooth="yes"/>
      <point x="266" y="-5" type="line"/>
      <point x="375" y="324" type="line"/>
      <point x="356" y="350" type="line"/>
      <point x="254" y="44" type="line"/>
      <point x="259" y="44" type="line"/>
      <point x="129" y="399" type="line"/>
    </contour>
    <contour>
      <point x="433" y="399" type="line"/>
      <point x="433" y="425" type="line"/>
      <point x="294" y="425" type="line"/>
      <point x="420" y="65" type="line" smooth="yes"/>
      <point x="441" y="4"/>
      <point x="452" y="-5"/>
      <point x="486" y="-5" type="curve" smooth="yes"/>
      <point x="502" y="-5" type="line"/>
      <point x="623" y="364" type="line" smooth="yes"/>
      <point x="632" y="393"/>
      <point x="640" y="399"/>
      <point x="658" y="399" type="curve" smooth="yes"/>
      <point x="674" y="399"/>
      <point x="684" y="401"/>
      <point x="684" y="425" type="curve"/>
      <point x="539" y="425" type="line"/>
      <point x="539" y="399" type="line"/>
      <point x="606" y="399" type="line"/>
      <point x="492" y="46" type="line"/>
      <point x="498" y="46" type="line"/>
      <point x="377" y="399" type="line"/>
    </contour>
  </outline>
</glyph>
<glyph name="uni0078" format="1">
  <advance width="434"/>
  <unicode hex="0078"/>
  <outline>
    <contour>
      <point x="130" y="399" type="line"/>
      <point x="197" y="399" type="line"/>
      <point x="197" y="425" type="line"/>
      <point x="0" y="425" type="line"/>
      <point x="0" y="399" type="line"/>
      <point x="49" y="399" type="line"/>
      <point x="330" y="0" type="line"/>
      <point x="407" y="0" type="line"/>
    </contour>
    <contour>
      <point x="216" y="176" type="line"/>
      <point x="355" y="370" type="line" smooth="yes"/>
      <point x="393" y="423"/>
      <point x="425" y="379"/>
      <point x="425" y="425" type="curve"/>
      <point x="268" y="425" type="line"/>
      <point x="268" y="399" type="line"/>
      <point x="345" y="399" type="line"/>
      <point x="201" y="200" type="line"/>
    </contour>
    <contour>
      <point x="248" y="26" type="line"/>
      <point x="248" y="0" type="line"/>
      <point x="434" y="0" type="line"/>
      <point x="434" y="24"/>
      <point x="429" y="26"/>
      <point x="410" y="26" type="curve" smooth="yes"/>
      <point x="395" y="26" type="line"/>
    </contour>
    <contour>
      <point x="1" y="0" type="curve"/>
      <point x="160" y="0" type="line"/>
      <point x="160" y="26" type="line"/>
      <point x="81" y="26" type="line"/>
      <point x="236" y="229" type="line"/>
      <point x="218" y="250" type="line"/>
      <point x="69" y="55" type="line" smooth="yes"/>
      <point x="29" y="3"/>
      <point x="1" y="46"/>
    </contour>
  </outline>
</glyph>
<glyph name="uni00AB" format="1">
  <advance width="414"/>
  <unicode hex="00AB"/>
  <outline>
    <contour>
      <point x="219" y="378" type="curve"/>
      <point x="201" y="395" type="line"/>
      <point x="150" y="340"/>
      <point x="65" y="264"/>
      <point x="38" y="235" type="curve" smooth="yes"/>
      <point x="30" y="226"/>
      <point x="25" y="216"/>
      <point x="25" y="205" type="curve" smooth="yes"/>
      <point x="25" y="194"/>
      <point x="29" y="183"/>
      <point x="38" y="173" type="curve" smooth="yes"/>
      <point x="61" y="146"/>
      <point x="146" y="72"/>
      <point x="201" y="16" type="curve"/>
      <point x="219" y="32" type="line"/>
      <point x="183" y="80"/>
      <point x="138" y="160"/>
      <point x="108" y="205" type="curve"/>
      <point x="137" y="250"/>
      <point x="182" y="328"/>
    </contour>
    <contour>
      <point x="389" y="378" type="curve"/>
      <point x="371" y="395" type="line"/>
      <point x="320" y="340"/>
      <point x="235" y="264"/>
      <point x="208" y="235" type="curve" smooth="yes"/>
      <point x="200" y="226"/>
      <point x="195" y="216"/>
      <point x="195" y="205" type="curve" smooth="yes"/>
      <point x="195" y="194"/>
      <point x="199" y="183"/>
      <point x="208" y="173" type="curve" smooth="yes"/>
      <point x="231" y="146"/>
      <point x="316" y="72"/>
      <point x="371" y="16" type="curve"/>
      <point x="389" y="32" type="line"/>
      <point x="353" y="80"/>
      <point x="308" y="160"/>
      <point x="278" y="205" type="curve"/>
      <point x="307" y="250"/>
      <point x="352" y="328"/>
    </contour>
  </outline>
</glyph>
<glyph name="uni00B8" format="1">
  <advance width="500"/>
  <unicode hex="00B8"/>
  <outline>
    <contour>
      <point x="165" y="-85" type="line"/>
      <point x="179" y="-94" type="line"/>
      <point x="194" y="-83"/>
      <point x="213" y="-77"/>
      <point x="230" y="-77" type="curve" smooth="yes"/>
      <point x="260" y="-77"/>
      <point x="285" y="-94"/>
      <point x="285" y="-134" type="curve" smooth="yes"/>
      <point x="285" y="-178"/>
      <point x="258" y="-202"/>
      <point x="226" y="-202" type="curve" smooth="yes"/>
      <point x="203" y="-202"/>
      <point x="176" y="-189"/>
      <point x="156" y="-162" type="curve"/>
      <point x="140" y="-174" type="line"/>
      <point x="163" y="-211"/>
      <point x="204" y="-227"/>
      <point x="244" y="-227" type="curve" smooth="yes"/>
      <point x="303" y="-227"/>
      <point x="360" y="-193"/>
      <point x="360" y="-136" type="curve" smooth="yes"/>
      <point x="360" y="-81"/>
      <point x="309" y="-52"/>
      <point x="257" y="-52" type="curve" smooth="yes"/>
      <point x="239" y="-52"/>
      <point x="221" y="-55"/>
      <point x="205" y="-62" type="curve"/>
      <point x="234" y="3" type="line"/>
      <point x="209" y="3" type="line"/>
    </contour>
    <contour>
      <point x="231" y="0" type="move" name="_bottom"/>
    </contour>
  </outline>
</glyph>
<glyph name="uni00DF" format="1">
  <advance width="542"/>
  <unicode hex="00DF"/>
  <outline>
    <contour>
      <point x="181" y="431" type="line"/>
      <point x="106" y="441" type="line"/>
      <point x="106" y="78" type="line" smooth="yes"/>
      <point x="106" y="36"/>
      <point x="72" y="26"/>
      <point x="30" y="26" type="curve"/>
      <point x="30" y="0" type="line"/>
      <point x="181" y="0" type="line"/>
    </contour>
    <contour>
      <point x="35" y="399" type="line"/>
      <point x="157" y="399" type="line"/>
      <point x="157" y="425" type="line"/>
      <point x="35" y="425" type="line"/>
    </contour>
    <contour>
      <point x="375" y="-9" type="curve" smooth="yes"/>
      <point x="447" y="-9"/>
      <point x="522" y="35"/>
      <point x="522" y="119" type="curve" smooth="yes"/>
      <point x="522" y="257"/>
      <point x="341" y="276"/>
      <point x="341" y="363" type="curve" smooth="yes"/>
      <point x="341" y="438"/>
      <point x="467" y="423"/>
      <point x="467" y="530" type="curve" smooth="yes"/>
      <point x="467" y="598"/>
      <point x="392" y="648"/>
      <point x="295" y="648" type="curve" smooth="yes"/>
      <point x="192" y="648"/>
      <point x="106" y="592"/>
      <point x="106" y="441" type="curve"/>
      <point x="181" y="431" type="line"/>
      <point x="181" y="577"/>
      <point x="219" y="627"/>
      <point x="291" y="627" type="curve" smooth="yes"/>
      <point x="351" y="627"/>
      <point x="389" y="582"/>
      <point x="389" y="520" type="curve" smooth="yes"/>
      <point x="389" y="412"/>
      <point x="271" y="435"/>
      <point x="271" y="342" type="curve" smooth="yes"/>
      <point x="271" y="222"/>
      <point x="452" y="202"/>
      <point x="452" y="102" type="curve" smooth="yes"/>
      <point x="452" y="47"/>
      <point x="422" y="13"/>
      <point x="381" y="13" type="curve" smooth="yes"/>
      <point x="307" y="13"/>
      <point x="336" y="103"/>
      <point x="281" y="103" type="curve" smooth="yes"/>
      <point x="255" y="103"/>
      <point x="242" y="86"/>
      <point x="242" y="66" type="curve" smooth="yes"/>
      <point x="242" y="20"/>
      <point x="307" y="-9"/>
    </contour>
  </outline>
</glyph>
<glyph name="uni012B" format="1">
  <advance width="287"/>
  <unicode hex="012B"/>
  <outline>
    <contour>
      <point x="26" y="540" type="line"/>
      <point x="266" y="540" type="line"/>
      <point x="266" y="590" type="line"/>
      <point x="26" y="590" type="line"/>
    </contour>
    <component base="uni0131"/>
  </outline>
</glyph>
<glyph name="uni0152" format="1">
  <advance width="885"/>
  <unicode hex="0152"/>
  <outline>
    <contour>
      <point x="697" y="574" type="line" smooth="yes"/>
      <point x="769" y="574"/>
      <point x="802" y="515"/>
      <point x="816" y="467" type="curve" smooth="yes"/>
      <point x="830" y="420" type="line"/>
      <point x="850" y="420" type="line"/>
      <point x="845" y="600" type="line"/>
      <point x="499" y="600" type="line" smooth="yes"/>
      <point x="453" y="600"/>
      <point x="405" y="605"/>
      <point x="360" y="605" type="curve" smooth="yes"/>
      <point x="207" y="605"/>
      <point x="55" y="502"/>
      <point x="55" y="304" type="curve" smooth="yes"/>
      <point x="55" y="99"/>
      <point x="203" y="-5"/>
      <point x="362" y="-5" type="curve" smooth="yes"/>
      <point x="418" y="-5"/>
      <point x="466" y="0"/>
      <point x="500" y="0" type="curve" smooth="yes"/>
      <point x="845" y="0" type="line"/>
      <point x="850" y="180" type="line"/>
      <point x="830" y="180" type="line"/>
      <point x="817" y="133" type="line" smooth="yes"/>
      <point x="803" y="82"/>
      <point x="770" y="26"/>
      <point x="697" y="26" type="curve" smooth="yes"/>
      <point x="509" y="26" type="line"/>
      <point x="480" y="43" type="line"/>
      <point x="446" y="29"/>
      <point x="408" y="22"/>
      <point x="371" y="22" type="curve" smooth="yes"/>
      <point x="215" y="22"/>
      <point x="155" y="130"/>
      <point x="155" y="300" type="curve" smooth="yes"/>
      <point x="155" y="466"/>
      <point x="210" y="578"/>
      <point x="363" y="578" type="curve" smooth="yes"/>
      <point x="403" y="578"/>
      <point x="443" y="570"/>
      <point x="480" y="557" type="curve"/>
      <point x="509" y="574" type="line"/>
    </contour>
    <contour>
      <point x="756" y="295" type="line"/>
      <point x="756" y="324" type="line"/>
      <point x="506" y="324" type="line"/>
      <point x="506" y="295" type="line"/>
    </contour>
    <component base="vertical_stem_upper" xOffset="424"/>
    <contour>
      <point x="257" y="630" type="move" name="top"/>
    </contour>
  </outline>
</glyph>
<glyph name="uni02C7" format="1">
  <advance width="500"/>
  <unicode hex="02C7"/>
  <outline>
    <contour>
      <point x="236" y="569" type="curve"/>
      <point x="265" y="569" type="line"/>
      <point x="234" y="585"/>
      <point x="166" y="621"/>
      <point x="121" y="652" type="curve"/>
      <point x="108" y="635" type="line"/>
      <point x="187" y="548"/>
      <point x="209" y="501"/>
      <point x="251" y="501" type="curve" smooth="yes"/>
      <point x="293" y="501"/>
      <point x="314" y="548"/>
      <point x="392" y="636" type="curve"/>
      <point x="379" y="651" type="line"/>
      <point x="336" y="623"/>
      <point x="269" y="586"/>
    </contour>
    <contour>
      <point x="250" y="500" type="move" name="_top"/>
    </contour>
  </outline>
</glyph>
<glyph name="uni02DA" format="1">
  <advance width="263"/>
  <unicode hex="02DA"/>
  <outline>
    <contour>
      <point x="31" y="628" type="curve" smooth="yes"/>
      <point x="31" y="676"/>
      <point x="73" y="716"/>
      <point x="122" y="716" type="curve" smooth="yes"/>
      <point x="170" y="716"/>
      <point x="211" y="676"/>
      <point x="211" y="628" type="curve" smooth="yes"/>
      <point x="211" y="580"/>
      <point x="170" y="540"/>
      <point x="122" y="540" type="curve" smooth="yes"/>
      <point x="97" y="540"/>
      <point x="76" y="549"/>
      <point x="58" y="566" type="curve" smooth="yes"/>
      <point x="40" y="583"/>
      <point x="31" y="604"/>
    </contour>
    <contour>
      <point x="58" y="627" type="curve" smooth="yes"/>
      <point x="58" y="595"/>
      <point x="84" y="566"/>
      <point x="120" y="566" type="curve" smooth="yes"/>
      <point x="153" y="566"/>
      <point x="183" y="592"/>
      <point x="183" y="628" type="curve" smooth="yes"/>
      <point x="183" y="660"/>
      <point x="155" y="688"/>
      <point x="119" y="688" type="curve" smooth="yes"/>
      <point x="87" y="688"/>
      <point x="58" y="662"/>
    </contour>
  </outline>
</glyph>
<glyph name="uni02DC" format="1">
  <advance width="500"/>
  <unicode hex="02DC"/>
  <outline>
    <contour>
      <point x="201" y="633" type="curve" smooth="yes"/>
      <point x="258" y="633"/>
      <point x="283" y="574"/>
      <point x="323" y="574" type="curve" smooth="yes"/>
      <point x="350" y="574"/>
      <point x="369" y="591"/>
      <point x="380" y="631" type="curve"/>
      <point x="401" y="626" type="line"/>
      <point x="385" y="547"/>
      <point x="351" y="519"/>
      <point x="311" y="519" type="curve" smooth="yes"/>
      <point x="254" y="519"/>
      <point x="228" y="578"/>
      <point x="188" y="578" type="curve" smooth="yes"/>
      <point x="161" y="578"/>
      <point x="143" y="561"/>
      <point x="132" y="521" type="curve"/>
      <point x="112" y="526" type="line"/>
      <point x="128" y="605"/>
      <point x="161" y="633"/>
    </contour>
    <contour>
      <point x="250" y="500" type="move" name="_top"/>
    </contour>
  </outline>
</glyph>
<glyph name="anusvara" format="1">
  <advance width="355"/>
  <unicode hex="0D82"/>
  <outline>
    <contour>
      <point x="65" y="172" type="curve" smooth="yes"/>
      <point x="65" y="117"/>
      <point x="111" y="72"/>
      <point x="169" y="72" type="curve" smooth="yes"/>
      <point x="227" y="72"/>
      <point x="272" y="117"/>
      <point x="272" y="172" type="curve" smooth="yes"/>
      <point x="272" y="227"/>
      <point x="227" y="271"/>
      <point x="169" y="271" type="curve" smooth="yes"/>
      <point x="111" y="271"/>
      <point x="65" y="227"/>
    </contour>
    <contour>
      <point x="29" y="161" type="curve" smooth="yes"/>
      <point x="29" y="236"/>
      <point x="92" y="298"/>
      <point x="169" y="298" type="curve" smooth="yes"/>
      <point x="246" y="298"/>
      <point x="309" y="236"/>
      <point x="309" y="161" type="curve" smooth="yes"/>
      <point x="309" y="86"/>
      <point x="246" y="24"/>
      <point x="169" y="24" type="curve" smooth="yes"/>
      <point x="92" y="24"/>
      <point x="29" y="86"/>
    </contour>
  </outline>
</glyph>
<glyph name="visarga" format="1">
  <advance width="242"/>
  <unicode hex="0D83"/>
  <outline>
    <contour>
      <point x="59" y="108" type="curve" smooth="yes"/>
      <point x="59" y="79"/>
      <point x="83" y="55"/>
      <point x="112" y="55" type="curve" smooth="yes"/>
      <point x="141" y="55"/>
      <point x="166" y="79"/>
      <point x="166" y="108" type="curve" smooth="yes"/>
      <point x="166" y="137"/>
      <point x="141" y="162"/>
      <point x="112" y="162" type="curve" smooth="yes"/>
      <point x="83" y="162"/>
      <point x="59" y="137"/>
    </contour>
    <contour>
      <point x="30" y="107" type="curve" smooth="yes"/>
      <point x="30" y="152"/>
      <point x="67" y="189"/>
      <point x="112" y="189" type="curve" smooth="yes"/>
      <point x="157" y="189"/>
      <point x="194" y="152"/>
      <point x="194" y="107" type="curve" smooth="yes"/>
      <point x="194" y="62"/>
      <point x="157" y="25"/>
      <point x="112" y="25" type="curve" smooth="yes"/>
      <point x="67" y="25"/>
      <point x="30" y="62"/>
    </contour>
    <contour>
      <point x="59" y="306" type="curve" smooth="yes"/>
      <point x="59" y="277"/>
      <point x="83" y="252"/>
      <point x="112" y="252" type="curve" smooth="yes"/>
      <point x="141" y="252"/>
      <point x="166" y="277"/>
      <point x="166" y="306" type="curve" smooth="yes"/>
      <point x="166" y="335"/>
      <point x="141" y="359"/>
      <point x="112" y="359" type="curve" smooth="yes"/>
      <point x="83" y="359"/>
      <point x="59" y="335"/>
    </contour>
    <contour>
      <point x="30" y="305" type="curve" smooth="yes"/>
      <point x="30" y="350"/>
      <point x="67" y="387"/>
      <point x="112" y="387" type="curve" smooth="yes"/>
      <point x="157" y="387"/>
      <point x="194" y="350"/>
      <point x="194" y="305" type="curve" smooth="yes"/>
      <point x="194" y="260"/>
      <point x="157" y="223"/>
      <point x="112" y="223" type="curve" smooth="yes"/>
      <point x="67" y="223"/>
      <point x="30" y="260"/>
    </contour>
  </outline>
</glyph>
<glyph name="si_I" format="1">
  <advance width="593"/>
  <unicode hex="0D89"/>
  <outline>
    <contour>
      <point x="32.7693" y="220.978" type="curve" smooth="yes"/>
      <point x="32.7693" y="356.9"/>
      <point x="148" y="432.23"/>
      <point x="284.187" y="432.23" type="curve" smooth="yes"/>
      <point x="436" y="432.23"/>
      <point x="544.073" y="353.23"/>
      <point x="544.073" y="198.29" type="curve" smooth="yes"/>
      <point x="544.073" y="92.3993"/>
      <point x="472.805" y="9.90537"/>
      <point x="384" y="-6" type="curve"/>
      <point x="417.36" y="-12.0655"/>
      <point x="439.019" y="-35.5646"/>
      <point x="439.019" y="-74.6171" type="curve" smooth="yes"/>
      <point x="439.019" y="-134.438"/>
      <point x="364.215" y="-160.272"/>
      <point x="298.363" y="-160.272" type="curve" smooth="yes"/>
      <point x="236.041" y="-160.272"/>
      <point x="172.568" y="-139.056"/>
      <point x="172.568" y="-75.6592" type="curve" smooth="yes"/>
      <point x="172.568" y="-50.1903"/>
      <point x="190.397" y="-38.4572"/>
      <point x="207" y="-38.4572" type="curve" smooth="yes"/>
      <point x="222" y="-38.4572"/>
      <point x="235" y="-47.7727"/>
      <point x="235" y="-65" type="curve" smooth="yes"/>
      <point x="235" y="-70.5483"/>
      <point x="231.331" y="-81.8988"/>
      <point x="231.331" y="-94" type="curve" smooth="yes"/>
      <point x="231.331" y="-114"/>
      <point x="242.211" y="-137.408"/>
      <point x="300.489" y="-137.408" type="curve" smooth="yes"/>
      <point x="339.383" y="-137.408"/>
      <point x="375.053" y="-120.937"/>
      <point x="375.053" y="-83.3776" type="curve" smooth="yes"/>
      <point x="375.053" y="-40.6169"/>
      <point x="334.405" y="-14.6465"/>
      <point x="267.469" y="-14.6465" type="curve" smooth="yes"/>
      <point x="258.714" y="-14.6465"/>
      <point x="258.544" y="-15.0908"/>
      <point x="249" y="-16" type="curve"/>
      <point x="249" y="12" type="line"/>
      <point x="260.679" y="12.9736"/>
      <point x="262.404" y="13.4248"/>
      <point x="273.107" y="13.4248" type="curve" smooth="yes"/>
      <point x="289.882" y="13.4248"/>
      <point x="306.88" y="11.3078"/>
      <point x="324.408" y="11.3078" type="curve" smooth="yes"/>
      <point x="423.445" y="11.3078"/>
      <point x="506" y="72.2427"/>
      <point x="506" y="179" type="curve" smooth="yes"/>
      <point x="506" y="292.451"/>
      <point x="404.849" y="357.365"/>
      <point x="285.138" y="357.365" type="curve" smooth="yes"/>
      <point x="174.761" y="357.365"/>
      <point x="73.4203" y="308.982"/>
      <point x="73.4203" y="204.135" type="curve" smooth="yes"/>
      <point x="73.4203" y="133.53"/>
      <point x="136.394" y="80.9805"/>
      <point x="222.573" y="80.9805" type="curve" smooth="yes"/>
      <point x="276" y="80.9805"/>
      <point x="317" y="96"/>
      <point x="333" y="120" type="curve"/>
      <point x="318" y="108"/>
      <point x="299.454" y="104.979"/>
      <point x="285.064" y="104.979" type="curve" smooth="yes"/>
      <point x="244" y="104.979"/>
      <point x="208" y="138.57"/>
      <point x="208" y="179" type="curve" smooth="yes"/>
      <point x="208" y="225.264"/>
      <point x="242" y="259.684"/>
      <point x="286.355" y="259.684" type="curve" smooth="yes"/>
      <point x="343.785" y="259.684"/>
      <point x="376" y="221.615"/>
      <point x="376" y="170" type="curve" smooth="yes"/>
      <point x="376" y="90"/>
      <point x="310" y="54"/>
      <point x="220" y="54" type="curve" smooth="yes"/>
      <point x="113" y="54"/>
      <point x="32.7693" y="116.843"/>
    </contour>
    <contour>
      <point x="236.995" y="182" type="curve" smooth="yes"/>
      <point x="236.995" y="153.79"/>
      <point x="260.797" y="132.015"/>
      <point x="288" y="132.015" type="curve" smooth="yes"/>
      <point x="316.146" y="132.015"/>
      <point x="339.005" y="154.81"/>
      <point x="339.005" y="182" type="curve" smooth="yes"/>
      <point x="339.005" y="210.21"/>
      <point x="315.203" y="231.985"/>
      <point x="288" y="231.985" type="curve" smooth="yes"/>
      <point x="259.854" y="231.985"/>
      <point x="236.995" y="209.19"/>
    </contour>
  </outline>
</glyph>
<glyph name="uni0D8F" format="1">
  <advance width="820"/>
  <unicode hex="0D8F"/>
  <outline>
    <contour>
      <point x="640.25" y="53" type="curve" smooth="yes"/>
      <point x="640.25" y="39"/>
      <point x="651.25" y="28"/>
      <point x="665.25" y="28" type="curve" smooth="yes"/>
      <point x="679.25" y="28"/>
      <point x="690.25" y="39"/>
      <point x="690.25" y="53" type="curve" smooth="yes"/>
      <point x="690.25" y="67"/>
      <point x="679.25" y="78"/>
      <point x="665.25" y="78" type="curve" smooth="yes"/>
      <point x="651.25" y="78"/>
      <point x="640.25" y="67"/>
    </contour>
    <contour>
      <point x="582" y="445" type="curve" smooth="yes"/>
      <point x="582" y="467.209"/>
      <point x="597.873" y="481"/>
      <point x="630" y="481" type="curve" smooth="yes"/>
      <point x="716.633" y="481"/>
      <point x="773" y="378.197"/>
      <point x="773" y="240" type="curve" smooth="yes"/>
      <point x="773" y="147.28"/>
      <point x="741.789" y="1.25"/>
      <point x="665.5" y="1.25" type="curve" smooth="yes"/>
      <point x="636.334" y="1.25"/>
      <point x="613.5" y="23.415"/>
      <point x="613.5" y="53.25" type="curve" smooth="yes"/>
      <point x="613.5" y="78.5664"/>
      <point x="632.804" y="104.75"/>
      <point x="665.5" y="104.75" type="curve" smooth="yes"/>
      <point x="682.58" y="104.75"/>
      <point x="701.074" y="96.6582"/>
      <point x="710.75" y="77.75" type="curve"/>
      <point x="732.647" y="112.996"/>
      <point x="743" y="187.75"/>
      <point x="743" y="239.75" type="curve" smooth="yes"/>
      <point x="743" y="351.613"/>
      <point x="701.53" y="452"/>
      <point x="633.5" y="452" type="curve" smooth="yes"/>
      <point x="625.361" y="452"/>
      <point x="612" y="449.567"/>
      <point x="612" y="436" type="curve" smooth="yes"/>
      <point x="612" y="424"/>
      <point x="617.438" y="409.775"/>
      <point x="629.25" y="394" type="curve"/>
      <point x="616.293" y="402.964"/>
      <point x="596.71" y="419.403"/>
      <point x="589" y="422" type="curve"/>
      <point x="583.578" y="428.529"/>
      <point x="582" y="439.667"/>
    </contour>
    <contour>
      <point x="113.75" y="53" type="curve" smooth="yes"/>
      <point x="113.75" y="39"/>
      <point x="124.75" y="28"/>
      <point x="138.75" y="28" type="curve" smooth="yes"/>
      <point x="152.75" y="28"/>
      <point x="163.75" y="39"/>
      <point x="163.75" y="53" type="curve" smooth="yes"/>
      <point x="163.75" y="67"/>
      <point x="152.75" y="78"/>
      <point x="138.75" y="78" type="curve" smooth="yes"/>
      <point x="124.75" y="78"/>
      <point x="113.75" y="67"/>
    </contour>
    <contour>
      <point x="31" y="240" type="curve" smooth="yes"/>
      <point x="31" y="378.197"/>
      <point x="87.3675" y="481"/>
      <point x="174" y="481" type="curve" smooth="yes"/>
      <point x="206.127" y="481"/>
      <point x="222" y="467.209"/>
      <point x="222" y="445" type="curve" smooth="yes"/>
      <point x="222" y="439.667"/>
      <point x="221.422" y="432.529"/>
      <point x="216" y="426" type="curve"/>
      <point x="208.29" y="423.403"/>
      <point x="185.707" y="412.964"/>
      <point x="172.75" y="404" type="curve"/>
      <point x="181.728" y="413.703"/>
      <point x="192" y="424"/>
      <point x="192" y="436" type="curve" smooth="yes"/>
      <point x="192" y="449.567"/>
      <point x="178.639" y="452"/>
      <point x="170.5" y="452" type="curve" smooth="yes"/>
      <point x="102.47" y="452"/>
      <point x="61" y="351.613"/>
      <point x="61" y="239.75" type="curve" smooth="yes"/>
      <point x="61" y="187.75"/>
      <point x="71.3528" y="112.996"/>
      <point x="93.25" y="77.75" type="curve"/>
      <point x="102.926" y="96.6578"/>
      <point x="121.42" y="104.75"/>
      <point x="138.5" y="104.75" type="curve" smooth="yes"/>
      <point x="171.197" y="104.75"/>
      <point x="190.5" y="78.5664"/>
      <point x="190.5" y="53.25" type="curve" smooth="yes"/>
      <point x="190.5" y="23.415"/>
      <point x="167.666" y="1.25"/>
      <point x="138.5" y="1.25" type="curve" smooth="yes"/>
      <point x="62.2109" y="1.25"/>
      <point x="31" y="147.28"/>
    </contour>
    <contour>
      <point x="132.825" y="183.555" type="curve" smooth="yes"/>
      <point x="132.825" y="274.624"/>
      <point x="200.724" y="326.928"/>
      <point x="308.494" y="326.928" type="curve" smooth="yes"/>
      <point x="321.494" y="326.928"/>
      <point x="332.702" y="326.289"/>
      <point x="345.494" y="325" type="curve"/>
      <point x="345.955" y="328.824"/>
      <point x="346.176" y="332.491"/>
      <point x="346.176" y="336" type="curve" smooth="yes"/>
      <point x="346.176" y="375"/>
      <point x="320.617" y="395.274"/>
      <point x="289.494" y="395.274" type="curve" smooth="yes"/>
      <point x="257.464" y="395.274"/>
      <point x="245.055" y="378.803"/>
      <point x="240.147" y="360" type="curve" smooth="yes"/>
      <point x="236.494" y="346"/>
      <point x="223.84" y="328.073"/>
      <point x="195.494" y="328.073" type="curve" smooth="yes"/>
      <point x="176.494" y="328.073"/>
      <point x="156.819" y="340"/>
      <point x="156.819" y="365" type="curve" smooth="yes"/>
      <point x="156.819" y="409"/>
      <point x="204.494" y="433.626"/>
      <point x="259.684" y="433.626" type="curve" smooth="yes"/>
      <point x="332.042" y="433.626"/>
      <point x="376.363" y="401"/>
      <point x="376.363" y="334" type="curve" smooth="yes"/>
      <point x="376.363" y="322.637"/>
      <point x="375.126" y="311.304"/>
      <point x="372.494" y="298" type="curve"/>
      <point x="354.675" y="300.376"/>
      <point x="319.725" y="301.718"/>
      <point x="318.494" y="301.718" type="curve" smooth="yes"/>
      <point x="241.215" y="301.718"/>
      <point x="170.494" y="275.738"/>
      <point x="170.494" y="201" type="curve" smooth="yes"/>
      <point x="170.494" y="106.584"/>
      <point x="294.494" y="71"/>
      <point x="408.494" y="71" type="curve" smooth="yes"/>
      <point x="515.045" y="71"/>
      <point x="641.494" y="110"/>
      <point x="641.494" y="205" type="curve" smooth="yes"/>
      <point x="641.494" y="277.999"/>
      <point x="573.494" y="303.612"/>
      <point x="495.494" y="303.612" type="curve" smooth="yes"/>
      <point x="472.313" y="303.612"/>
      <point x="448.421" y="301.169"/>
      <point x="425.494" y="297" type="curve"/>
      <point x="423.566" y="307.924"/>
      <point x="422.638" y="318.267"/>
      <point x="422.638" y="328" type="curve" smooth="yes"/>
      <point x="422.638" y="397"/>
      <point x="467.451" y="433.118"/>
      <point x="540.339" y="433.118" type="curve" smooth="yes"/>
      <point x="606.494" y="433.118"/>
      <point x="642.513" y="392.966"/>
      <point x="642.513" y="354" type="curve" smooth="yes"/>
      <point x="642.513" y="334"/>
      <point x="634.042" y="316.667"/>
      <point x="615.494" y="303" type="curve"/>
      <point x="655.826" y="279.473"/>
      <point x="675.5" y="240.743"/>
      <point x="675.5" y="186.451" type="curve" smooth="yes"/>
      <point x="675.5" y="55.5615"/>
      <point x="549.139" y="0"/>
      <point x="408.494" y="0" type="curve" smooth="yes"/>
      <point x="260.084" y="0"/>
      <point x="132.825" y="45.9199"/>
    </contour>
    <contour>
      <point x="454.679" y="336" type="curve" smooth="yes"/>
      <point x="454.679" y="332.228"/>
      <point x="454.957" y="328.864"/>
      <point x="455.494" y="325" type="curve"/>
      <point x="472.449" y="327.055"/>
      <point x="488.839" y="328.098"/>
      <point x="504.494" y="328.098" type="curve" smooth="yes"/>
      <point x="537.494" y="328.098"/>
      <point x="565.954" y="323.765"/>
      <point x="590.494" y="315" type="curve"/>
      <point x="601.826" y="325.703"/>
      <point x="606.973" y="338.485"/>
      <point x="606.973" y="351" type="curve" smooth="yes"/>
      <point x="606.973" y="380"/>
      <point x="580.494" y="404.638"/>
      <point x="533.494" y="404.638" type="curve" smooth="yes"/>
      <point x="490.271" y="404.638"/>
      <point x="454.679" y="381"/>
    </contour>
  </outline>
</glyph>
<glyph name="si_Nga" format="1">
  <advance width="617"/>
  <unicode hex="0D9E"/>
  <outline>
    <contour>
      <point x="87.9902" y="346.603" type="curve" smooth="yes"/>
      <point x="87.9902" y="319.533"/>
      <point x="111.912" y="297.5"/>
      <point x="141.5" y="297.5" type="curve" smooth="yes"/>
      <point x="171.088" y="297.5"/>
      <point x="195.01" y="319.533"/>
      <point x="195.01" y="346.603" type="curve" smooth="yes"/>
      <point x="195.01" y="373.672"/>
      <point x="171.088" y="395.705"/>
      <point x="141.5" y="395.705" type="curve" smooth="yes"/>
      <point x="111.912" y="395.705"/>
      <point x="87.9902" y="373.672"/>
    </contour>
    <contour>
      <point x="46" y="468" type="line"/>
      <point x="105.333" y="544"/>
      <point x="183.667" y="582"/>
      <point x="281" y="582" type="curve" smooth="yes"/>
      <point x="440.949" y="582"/>
      <point x="570" y="445"/>
      <point x="570" y="260" type="curve" smooth="yes"/>
      <point x="570" y="114"/>
      <point x="516" y="0"/>
      <point x="416" y="0" type="curve" smooth="yes"/>
      <point x="354.286" y="0"/>
      <point x="329.343" y="21.3887"/>
      <point x="298" y="59" type="curve"/>
      <point x="267.333" y="20.333"/>
      <point x="233" y="0"/>
      <point x="188" y="0" type="curve" smooth="yes"/>
      <point x="106.568" y="0"/>
      <point x="51" y="60.3535"/>
      <point x="51" y="140.25" type="curve" smooth="yes"/>
      <point x="51" y="212.25"/>
      <point x="108.784" y="257.5"/>
      <point x="179" y="257.5" type="curve" smooth="yes"/>
      <point x="215" y="257.5"/>
      <point x="244.5" y="250.75"/>
      <point x="279.5" y="250.75" type="curve" smooth="yes"/>
      <point x="325.5" y="250.75"/>
      <point x="343.25" y="273.75"/>
      <point x="343.25" y="309.75" type="curve" smooth="yes"/>
      <point x="343.25" y="381.358"/>
      <point x="266.83" y="411.212"/>
      <point x="213.75" y="411.212" type="curve" smooth="yes"/>
      <point x="199.419" y="411.212"/>
      <point x="189.791" y="410.171"/>
      <point x="181.75" y="409" type="curve"/>
      <point x="200.75" y="399"/>
      <point x="222.5" y="379.755"/>
      <point x="222.5" y="345.25" type="curve" smooth="yes"/>
      <point x="222.5" y="309.181"/>
      <point x="189.25" y="271.75"/>
      <point x="141.25" y="271.75" type="curve" smooth="yes"/>
      <point x="100.253" y="271.75"/>
      <point x="60.5" y="302.727"/>
      <point x="60.5" y="345.75" type="curve" smooth="yes"/>
      <point x="60.5" y="401.989"/>
      <point x="119.235" y="434"/>
      <point x="207.5" y="434" type="curve" smooth="yes"/>
      <point x="310.5" y="434"/>
      <point x="372" y="378.706"/>
      <point x="372" y="306.25" type="curve" smooth="yes"/>
      <point x="372" y="265.25"/>
      <point x="347.614" y="223.5"/>
      <point x="280.25" y="223.5" type="curve" smooth="yes"/>
      <point x="238.934" y="223.5"/>
      <point x="224" y="230.5"/>
      <point x="181" y="230.5" type="curve" smooth="yes"/>
      <point x="131.792" y="230.5"/>
      <point x="89" y="204.25"/>
      <point x="89" y="156.25" type="curve" smooth="yes"/>
      <point x="89" y="104.25"/>
      <point x="129.615" y="71"/>
      <point x="186" y="71" type="curve" smooth="yes"/>
      <point x="235.067" y="71"/>
      <point x="284" y="96.1621"/>
      <point x="284" y="144" type="curve" smooth="yes"/>
      <point x="284" y="177" type="line"/>
      <point x="311" y="177" type="line"/>
      <point x="311" y="144" type="line" smooth="yes"/>
      <point x="311" y="97.7842"/>
      <point x="361.836" y="70"/>
      <point x="412" y="70" type="curve" smooth="yes"/>
      <point x="492" y="70"/>
      <point x="535" y="160"/>
      <point x="535" y="282" type="curve" smooth="yes"/>
      <point x="535" y="439"/>
      <point x="424.647" y="558"/>
      <point x="278" y="558" type="curve" smooth="yes"/>
      <point x="198.667" y="558"/>
      <point x="132" y="528"/>
      <point x="78" y="468" type="curve"/>
    </contour>
  </outline>
</glyph>
<glyph name="si_Ca" format="1">
  <advance width="597"/>
  <unicode hex="0DA0"/>
  <outline>
    <contour>
      <point x="73" y="0" type="move" name="_cursive"/>
    </contour>
    <contour>
      <point x="64" y="165" type="curve" smooth="yes"/>
      <point x="64" y="196"/>
      <point x="74" y="228"/>
      <point x="97" y="248" type="curve" smooth="yes"/>
      <point x="113" y="262"/>
      <point x="132" y="273"/>
      <point x="158" y="278" type="curve"/>
      <point x="192" y="290"/>
      <point x="233" y="302"/>
      <point x="270" y="302" type="curve" smooth="yes"/>
      <point x="287" y="302" type="line"/>
      <point x="287" y="304"/>
      <point x="287" y="306"/>
      <point x="287" y="308" type="curve" smooth="yes"/>
      <point x="287" y="362"/>
      <point x="253" y="395"/>
      <point x="216" y="395" type="curve" smooth="yes"/>
      <point x="171" y="395"/>
      <point x="164" y="371"/>
      <point x="158" y="355" type="curve" smooth="yes"/>
      <point x="151" y="336"/>
      <point x="141" y="323"/>
      <point x="119" y="323" type="curve" smooth="yes"/>
      <point x="103" y="323"/>
      <point x="83" y="333"/>
      <point x="83" y="359" type="curve" smooth="yes"/>
      <point x="83" y="406"/>
      <point x="133" y="432"/>
      <point x="188" y="432" type="curve" smooth="yes"/>
      <point x="276" y="432"/>
      <point x="319" y="376"/>
      <point x="319" y="290" type="curve" smooth="yes"/>
      <point x="319" y="287"/>
      <point x="319" y="280"/>
      <point x="319" y="277" type="curve"/>
      <point x="250" y="277" type="line" smooth="yes"/>
      <point x="206" y="277"/>
      <point x="166" y="265"/>
      <point x="141" y="249" type="curve" smooth="yes"/>
      <point x="114" y="232"/>
      <point x="101" y="206"/>
      <point x="101" y="180" type="curve" smooth="yes"/>
      <point x="101" y="94"/>
      <point x="208" y="71"/>
      <point x="298" y="71" type="curve" smooth="yes"/>
      <point x="451" y="71"/>
      <point x="541" y="158"/>
      <point x="541" y="300" type="curve" smooth="yes"/>
      <point x="541" y="442"/>
      <point x="437" y="553"/>
      <point x="303" y="553" type="curve" smooth="yes"/>
      <point x="224" y="553"/>
      <point x="161" y="525"/>
      <point x="116" y="470" type="curve"/>
      <point x="84" y="470" type="line"/>
      <point x="133" y="540"/>
      <point x="205" y="577"/>
      <point x="303" y="577" type="curve" smooth="yes"/>
      <point x="463" y="577"/>
      <point x="575" y="443"/>
      <point x="575" y="274" type="curve" smooth="yes"/>
      <point x="575" y="114"/>
      <point x="478" y="0"/>
      <point x="295" y="0" type="curve" smooth="yes"/>
      <point x="174" y="0"/>
      <point x="64" y="46"/>
    </contour>
    <contour>
      <point x="14" y="270" type="curve"/>
      <point x="14" y="302" type="line"/>
      <point x="285" y="302" type="line"/>
      <point x="315" y="277" type="line"/>
      <point x="148" y="277" type="line" smooth="yes"/>
      <point x="77" y="276"/>
      <point x="30" y="273"/>
    </contour>
  </outline>
</glyph>
<glyph name="si_Cha" format="1">
  <advance width="583"/>
  <unicode hex="0DA1"/>
  <outline>
    <contour>
      <point x="52" y="0" type="move" name="_cursive"/>
    </contour>
    <contour>
      <point x="32" y="166" type="curve" smooth="yes"/>
      <point x="32" y="243"/>
      <point x="94" y="305"/>
      <point x="203" y="305" type="curve" smooth="yes"/>
      <point x="208" y="305"/>
      <point x="217" y="305"/>
      <point x="222" y="304" type="curve"/>
      <point x="223" y="311"/>
      <point x="224" y="316"/>
      <point x="224" y="323" type="curve" smooth="yes"/>
      <point x="224" y="353"/>
      <point x="209" y="382"/>
      <point x="173" y="382" type="curve" smooth="yes"/>
      <point x="152" y="382"/>
      <point x="141" y="369"/>
      <point x="134" y="354" type="curve" smooth="yes"/>
      <point x="123" y="331"/>
      <point x="115" y="314"/>
      <point x="89" y="314" type="curve" smooth="yes"/>
      <point x="70" y="314"/>
      <point x="52" y="328"/>
      <point x="52" y="352" type="curve" smooth="yes"/>
      <point x="52" y="400"/>
      <point x="99" y="422"/>
      <point x="145" y="422" type="curve" smooth="yes"/>
      <point x="210" y="422"/>
      <point x="252" y="383"/>
      <point x="252" y="318" type="curve" smooth="yes"/>
      <point x="252" y="306"/>
      <point x="251" y="294"/>
      <point x="248" y="281" type="curve"/>
      <point x="241" y="282"/>
      <point x="233" y="283"/>
      <point x="224" y="283" type="curve" smooth="yes"/>
      <point x="108" y="283"/>
      <point x="68" y="228"/>
      <point x="68" y="182" type="curve" smooth="yes"/>
      <point x="68" y="95"/>
      <point x="184" y="69"/>
      <point x="285" y="69" type="curve" smooth="yes"/>
      <point x="389" y="69"/>
      <point x="502" y="95"/>
      <point x="502" y="182" type="curve" smooth="yes"/>
      <point x="502" y="234"/>
      <point x="459" y="282"/>
      <point x="347" y="282" type="curve" smooth="yes"/>
      <point x="326" y="282"/>
      <point x="291" y="279"/>
      <point x="277" y="278" type="curve"/>
      <point x="275" y="285"/>
      <point x="272" y="301"/>
      <point x="272" y="312" type="curve" smooth="yes"/>
      <point x="272" y="392"/>
      <point x="328" y="425"/>
      <point x="396" y="425" type="curve" smooth="yes"/>
      <point x="466" y="425"/>
      <point x="520" y="383"/>
      <point x="520" y="290" type="curve" smooth="yes"/>
      <point x="520" y="234"/>
      <point x="494" y="156"/>
      <point x="423" y="156" type="curve" smooth="yes"/>
      <point x="364" y="156"/>
      <point x="341" y="218"/>
      <point x="341" y="286" type="curve" smooth="yes"/>
      <point x="341" y="388"/>
      <point x="381" y="484"/>
      <point x="420" y="533" type="curve" smooth="yes"/>
      <point x="452" y="573"/>
      <point x="493" y="603"/>
      <point x="529" y="603" type="curve" smooth="yes"/>
      <point x="545" y="603"/>
      <point x="555" y="592"/>
      <point x="555" y="582" type="curve" smooth="yes"/>
      <point x="555" y="543"/>
      <point x="507" y="575"/>
      <point x="441" y="504" type="curve" smooth="yes"/>
      <point x="402" y="462"/>
      <point x="368" y="382"/>
      <point x="368" y="285" type="curve" smooth="yes"/>
      <point x="368" y="239"/>
      <point x="379" y="183"/>
      <point x="425" y="183" type="curve" smooth="yes"/>
      <point x="467" y="183"/>
      <point x="492" y="238"/>
      <point x="492" y="288" type="curve" smooth="yes"/>
      <point x="492" y="369"/>
      <point x="454" y="400"/>
      <point x="393" y="400" type="curve" smooth="yes"/>
      <point x="350" y="400"/>
      <point x="299" y="379"/>
      <point x="299" y="316" type="curve" smooth="yes"/>
      <point x="299" y="311"/>
      <point x="299" y="307"/>
      <point x="300" y="303" type="curve"/>
      <point x="307" y="304"/>
      <point x="326" y="305"/>
      <point x="342" y="305" type="curve" smooth="yes"/>
      <point x="379" y="305"/>
      <point x="424" y="302"/>
      <point x="462" y="284" type="curve" smooth="yes"/>
      <point x="505" y="264"/>
      <point x="536" y="223"/>
      <point x="536" y="164" type="curve" smooth="yes"/>
      <point x="536" y="44"/>
      <point x="414" y="0"/>
      <point x="291" y="0" type="curve" smooth="yes"/>
      <point x="156" y="0"/>
      <point x="32" y="43"/>
    </contour>
  </outline>
</glyph>
<glyph name="si_Dda" format="1">
  <advance width="647"/>
  <unicode hex="0DA9"/>
  <outline>
    <contour>
      <point x="15" y="288" type="line"/>
      <point x="15" y="315" type="line"/>
      <point x="261" y="315" type="line"/>
      <point x="258.164" y="357.533"/>
      <point x="228" y="391.268"/>
      <point x="198" y="391.268" type="curve" smooth="yes"/>
      <point x="180.364" y="391.268"/>
      <point x="165.118" y="387.386"/>
      <point x="151" y="363" type="curve" smooth="yes"/>
      <point x="140" y="344"/>
      <point x="126.646" y="339.264"/>
      <point x="113" y="339.264" type="curve" smooth="yes"/>
      <point x="93" y="339.264"/>
      <point x="76.2109" y="353"/>
      <point x="76.2109" y="374.122" type="curve" smooth="yes"/>
      <point x="76.2109" y="414"/>
      <point x="123.101" y="432.167"/>
      <point x="165.279" y="432.167" type="curve" smooth="yes"/>
      <point x="249.407" y="432.167"/>
      <point x="293.627" y="373.979"/>
      <point x="295" y="288" type="curve"/>
      <point x="220" y="288" type="line" smooth="yes"/>
      <point x="126.957" y="288"/>
      <point x="83.3915" y="230"/>
      <point x="83.3915" y="174" type="curve" smooth="yes"/>
      <point x="83.3915" y="121.642"/>
      <point x="123.262" y="71"/>
      <point x="198" y="71" type="curve" smooth="yes"/>
      <point x="247.046" y="71"/>
      <point x="299" y="95.1648"/>
      <point x="299" y="143" type="curve" smooth="yes"/>
      <point x="299" y="178" type="line"/>
      <point x="326" y="178" type="line"/>
      <point x="326" y="143" type="line" smooth="yes"/>
      <point x="326" y="97.0863"/>
      <point x="373.775" y="71"/>
      <point x="424" y="71" type="curve" smooth="yes"/>
      <point x="520.489" y="71"/>
      <point x="562.143" y="167.485"/>
      <point x="562.143" y="273.218" type="curve" smooth="yes"/>
      <point x="562.143" y="428"/>
      <point x="456" y="556.09"/>
      <point x="298.465" y="556.09" type="curve" smooth="yes"/>
      <point x="217.966" y="556.09"/>
      <point x="153.203" y="524.902"/>
      <point x="106" y="468" type="curve"/>
      <point x="73" y="468" type="line"/>
      <point x="127.258" y="545.934"/>
      <point x="209.737" y="582.02"/>
      <point x="304.119" y="582.02" type="curve" smooth="yes"/>
      <point x="478.636" y="582.02"/>
      <point x="597.987" y="444"/>
      <point x="597.987" y="258.222" type="curve" smooth="yes"/>
      <point x="597.987" y="126.286"/>
      <point x="547.007" y="-0.0251312"/>
      <point x="427.656" y="-0.0251312" type="curve" smooth="yes"/>
      <point x="363.028" y="-0.0251312"/>
      <point x="334.63" y="28.5207"/>
      <point x="313" y="59" type="curve"/>
      <point x="283.406" y="21.6861"/>
      <point x="250" y="0"/>
      <point x="199" y="0" type="curve" smooth="yes"/>
      <point x="97.9838" y="0"/>
      <point x="45.8805" y="81.1903"/>
      <point x="45.8805" y="162" type="curve" smooth="yes"/>
      <point x="45.8805" y="212"/>
      <point x="71.0487" y="264.198"/>
      <point x="125" y="288" type="curve"/>
    </contour>
  </outline>
</glyph>
<glyph name="si_Ddha" format="1">
  <advance width="631"/>
  <unicode hex="0DAA"/>
  <outline>
    <contour>
      <point x="52" y="0" type="move" name="_cursive"/>
    </contour>
    <contour>
      <point x="15" y="281" type="line"/>
      <point x="15" y="308" type="line"/>
      <point x="252" y="308" type="line"/>
      <point x="249" y="350"/>
      <point x="219" y="382"/>
      <point x="190" y="382" type="curve" smooth="yes"/>
      <point x="172" y="382"/>
      <point x="159" y="377"/>
      <point x="145" y="354" type="curve" smooth="yes"/>
      <point x="134" y="335"/>
      <point x="121" y="331"/>
      <point x="107" y="331" type="curve" smooth="yes"/>
      <point x="87" y="331"/>
      <point x="71" y="344"/>
      <point x="71" y="365" type="curve" smooth="yes"/>
      <point x="71" y="404"/>
      <point x="117" y="422"/>
      <point x="158" y="422" type="curve" smooth="yes"/>
      <point x="240" y="422"/>
      <point x="284" y="365"/>
      <point x="285" y="281" type="curve"/>
      <point x="215" y="281" type="line" smooth="yes"/>
      <point x="124" y="281"/>
      <point x="81" y="225"/>
      <point x="81" y="170" type="curve" smooth="yes"/>
      <point x="81" y="119"/>
      <point x="120" y="69"/>
      <point x="193" y="69" type="curve" smooth="yes"/>
      <point x="241" y="69"/>
      <point x="292" y="93"/>
      <point x="292" y="140" type="curve" smooth="yes"/>
      <point x="292" y="174" type="line"/>
      <point x="318" y="174" type="line"/>
      <point x="318" y="140" type="line" smooth="yes"/>
      <point x="318" y="95"/>
      <point x="365" y="69"/>
      <point x="414" y="69" type="curve" smooth="yes"/>
      <point x="508" y="69"/>
      <point x="548" y="155"/>
      <point x="548" y="257" type="curve" smooth="yes"/>
      <point x="548" y="316"/>
      <point x="529" y="369"/>
      <point x="503" y="414" type="curve"/>
      <point x="487" y="386"/>
      <point x="460" y="354"/>
      <point x="412" y="354" type="curve" smooth="yes"/>
      <point x="348" y="354"/>
      <point x="311" y="402"/>
      <point x="311" y="466" type="curve" smooth="yes"/>
      <point x="311" y="528"/>
      <point x="340" y="572"/>
      <point x="351" y="589" type="curve"/>
      <point x="462" y="545"/>
      <point x="584" y="397"/>
      <point x="584" y="243" type="curve" smooth="yes"/>
      <point x="584" y="120"/>
      <point x="540" y="0"/>
      <point x="416" y="0" type="curve" smooth="yes"/>
      <point x="355" y="0"/>
      <point x="327" y="29"/>
      <point x="306" y="58" type="curve"/>
      <point x="277" y="22"/>
      <point x="244" y="0"/>
      <point x="194" y="0" type="curve" smooth="yes"/>
      <point x="95" y="0"/>
      <point x="45" y="79"/>
      <point x="45" y="158" type="curve" smooth="yes"/>
      <point x="45" y="207"/>
      <point x="69" y="258"/>
      <point x="122" y="281" type="curve"/>
    </contour>
    <contour>
      <point x="339" y="470" type="curve" smooth="yes"/>
      <point x="339" y="413"/>
      <point x="367" y="384"/>
      <point x="414" y="384" type="curve" smooth="yes"/>
      <point x="449" y="384"/>
      <point x="472" y="414"/>
      <point x="485" y="440" type="curve"/>
      <point x="445" y="497"/>
      <point x="395" y="537"/>
      <point x="364" y="553" type="curve"/>
      <point x="352" y="539"/>
      <point x="339" y="503"/>
    </contour>
  </outline>
</glyph>
<glyph name="si_Nna" format="1">
  <advance width="940"/>
  <unicode hex="0DAB"/>
  <outline>
    <contour>
      <point x="51" y="0" type="move" name="_cursive"/>
    </contour>
    <contour>
      <point x="21" y="174" type="line"/>
      <point x="208" y="299"/>
      <point x="416" y="393"/>
      <point x="638" y="472" type="curve" smooth="yes"/>
      <point x="709" y="497"/>
      <point x="778" y="515"/>
      <point x="809" y="515" type="curve" smooth="yes"/>
      <point x="831" y="515"/>
      <point x="843" y="506"/>
      <point x="843" y="488" type="curve" smooth="yes"/>
      <point x="843" y="473"/>
      <point x="831" y="464"/>
      <point x="809" y="459" type="curve" smooth="yes"/>
      <point x="781" y="454"/>
      <point x="733" y="445"/>
      <point x="667" y="433" type="curve" smooth="yes"/>
      <point x="480" y="399"/>
      <point x="271" y="294"/>
      <point x="112" y="203" type="curve"/>
      <point x="172" y="203"/>
      <point x="190" y="71"/>
      <point x="342" y="71" type="curve" smooth="yes"/>
      <point x="446" y="71"/>
      <point x="536" y="129"/>
      <point x="536" y="231" type="curve" smooth="yes"/>
      <point x="536" y="322"/>
      <point x="471" y="398"/>
      <point x="349" y="398" type="curve" smooth="yes"/>
      <point x="263" y="398"/>
      <point x="194" y="351"/>
      <point x="194" y="281" type="curve" smooth="yes"/>
      <point x="194" y="208"/>
      <point x="257" y="178"/>
      <point x="314" y="178" type="curve"/>
      <point x="396" y="174" type="line"/>
      <point x="375" y="160"/>
      <point x="353" y="152"/>
      <point x="313" y="152" type="curve" smooth="yes"/>
      <point x="226" y="152"/>
      <point x="166" y="203"/>
      <point x="166" y="276" type="curve" smooth="yes"/>
      <point x="166" y="373"/>
      <point x="252" y="423"/>
      <point x="351" y="423" type="curve" smooth="yes"/>
      <point x="430" y="423"/>
      <point x="570" y="381"/>
      <point x="570" y="208" type="curve" smooth="yes"/>
      <point x="570" y="111"/>
      <point x="507" y="0"/>
      <point x="356" y="0" type="curve" smooth="yes"/>
      <point x="163" y="0"/>
      <point x="176" y="177"/>
      <point x="97" y="177" type="curve" smooth="yes"/>
      <point x="70" y="177"/>
      <point x="53" y="164"/>
      <point x="32" y="150" type="curve"/>
    </contour>
    <contour>
      <point x="261" y="247" type="curve" smooth="yes"/>
      <point x="261" y="295"/>
      <point x="301" y="335"/>
      <point x="349" y="335" type="curve" smooth="yes"/>
      <point x="397" y="335"/>
      <point x="437" y="295"/>
      <point x="437" y="247" type="curve" smooth="yes"/>
      <point x="437" y="199"/>
      <point x="397" y="159"/>
      <point x="349" y="159" type="curve" smooth="yes"/>
      <point x="301" y="159"/>
      <point x="261" y="199"/>
    </contour>
    <contour>
      <point x="289" y="248" type="curve" smooth="yes"/>
      <point x="289" y="215"/>
      <point x="316" y="188"/>
      <point x="349" y="188" type="curve" smooth="yes"/>
      <point x="382" y="188"/>
      <point x="408" y="215"/>
      <point x="408" y="248" type="curve" smooth="yes"/>
      <point x="408" y="281"/>
      <point x="382" y="308"/>
      <point x="349" y="308" type="curve" smooth="yes"/>
      <point x="316" y="308"/>
      <point x="289" y="281"/>
    </contour>
    <contour>
      <point x="536" y="157" type="curve" smooth="yes"/>
      <point x="536" y="224"/>
      <point x="577" y="279"/>
      <point x="630" y="279" type="curve" smooth="yes"/>
      <point x="662" y="279"/>
      <point x="686" y="266"/>
      <point x="702" y="245" type="curve"/>
      <point x="706" y="293"/>
      <point x="736" y="340"/>
      <point x="796" y="340" type="curve" smooth="yes"/>
      <point x="860" y="340"/>
      <point x="894" y="259"/>
      <point x="894" y="164" type="curve" smooth="yes"/>
      <point x="894" y="71"/>
      <point x="862" y="-1"/>
      <point x="781" y="-1" type="curve" smooth="yes"/>
      <point x="730" y="-1"/>
      <point x="702" y="32"/>
      <point x="697" y="66" type="curve"/>
      <point x="681" y="46"/>
      <point x="658" y="35"/>
      <point x="630" y="35" type="curve" smooth="yes"/>
      <point x="577" y="35"/>
      <point x="536" y="90"/>
    </contour>
    <contour>
      <point x="563" y="158" type="curve" smooth="yes"/>
      <point x="563" y="107"/>
      <point x="593" y="66"/>
      <point x="629" y="66" type="curve" smooth="yes"/>
      <point x="670" y="66"/>
      <point x="694" y="102"/>
      <point x="694" y="158" type="curve" smooth="yes"/>
      <point x="694" y="217"/>
      <point x="673" y="250"/>
      <point x="629" y="250" type="curve" smooth="yes"/>
      <point x="593" y="250"/>
      <point x="563" y="209"/>
    </contour>
    <contour>
      <point x="717" y="103" type="curve" smooth="yes"/>
      <point x="717" y="43"/>
      <point x="751" y="33"/>
      <point x="773" y="33" type="curve" smooth="yes"/>
      <point x="823" y="33"/>
      <point x="832" y="93"/>
      <point x="832" y="165" type="curve" smooth="yes"/>
      <point x="832" y="239"/>
      <point x="816" y="302"/>
      <point x="780" y="302" type="curve" smooth="yes"/>
      <point x="738" y="302"/>
      <point x="724" y="257"/>
      <point x="721" y="197" type="curve" smooth="yes"/>
      <point x="723" y="185"/>
      <point x="724" y="172"/>
      <point x="724" y="157" type="curve" smooth="yes"/>
      <point x="724" y="137"/>
      <point x="722" y="120"/>
      <point x="717" y="104" type="curve" smooth="yes"/>
      <point x="717" y="103"/>
      <point x="717" y="104"/>
    </contour>
  </outline>
</glyph>
<glyph name="si_Tha" format="1">
  <advance width="599"/>
  <unicode hex="0DAE"/>
  <outline>
    <contour>
      <point x="51" y="0" type="move" name="_cursive"/>
    </contour>
    <contour>
      <point x="32" y="229" type="curve" smooth="yes"/>
      <point x="32" y="336"/>
      <point x="131" y="420"/>
      <point x="239" y="420" type="curve"/>
      <point x="239" y="396" type="line"/>
      <point x="144" y="396"/>
      <point x="65" y="328"/>
      <point x="65" y="236" type="curve" smooth="yes"/>
      <point x="65" y="119"/>
      <point x="169" y="69"/>
      <point x="298" y="69" type="curve" smooth="yes"/>
      <point x="423" y="69"/>
      <point x="519" y="150"/>
      <point x="519" y="274" type="curve" smooth="yes"/>
      <point x="519" y="330"/>
      <point x="502" y="379"/>
      <point x="481" y="410" type="curve"/>
      <point x="466" y="378"/>
      <point x="438" y="358"/>
      <point x="396" y="358" type="curve" smooth="yes"/>
      <point x="334" y="358"/>
      <point x="298" y="413"/>
      <point x="298" y="477" type="curve" smooth="yes"/>
      <point x="298" y="526"/>
      <point x="313" y="561"/>
      <point x="339" y="591" type="curve"/>
      <point x="399" y="559"/>
      <point x="468" y="489"/>
      <point x="503" y="428" type="curve" smooth="yes"/>
      <point x="541" y="363"/>
      <point x="553" y="314"/>
      <point x="553" y="246" type="curve" smooth="yes"/>
      <point x="553" y="100"/>
      <point x="439" y="-1"/>
      <point x="288" y="-1" type="curve" smooth="yes"/>
      <point x="147" y="-1"/>
      <point x="32" y="89"/>
    </contour>
    <contour>
      <point x="327" y="480" type="curve" smooth="yes"/>
      <point x="327" y="432"/>
      <point x="346" y="394"/>
      <point x="402" y="394" type="curve" smooth="yes"/>
      <point x="425" y="394"/>
      <point x="453" y="405"/>
      <point x="463" y="438" type="curve"/>
      <point x="434" y="483"/>
      <point x="385" y="528"/>
      <point x="348" y="555" type="curve"/>
      <point x="336" y="537"/>
      <point x="327" y="514"/>
    </contour>
  </outline>
</glyph>
<glyph name="uni0DAF" format="1">
  <advance width="456"/>
  <unicode hex="0DAF"/>
  <outline>
    <contour>
      <point x="31" y="169" type="curve" smooth="yes"/>
      <point x="31" y="274"/>
      <point x="104" y="317"/>
      <point x="223" y="317" type="curve" smooth="yes"/>
      <point x="343" y="317" type="line"/>
      <point x="333.277" y="363.186"/>
      <point x="304" y="396"/>
      <point x="260" y="396" type="curve" smooth="yes"/>
      <point x="241" y="396"/>
      <point x="225.048" y="383.911"/>
      <point x="216.5" y="366" type="curve" smooth="yes"/>
      <point x="206" y="344"/>
      <point x="189.802" y="336"/>
      <point x="175" y="336" type="curve" smooth="yes"/>
      <point x="150" y="336"/>
      <point x="137" y="351"/>
      <point x="137" y="372" type="curve" smooth="yes"/>
      <point x="137" y="408.283"/>
      <point x="177" y="433"/>
      <point x="232" y="433" type="curve" smooth="yes"/>
      <point x="317.739" y="433"/>
      <point x="360.904" y="389.003"/>
      <point x="379" y="294" type="curve"/>
      <point x="242" y="294" type="line" smooth="yes"/>
      <point x="154" y="294"/>
      <point x="108" y="257"/>
      <point x="108" y="173" type="curve" smooth="yes"/>
      <point x="108" y="89"/>
      <point x="178" y="27"/>
      <point x="261" y="27" type="curve" smooth="yes"/>
      <point x="307.077" y="27"/>
      <point x="344" y="46"/>
      <point x="384" y="92" type="curve"/>
      <point x="407" y="75" type="line"/>
      <point x="376.46" y="39.3701"/>
      <point x="306" y="-28"/>
      <point x="306" y="-104" type="curve" smooth="yes"/>
      <point x="306" y="-170.098"/>
      <point x="345.218" y="-195.118"/>
      <point x="409" y="-210" type="curve"/>
      <point x="409" y="-238" type="line"/>
      <point x="395" y="-240.667"/>
      <point x="377" y="-242"/>
      <point x="355" y="-242" type="curve" smooth="yes"/>
      <point x="284.434" y="-240.04"/>
      <point x="249" y="-199.019"/>
      <point x="249" y="-142" type="curve" smooth="yes"/>
      <point x="249" y="-103.333"/>
      <point x="272.333" y="-52.6667"/>
      <point x="319" y="10" type="curve"/>
      <point x="284" y="0"/>
      <point x="261.333" y="-1"/>
      <point x="234" y="-1" type="curve" smooth="yes"/>
      <point x="103" y="-1"/>
      <point x="31" y="69"/>
    </contour>
  </outline>
</glyph>
<glyph name="uni0DB0" format="1">
  <advance width="638"/>
  <unicode hex="0DB0"/>
  <outline>
    <contour>
      <point x="33" y="195" type="curve" smooth="yes"/>
      <point x="33" y="288"/>
      <point x="86.2482" y="363.669"/>
      <point x="152" y="387" type="curve" smooth="yes"/>
      <point x="172.667" y="394.333"/>
      <point x="195.667" y="398"/>
      <point x="221" y="398" type="curve"/>
      <point x="221" y="373" type="line"/>
      <point x="217.651" y="373.289"/>
      <point x="214.316" y="373.436"/>
      <point x="211" y="373.436" type="curve" smooth="yes"/>
      <point x="132" y="373.436"/>
      <point x="67" y="301"/>
      <point x="67" y="212" type="curve" smooth="yes"/>
      <point x="67" y="135.558"/>
      <point x="114.568" y="71"/>
      <point x="188" y="71" type="curve" smooth="yes"/>
      <point x="238.911" y="71"/>
      <point x="290" y="92"/>
      <point x="290" y="156" type="curve" smooth="yes"/>
      <point x="290" y="196" type="line"/>
      <point x="318" y="196" type="line"/>
      <point x="318" y="156" type="line" smooth="yes"/>
      <point x="318" y="92"/>
      <point x="367.83" y="71"/>
      <point x="417" y="71" type="curve" smooth="yes"/>
      <point x="512.71" y="71"/>
      <point x="555" y="181"/>
      <point x="555" y="284" type="curve" smooth="yes"/>
      <point x="555" y="442"/>
      <point x="440.908" y="556"/>
      <point x="294" y="556" type="curve" smooth="yes"/>
      <point x="213.333" y="556"/>
      <point x="149.667" y="527.333"/>
      <point x="97" y="468" type="curve"/>
      <point x="65" y="468" type="line"/>
      <point x="121.667" y="542.667"/>
      <point x="199.667" y="580"/>
      <point x="299" y="580" type="curve" smooth="yes"/>
      <point x="462" y="580"/>
      <point x="589" y="446"/>
      <point x="589" y="261" type="curve" smooth="yes"/>
      <point x="589" y="139"/>
      <point x="547.876" y="0"/>
      <point x="422" y="0" type="curve" smooth="yes"/>
      <point x="372.667" y="0"/>
      <point x="333" y="19.6667"/>
      <point x="303" y="59" type="curve"/>
      <point x="272.333" y="20.3333"/>
      <point x="234.672" y="0"/>
      <point x="190" y="0" type="curve" smooth="yes"/>
      <point x="88" y="0"/>
      <point x="33" y="96"/>
    </contour>
  </outline>
</glyph>
<glyph name="si_Nda" format="1">
  <advance width="513"/>
  <unicode hex="0DB3"/>
  <outline>
    <contour>
      <point x="41" y="0" type="move" name="_cursive"/>
    </contour>
    <contour>
      <point x="112" y="165" type="curve" smooth="yes"/>
      <point x="112" y="268"/>
      <point x="184" y="310"/>
      <point x="300" y="310" type="curve" smooth="yes"/>
      <point x="417" y="310" type="line"/>
      <point x="406" y="354"/>
      <point x="363" y="385"/>
      <point x="322" y="385" type="curve" smooth="yes"/>
      <point x="303" y="385"/>
      <point x="288" y="374"/>
      <point x="279" y="357" type="curve" smooth="yes"/>
      <point x="269" y="336"/>
      <point x="254" y="328"/>
      <point x="239" y="328" type="curve" smooth="yes"/>
      <point x="215" y="328"/>
      <point x="202" y="342"/>
      <point x="202" y="363" type="curve" smooth="yes"/>
      <point x="202" y="400"/>
      <point x="238" y="422"/>
      <point x="289" y="422" type="curve" smooth="yes"/>
      <point x="370" y="422"/>
      <point x="433" y="379"/>
      <point x="452" y="287" type="curve"/>
      <point x="318" y="287" type="line" smooth="yes"/>
      <point x="232" y="287"/>
      <point x="188" y="251"/>
      <point x="188" y="169" type="curve" smooth="yes"/>
      <point x="188" y="87"/>
      <point x="256" y="26"/>
      <point x="337" y="26" type="curve" smooth="yes"/>
      <point x="382" y="26"/>
      <point x="418" y="45"/>
      <point x="457" y="90" type="curve"/>
      <point x="479" y="73" type="line"/>
      <point x="449" y="38"/>
      <point x="381" y="-28"/>
      <point x="381" y="-102" type="curve" smooth="yes"/>
      <point x="381" y="-166"/>
      <point x="419" y="-190"/>
      <point x="481" y="-205" type="curve"/>
      <point x="481" y="-232" type="line"/>
      <point x="467" y="-235"/>
      <point x="450" y="-236"/>
      <point x="429" y="-236" type="curve" smooth="yes"/>
      <point x="360" y="-234"/>
      <point x="325" y="-195"/>
      <point x="325" y="-139" type="curve" smooth="yes"/>
      <point x="325" y="-101"/>
      <point x="348" y="-52"/>
      <point x="394" y="10" type="curve"/>
      <point x="360" y="0"/>
      <point x="337" y="-1"/>
      <point x="311" y="-1" type="curve" smooth="yes"/>
      <point x="183" y="-1"/>
      <point x="112" y="67"/>
    </contour>
    <contour>
      <point x="26" y="216" type="curve" smooth="yes"/>
      <point x="26" y="345"/>
      <point x="96" y="425"/>
      <point x="249" y="425" type="curve" smooth="yes"/>
      <point x="254" y="425"/>
      <point x="294" y="424"/>
      <point x="321" y="418" type="curve"/>
      <point x="305" y="408"/>
      <point x="260" y="401"/>
      <point x="220" y="396" type="curve"/>
      <point x="116" y="388"/>
      <point x="55" y="334"/>
      <point x="55" y="213" type="curve" smooth="yes"/>
      <point x="55" y="134"/>
      <point x="81" y="73"/>
      <point x="132" y="29" type="curve"/>
      <point x="132" y="0" type="line"/>
      <point x="68" y="32"/>
      <point x="26" y="117"/>
    </contour>
  </outline>
</glyph>
<glyph name="si_Ya" format="1">
  <advance width="621"/>
  <unicode hex="0DBA"/>
  <outline>
    <contour>
      <point x="41" y="0" type="move" name="_cursive"/>
    </contour>
    <contour>
      <point x="29" y="181" type="curve" smooth="yes"/>
      <point x="29" y="298"/>
      <point x="104" y="380"/>
      <point x="218" y="380" type="curve" smooth="yes"/>
      <point x="228" y="380"/>
      <point x="236" y="379"/>
      <point x="245" y="378" type="curve"/>
      <point x="245" y="351" type="line"/>
      <point x="234" y="353"/>
      <point x="225" y="354"/>
      <point x="214" y="354" type="curve" smooth="yes"/>
      <point x="127" y="354"/>
      <point x="62" y="291"/>
      <point x="62" y="207" type="curve" smooth="yes"/>
      <point x="62" y="123"/>
      <point x="115" y="69"/>
      <point x="188" y="69" type="curve" smooth="yes"/>
      <point x="236" y="69"/>
      <point x="288" y="95"/>
      <point x="288" y="143" type="curve" smooth="yes"/>
      <point x="288" y="172" type="line"/>
      <point x="314" y="172" type="line"/>
      <point x="314" y="144" type="line" smooth="yes"/>
      <point x="314" y="96"/>
      <point x="369" y="69"/>
      <point x="425" y="69" type="curve" smooth="yes"/>
      <point x="505" y="69"/>
      <point x="542" y="118"/>
      <point x="542" y="182" type="curve" smooth="yes"/>
      <point x="542" y="266"/>
      <point x="482" y="293"/>
      <point x="398" y="293" type="curve" smooth="yes"/>
      <point x="369" y="293"/>
      <point x="340" y="289"/>
      <point x="314" y="282" type="curve"/>
      <point x="313" y="289"/>
      <point x="313" y="296"/>
      <point x="313" y="303" type="curve" smooth="yes"/>
      <point x="313" y="380"/>
      <point x="358" y="423"/>
      <point x="440" y="423" type="curve" smooth="yes"/>
      <point x="499" y="423"/>
      <point x="545" y="400"/>
      <point x="545" y="349" type="curve" smooth="yes"/>
      <point x="545" y="330"/>
      <point x="535" y="305"/>
      <point x="509" y="296" type="curve"/>
      <point x="551" y="271"/>
      <point x="578" y="223"/>
      <point x="578" y="163" type="curve" smooth="yes"/>
      <point x="578" y="69"/>
      <point x="516" y="-1"/>
      <point x="426" y="-1" type="curve" smooth="yes"/>
      <point x="362" y="-1"/>
      <point x="320" y="24"/>
      <point x="300" y="69" type="curve"/>
      <point x="278" y="22"/>
      <point x="239" y="-1"/>
      <point x="182" y="-1" type="curve" smooth="yes"/>
      <point x="83" y="-1"/>
      <point x="29" y="80"/>
    </contour>
    <contour>
      <point x="342" y="312" type="curve"/>
      <point x="358" y="316"/>
      <point x="380" y="317"/>
      <point x="400" y="317" type="curve" smooth="yes"/>
      <point x="435" y="317"/>
      <point x="464" y="314"/>
      <point x="485" y="307" type="curve"/>
      <point x="498" y="313"/>
      <point x="507" y="326"/>
      <point x="507" y="342" type="curve" smooth="yes"/>
      <point x="507" y="373"/>
      <point x="474" y="388"/>
      <point x="440" y="388" type="curve" smooth="yes"/>
      <point x="382" y="388"/>
      <point x="345" y="365"/>
    </contour>
  </outline>
</glyph>
<glyph name="si_Sha" format="1">
  <advance width="631"/>
  <unicode hex="0DC1"/>
  <outline>
    <contour>
      <point x="44" y="0" type="move" name="_cursive"/>
    </contour>
    <contour>
      <point x="34" y="206" type="curve" smooth="yes"/>
      <point x="34" y="334"/>
      <point x="107" y="432"/>
      <point x="234" y="432" type="curve" smooth="yes"/>
      <point x="238" y="432"/>
      <point x="248" y="431"/>
      <point x="251" y="431" type="curve"/>
      <point x="251" y="408" type="line"/>
      <point x="247" y="408"/>
      <point x="242" y="408"/>
      <point x="238" y="408" type="curve" smooth="yes"/>
      <point x="140" y="408"/>
      <point x="67" y="340"/>
      <point x="67" y="230" type="curve" smooth="yes"/>
      <point x="67" y="146"/>
      <point x="112" y="70"/>
      <point x="202" y="70" type="curve" smooth="yes"/>
      <point x="254" y="70"/>
      <point x="309" y="100"/>
      <point x="309" y="157" type="curve" smooth="yes"/>
      <point x="309" y="197"/>
      <point x="290" y="218"/>
      <point x="259" y="218" type="curve" smooth="yes"/>
      <point x="253" y="218"/>
      <point x="245" y="217"/>
      <point x="237" y="211" type="curve"/>
      <point x="235" y="206"/>
      <point x="234" y="197"/>
      <point x="233" y="192" type="curve"/>
      <point x="208" y="192" type="line"/>
      <point x="222" y="328"/>
      <point x="276" y="432"/>
      <point x="399" y="432" type="curve" smooth="yes"/>
      <point x="523" y="432"/>
      <point x="582" y="312"/>
      <point x="582" y="196" type="curve" smooth="yes"/>
      <point x="582" y="128"/>
      <point x="558" y="37"/>
      <point x="529" y="1" type="curve"/>
      <point x="502" y="1" type="line"/>
      <point x="505" y="6"/>
      <point x="507" y="10"/>
      <point x="507" y="14" type="curve" smooth="yes"/>
      <point x="507" y="21"/>
      <point x="503" y="24"/>
      <point x="496" y="24" type="curve" smooth="yes"/>
      <point x="475" y="24"/>
      <point x="465" y="-3"/>
      <point x="427" y="-3" type="curve" smooth="yes"/>
      <point x="390" y="-3"/>
      <point x="367" y="36"/>
      <point x="367" y="75" type="curve" smooth="yes"/>
      <point x="367" y="138"/>
      <point x="413" y="184"/>
      <point x="484" y="184" type="curve" smooth="yes"/>
      <point x="501" y="184"/>
      <point x="523" y="180"/>
      <point x="534" y="176" type="curve"/>
      <point x="534" y="272"/>
      <point x="476" y="370"/>
      <point x="383" y="370" type="curve" smooth="yes"/>
      <point x="307" y="370"/>
      <point x="252" y="314"/>
      <point x="240" y="238" type="curve"/>
      <point x="247" y="241"/>
      <point x="255" y="242"/>
      <point x="262" y="242" type="curve" smooth="yes"/>
      <point x="310" y="242"/>
      <point x="343" y="208"/>
      <point x="343" y="138" type="curve" smooth="yes"/>
      <point x="343" y="62"/>
      <point x="289" y="-1"/>
      <point x="198" y="-1" type="curve" smooth="yes"/>
      <point x="91" y="-1"/>
      <point x="34" y="92"/>
    </contour>
    <contour>
      <point x="398" y="79" type="curve" smooth="yes"/>
      <point x="398" y="51"/>
      <point x="408" y="27"/>
      <point x="433" y="27" type="curve" smooth="yes"/>
      <point x="458" y="27"/>
      <point x="480" y="53"/>
      <point x="500" y="53" type="curve" smooth="yes"/>
      <point x="508" y="53"/>
      <point x="516" y="49"/>
      <point x="519" y="42" type="curve"/>
      <point x="528" y="65"/>
      <point x="531" y="96"/>
      <point x="533" y="122" type="curve" smooth="yes"/>
      <point x="534" y="131"/>
      <point x="534" y="140"/>
      <point x="534" y="147" type="curve"/>
      <point x="520" y="155"/>
      <point x="503" y="158"/>
      <point x="482" y="158" type="curve" smooth="yes"/>
      <point x="432" y="158"/>
      <point x="398" y="125"/>
    </contour>
  </outline>
</glyph>
<glyph name="si_Ssa" format="1">
  <advance width="598"/>
  <unicode hex="0DC2"/>
  <outline>
    <contour>
      <point x="31.3314" y="183.554" type="curve" smooth="yes"/>
      <point x="31.3314" y="274.624"/>
      <point x="99.2297" y="326.928"/>
      <point x="207" y="326.928" type="curve" smooth="yes"/>
      <point x="220" y="326.928"/>
      <point x="231.208" y="326.289"/>
      <point x="244" y="325" type="curve"/>
      <point x="244.461" y="328.824"/>
      <point x="244.682" y="332.491"/>
      <point x="244.682" y="336" type="curve" smooth="yes"/>
      <point x="244.682" y="375"/>
      <point x="219.123" y="395.274"/>
      <point x="188" y="395.274" type="curve" smooth="yes"/>
      <point x="155.97" y="395.274"/>
      <point x="143.561" y="378.802"/>
      <point x="138.654" y="360" type="curve" smooth="yes"/>
      <point x="135" y="346"/>
      <point x="122.346" y="328.073"/>
      <point x="94" y="328.073" type="curve" smooth="yes"/>
      <point x="75" y="328.073"/>
      <point x="55.3252" y="340"/>
      <point x="55.3252" y="365" type="curve" smooth="yes"/>
      <point x="55.3252" y="409"/>
      <point x="103" y="433.626"/>
      <point x="158.189" y="433.626" type="curve" smooth="yes"/>
      <point x="230.548" y="433.626"/>
      <point x="274.87" y="401"/>
      <point x="274.87" y="334" type="curve" smooth="yes"/>
      <point x="274.87" y="322.637"/>
      <point x="273.632" y="311.304"/>
      <point x="271" y="298" type="curve"/>
      <point x="253.181" y="300.376"/>
      <point x="218.23" y="301.718"/>
      <point x="217" y="301.718" type="curve" smooth="yes"/>
      <point x="139.721" y="301.718"/>
      <point x="69" y="275.738"/>
      <point x="69" y="201" type="curve" smooth="yes"/>
      <point x="69" y="106.584"/>
      <point x="193" y="71"/>
      <point x="307" y="71" type="curve" smooth="yes"/>
      <point x="413.551" y="71"/>
      <point x="540" y="110"/>
      <point x="540" y="205" type="curve" smooth="yes"/>
      <point x="540" y="277.999"/>
      <point x="472" y="303.612"/>
      <point x="394" y="303.612" type="curve" smooth="yes"/>
      <point x="370.819" y="303.612"/>
      <point x="346.927" y="301.169"/>
      <point x="324" y="297" type="curve"/>
      <point x="322.072" y="307.924"/>
      <point x="321.143" y="318.267"/>
      <point x="321.143" y="328" type="curve" smooth="yes"/>
      <point x="321.143" y="397"/>
      <point x="365.957" y="433.119"/>
      <point x="438.845" y="433.119" type="curve" smooth="yes"/>
      <point x="505" y="433.119"/>
      <point x="541.019" y="392.966"/>
      <point x="541.019" y="354" type="curve" smooth="yes"/>
      <point x="541.019" y="334"/>
      <point x="532.548" y="316.667"/>
      <point x="514" y="303" type="curve"/>
      <point x="554.332" y="279.473"/>
      <point x="574.006" y="240.743"/>
      <point x="574.006" y="186.452" type="curve" smooth="yes"/>
      <point x="574.006" y="55.5619"/>
      <point x="447.645" y="-7.10543e-15"/>
      <point x="307" y="0" type="curve" smooth="yes"/>
      <point x="158.59" y="0"/>
      <point x="31.3314" y="45.9203"/>
    </contour>
    <contour>
      <point x="353.184" y="336" type="curve" smooth="yes"/>
      <point x="353.184" y="332.228"/>
      <point x="353.463" y="328.865"/>
      <point x="354" y="325" type="curve"/>
      <point x="370.955" y="327.055"/>
      <point x="387.345" y="328.098"/>
      <point x="403" y="328.098" type="curve" smooth="yes"/>
      <point x="436" y="328.098"/>
      <point x="464.46" y="323.764"/>
      <point x="489" y="315" type="curve"/>
      <point x="500.332" y="325.703"/>
      <point x="505.479" y="338.486"/>
      <point x="505.479" y="351" type="curve" smooth="yes"/>
      <point x="505.479" y="380"/>
      <point x="479" y="404.638"/>
      <point x="432" y="404.638" type="curve" smooth="yes"/>
      <point x="388.778" y="404.638"/>
      <point x="353.184" y="381"/>
    </contour>
    <contour>
      <point x="172" y="198" type="curve" smooth="yes"/>
      <point x="172" y="226"/>
      <point x="192" y="254"/>
      <point x="288" y="254" type="curve" smooth="yes"/>
      <point x="311" y="254"/>
      <point x="358.093" y="255.453"/>
      <point x="389" y="261" type="curve" smooth="yes"/>
      <point x="428" y="268"/>
      <point x="460" y="287"/>
      <point x="469" y="296" type="curve"/>
      <point x="501" y="289" type="line"/>
      <point x="479" y="268"/>
      <point x="440" y="248"/>
      <point x="399" y="240" type="curve"/>
      <point x="418.333" y="231.333"/>
      <point x="432" y="216.333"/>
      <point x="432" y="197" type="curve" smooth="yes"/>
      <point x="432" y="152"/>
      <point x="375" y="135"/>
      <point x="296" y="135" type="curve" smooth="yes"/>
      <point x="240.326" y="135"/>
      <point x="172" y="149"/>
    </contour>
    <contour>
      <point x="202" y="198" type="curve" smooth="yes"/>
      <point x="202" y="175"/>
      <point x="234.333" y="161"/>
      <point x="299" y="161" type="curve" smooth="yes"/>
      <point x="367" y="161"/>
      <point x="402" y="175"/>
      <point x="402" y="197" type="curve" smooth="yes"/>
      <point x="402" y="221.676"/>
      <point x="368" y="232"/>
      <point x="298" y="232" type="curve" smooth="yes"/>
      <point x="233" y="232"/>
      <point x="202" y="220"/>
    </contour>
  </outline>
</glyph>
<glyph name="si_Ha" format="1">
  <advance width="637"/>
  <unicode hex="0DC4"/>
  <outline>
    <contour>
      <point x="42" y="0" type="move" name="_cursive"/>
    </contour>
    <contour>
      <point x="32" y="151" type="curve" smooth="yes"/>
      <point x="32" y="240"/>
      <point x="97" y="296"/>
      <point x="189" y="296" type="curve" smooth="yes"/>
      <point x="193" y="296"/>
      <point x="197" y="296"/>
      <point x="201" y="296" type="curve"/>
      <point x="201" y="337"/>
      <point x="178" y="374"/>
      <point x="141" y="374" type="curve" smooth="yes"/>
      <point x="120" y="374"/>
      <point x="110" y="363"/>
      <point x="104" y="348" type="curve" smooth="yes"/>
      <point x="98" y="332"/>
      <point x="85" y="319"/>
      <point x="64" y="319" type="curve" smooth="yes"/>
      <point x="44" y="319"/>
      <point x="32" y="333"/>
      <point x="32" y="355" type="curve" smooth="yes"/>
      <point x="32" y="384"/>
      <point x="59" y="422"/>
      <point x="115" y="422" type="curve" smooth="yes"/>
      <point x="192" y="422"/>
      <point x="232" y="351"/>
      <point x="233" y="271" type="curve"/>
      <point x="221" y="272"/>
      <point x="211" y="273"/>
      <point x="200" y="273" type="curve" smooth="yes"/>
      <point x="122" y="273"/>
      <point x="68" y="239"/>
      <point x="68" y="171" type="curve" smooth="yes"/>
      <point x="68" y="103"/>
      <point x="131" y="70"/>
      <point x="203" y="70" type="curve" smooth="yes"/>
      <point x="267" y="70"/>
      <point x="322" y="98"/>
      <point x="322" y="160" type="curve" smooth="yes"/>
      <point x="322" y="190"/>
      <point x="308" y="207"/>
      <point x="288" y="207" type="curve" smooth="yes"/>
      <point x="275" y="207"/>
      <point x="262" y="199"/>
      <point x="255" y="178" type="curve"/>
      <point x="233" y="188" type="line"/>
      <point x="242" y="310"/>
      <point x="321" y="422"/>
      <point x="420" y="422" type="curve" smooth="yes"/>
      <point x="529" y="422"/>
      <point x="591" y="321"/>
      <point x="591" y="206" type="curve" smooth="yes"/>
      <point x="591" y="90"/>
      <point x="504" y="-1"/>
      <point x="384" y="-1" type="curve" smooth="yes"/>
      <point x="371" y="-1"/>
      <point x="358" y="0"/>
      <point x="344" y="2" type="curve"/>
      <point x="344" y="28" type="line"/>
      <point x="356" y="26"/>
      <point x="367" y="25"/>
      <point x="379" y="25" type="curve" smooth="yes"/>
      <point x="476" y="25"/>
      <point x="544" y="91"/>
      <point x="544" y="188" type="curve" smooth="yes"/>
      <point x="544" y="281"/>
      <point x="493" y="354"/>
      <point x="404" y="354" type="curve" smooth="yes"/>
      <point x="333" y="354"/>
      <point x="286" y="311"/>
      <point x="265" y="224" type="curve"/>
      <point x="275" y="230"/>
      <point x="284" y="231"/>
      <point x="293" y="231" type="curve" smooth="yes"/>
      <point x="330" y="231"/>
      <point x="357" y="195"/>
      <point x="357" y="142" type="curve" smooth="yes"/>
      <point x="357" y="52"/>
      <point x="288" y="-1"/>
      <point x="196" y="-1" type="curve" smooth="yes"/>
      <point x="100" y="-1"/>
      <point x="32" y="59"/>
    </contour>
  </outline>
</glyph>
<glyph name="si_Fa" format="1">
  <advance width="607"/>
  <unicode hex="0DC6"/>
  <outline>
    <contour>
      <point x="33" y="212" type="curve" smooth="yes"/>
      <point x="33" y="316"/>
      <point x="78" y="431"/>
      <point x="186" y="431" type="curve" smooth="yes"/>
      <point x="246" y="431"/>
      <point x="280" y="398"/>
      <point x="296" y="359" type="curve"/>
      <point x="312" y="398"/>
      <point x="346" y="431"/>
      <point x="406" y="431" type="curve" smooth="yes"/>
      <point x="514" y="431"/>
      <point x="559" y="316"/>
      <point x="559" y="212" type="curve" smooth="yes"/>
      <point x="559" y="110"/>
      <point x="511.11" y="-1"/>
      <point x="410" y="-1" type="curve" smooth="yes"/>
      <point x="398" y="-1"/>
      <point x="385.333" y="1.33301"/>
      <point x="372" y="6" type="curve"/>
      <point x="372" y="32" type="line"/>
      <point x="382.667" y="28"/>
      <point x="393.667" y="26"/>
      <point x="405" y="26" type="curve" smooth="yes"/>
      <point x="476" y="26"/>
      <point x="524" y="99"/>
      <point x="524" y="196" type="curve" smooth="yes"/>
      <point x="524" y="282"/>
      <point x="494" y="360"/>
      <point x="408" y="360" type="curve" smooth="yes"/>
      <point x="356" y="360"/>
      <point x="312" y="334"/>
      <point x="312" y="263" type="curve" smooth="yes"/>
      <point x="312" y="222" type="line"/>
      <point x="280" y="222" type="line"/>
      <point x="280" y="263" type="line" smooth="yes"/>
      <point x="280" y="334"/>
      <point x="236" y="360"/>
      <point x="184" y="360" type="curve" smooth="yes"/>
      <point x="98" y="360"/>
      <point x="68" y="282"/>
      <point x="68" y="196" type="curve" smooth="yes"/>
      <point x="68" y="99"/>
      <point x="116" y="26"/>
      <point x="187" y="26" type="curve" smooth="yes"/>
      <point x="198.333" y="26"/>
      <point x="209.333" y="28"/>
      <point x="220" y="32" type="curve"/>
      <point x="220" y="6" type="line"/>
      <point x="206.667" y="1.33333"/>
      <point x="194" y="-1"/>
      <point x="182" y="-1" type="curve" smooth="yes"/>
      <point x="80.8892" y="-1"/>
      <point x="33" y="110"/>
    </contour>
  </outline>
</glyph>
<glyph name="si_Halant" format="1">
  <advance width="2"/>
  <unicode hex="0DCA"/>
  <outline>
    <contour>
      <point x="-140" y="348" type="line"/>
      <point x="-140" y="681" type="line"/>
      <point x="-86" y="639"/>
      <point x="10" y="634"/>
      <point x="10" y="542" type="curve" smooth="yes"/>
      <point x="10" y="498"/>
      <point x="-24.8084" y="468"/>
      <point x="-68" y="468" type="curve" smooth="yes"/>
      <point x="-82.6667" y="468"/>
      <point x="-97.6667" y="471.333"/>
      <point x="-113" y="478" type="curve"/>
      <point x="-113" y="331" type="line"/>
    </contour>
    <contour>
      <point x="-113" y="503" type="line"/>
      <point x="-104.333" y="498.333"/>
      <point x="-93.3333" y="496"/>
      <point x="-80" y="496" type="curve" smooth="yes"/>
      <point x="-42" y="496"/>
      <point x="-27" y="521"/>
      <point x="-27" y="545" type="curve" smooth="yes"/>
      <point x="-27" y="587"/>
      <point x="-66" y="607"/>
      <point x="-113" y="638" type="curve"/>
    </contour>
  </outline>
</glyph>
<glyph name="si_MatraAa" format="1">
  <advance width="300"/>
  <unicode hex="0DCF"/>
  <outline>
    <contour>
      <point x="10" y="110" type="curve" smooth="yes"/>
      <point x="10" y="117"/>
      <point x="10" y="125"/>
      <point x="11" y="132" type="curve"/>
      <point x="38" y="132" type="line"/>
      <point x="37" y="127"/>
      <point x="37" y="122"/>
      <point x="37" y="117" type="curve" smooth="yes"/>
      <point x="37" y="69"/>
      <point x="61" y="36"/>
      <point x="106" y="36" type="curve" smooth="yes"/>
      <point x="165" y="37"/>
      <point x="192" y="91"/>
      <point x="192" y="201" type="curve" smooth="yes"/>
      <point x="192" y="311"/>
      <point x="165" y="366"/>
      <point x="106" y="366" type="curve" smooth="yes"/>
      <point x="68" y="366"/>
      <point x="37" y="333"/>
      <point x="37" y="285" type="curve" smooth="yes"/>
      <point x="37" y="280"/>
      <point x="37" y="275"/>
      <point x="38" y="270" type="curve"/>
      <point x="11" y="270" type="line"/>
      <point x="10" y="277"/>
      <point x="10" y="285"/>
      <point x="10" y="292" type="curve" smooth="yes"/>
      <point x="10" y="361"/>
      <point x="62" y="403"/>
      <point x="121" y="403" type="curve" smooth="yes"/>
      <point x="212" y="403"/>
      <point x="258" y="329"/>
      <point x="258" y="201" type="curve" smooth="yes"/>
      <point x="258" y="73"/>
      <point x="212" y="-1"/>
      <point x="121" y="-1" type="curve" smooth="yes"/>
      <point x="54" y="-1"/>
      <point x="10" y="41"/>
    </contour>
  </outline>
</glyph>
<glyph name="uni0DD0" format="1">
  <advance width="334"/>
  <unicode hex="0DD0"/>
  <outline>
    <contour>
      <point x="3" y="313" type="line"/>
      <point x="3" y="339" type="line"/>
      <point x="249" y="339" type="line"/>
      <point x="248.333" y="337"/>
      <point x="247.333" y="331.667"/>
      <point x="246" y="323" type="curve"/>
      <point x="178" y="223"/>
      <point x="153" y="129"/>
      <point x="153" y="50" type="curve" smooth="yes"/>
      <point x="153" y="-54"/>
      <point x="206" y="-93"/>
      <point x="264" y="-93" type="curve" smooth="yes"/>
      <point x="276.667" y="-93"/>
      <point x="289.333" y="-91.3333"/>
      <point x="302" y="-88" type="curve"/>
      <point x="306" y="-106" type="line"/>
      <point x="278.667" y="-136.667"/>
      <point x="248" y="-147"/>
      <point x="207" y="-147" type="curve" smooth="yes"/>
      <point x="122" y="-147"/>
      <point x="84" y="-73"/>
      <point x="84" y="14" type="curve" smooth="yes"/>
      <point x="84" y="133"/>
      <point x="158" y="254"/>
      <point x="211" y="313" type="curve"/>
    </contour>
  </outline>
</glyph>
<glyph name="si_MatraU" format="1">
  <advance width="2"/>
  <unicode hex="0DD4"/>
  <outline>
    <contour>
      <point x="-594" y="-149" type="curve" smooth="yes"/>
      <point x="-594" y="-90"/>
      <point x="-549.819" y="-51"/>
      <point x="-495" y="-51" type="curve" smooth="yes"/>
      <point x="-451" y="-51"/>
      <point x="-418.333" y="-68"/>
      <point x="-399" y="-110" type="curve"/>
      <point x="-429" y="-122" type="line"/>
      <point x="-438" y="-99"/>
      <point x="-458" y="-81"/>
      <point x="-491" y="-81" type="curve" smooth="yes"/>
      <point x="-526.63" y="-81"/>
      <point x="-559" y="-103"/>
      <point x="-559" y="-143" type="curve" smooth="yes"/>
      <point x="-559" y="-182"/>
      <point x="-530" y="-199"/>
      <point x="-479" y="-199" type="curve" smooth="yes"/>
      <point x="-89" y="-199" type="line"/>
      <point x="-89" y="128" type="line"/>
      <point x="-56" y="219" type="line"/>
      <point x="-56" y="-235" type="line"/>
      <point x="-482" y="-235" type="line" smooth="yes"/>
      <point x="-549" y="-235"/>
      <point x="-594" y="-203"/>
    </contour>
  </outline>
</glyph>
<glyph name="afii61664" format="1">
  <advance width="0"/>
  <unicode hex="200C"/>
  <outline>
    <contour>
      <point x="-20" y="9" type="line"/>
      <point x="-20" y="761" type="line"/>
      <point x="20" y="761" type="line"/>
      <point x="20" y="9" type="line"/>
    </contour>
  </outline>
</glyph>
<glyph name="afii301" format="1">
  <advance width="44"/>
  <unicode hex="200D"/>
  <outline>
    <contour>
      <point x="33" y="0" type="line"/>
      <point x="33" y="695" type="line"/>
      <point x="59" y="695" type="line"/>
      <point x="59" y="0" type="line"/>
    </contour>
  </outline>
</glyph>
<glyph name="uni2039" format="1">
  <advance width="262"/>
  <unicode hex="2039"/>
  <outline>
    <contour>
      <point x="234" y="378" type="curve"/>
      <point x="214" y="395" type="line"/>
      <point x="165" y="340"/>
      <point x="65" y="264"/>
      <point x="38" y="235" type="curve" smooth="yes"/>
      <point x="30" y="226"/>
      <point x="25" y="216"/>
      <point x="25" y="205" type="curve" smooth="yes"/>
      <point x="25" y="194"/>
      <point x="29" y="183"/>
      <point x="38" y="173" type="curve" smooth="yes"/>
      <point x="61" y="146"/>
      <point x="166" y="72"/>
      <point x="219" y="16" type="curve"/>
      <point x="237" y="32" type="line"/>
      <point x="201" y="80"/>
      <point x="143" y="160"/>
      <point x="108" y="205" type="curve"/>
      <point x="142" y="250"/>
      <point x="197" y="328"/>
    </contour>
  </outline>
</glyph>
<glyph name="uni2044" format="1">
  <advance width="147"/>
  <unicode hex="2044"/>
  <outline>
    <contour>
      <point x="-120" y="-29" type="line"/>
      <point x="317" y="610" type="line"/>
      <point x="288" y="630" type="line"/>
      <point x="-150" y="-10" type="line"/>
    </contour>
  </outline>
</glyph>
<glyph name="dottedcircle" format="1">
  <advance width="544"/>
  <unicode hex="25CC"/>
  <outline>
    <contour>
      <point x="104" y="94" type="curve" smooth="yes"/>
      <point x="105" y="109"/>
      <point x="111" y="115"/>
      <point x="126" y="115" type="curve" smooth="yes"/>
      <point x="142" y="115"/>
      <point x="148" y="109"/>
      <point x="147" y="94" type="curve" smooth="yes"/>
      <point x="146" y="79"/>
      <point x="141" y="72"/>
      <point x="126" y="72" type="curve" smooth="yes"/>
      <point x="110" y="72"/>
      <point x="103" y="79"/>
    </contour>
    <contour>
      <point x="62" y="160" type="curve" smooth="yes"/>
      <point x="63" y="175"/>
      <point x="70" y="182"/>
      <point x="84" y="182" type="curve" smooth="yes"/>
      <point x="99" y="182"/>
      <point x="105" y="175"/>
      <point x="104" y="160" type="curve" smooth="yes"/>
      <point x="103" y="145"/>
      <point x="97" y="138"/>
      <point x="83" y="138" type="curve" smooth="yes"/>
      <point x="68" y="138"/>
      <point x="61" y="145"/>
    </contour>
    <contour>
      <point x="168" y="52" type="curve" smooth="yes"/>
      <point x="169" y="67"/>
      <point x="175" y="73"/>
      <point x="189" y="73" type="curve" smooth="yes"/>
      <point x="204" y="73"/>
      <point x="212" y="67"/>
      <point x="211" y="52" type="curve" smooth="yes"/>
      <point x="210" y="37"/>
      <point x="202" y="30"/>
      <point x="188" y="30" type="curve" smooth="yes"/>
      <point x="173" y="30"/>
      <point x="167" y="37"/>
    </contour>
    <contour>
      <point x="242" y="36" type="curve" smooth="yes"/>
      <point x="243" y="51"/>
      <point x="250" y="58"/>
      <point x="264" y="58" type="curve" smooth="yes"/>
      <point x="279" y="58"/>
      <point x="285" y="51"/>
      <point x="284" y="36" type="curve" smooth="yes"/>
      <point x="283" y="21"/>
      <point x="277" y="15"/>
      <point x="263" y="15" type="curve" smooth="yes"/>
      <point x="248" y="15"/>
      <point x="241" y="21"/>
    </contour>
    <contour>
      <point x="49" y="234" type="curve" smooth="yes"/>
      <point x="49" y="249"/>
      <point x="55" y="256"/>
      <point x="70" y="256" type="curve" smooth="yes"/>
      <point x="86" y="256"/>
      <point x="93" y="249"/>
      <point x="92" y="234" type="curve" smooth="yes"/>
      <point x="91" y="219"/>
      <point x="84" y="213"/>
      <point x="70" y="213" type="curve" smooth="yes"/>
      <point x="55" y="213"/>
      <point x="49" y="219"/>
    </contour>
    <contour>
      <point x="65" y="309" type="curve" smooth="yes"/>
      <point x="66" y="324"/>
      <point x="74" y="331"/>
      <point x="88" y="331" type="curve" smooth="yes"/>
      <point x="103" y="331"/>
      <point x="108" y="324"/>
      <point x="107" y="309" type="curve" smooth="yes"/>
      <point x="106" y="294"/>
      <point x="101" y="287"/>
      <point x="88" y="287" type="curve" smooth="yes"/>
      <point x="72" y="287"/>
      <point x="64" y="294"/>
    </contour>
    <contour>
      <point x="319" y="52" type="curve" smooth="yes"/>
      <point x="320" y="67"/>
      <point x="327" y="73"/>
      <point x="341" y="73" type="curve" smooth="yes"/>
      <point x="356" y="73"/>
      <point x="363" y="67"/>
      <point x="362" y="52" type="curve" smooth="yes"/>
      <point x="361" y="37"/>
      <point x="354" y="30"/>
      <point x="340" y="30" type="curve" smooth="yes"/>
      <point x="325" y="30"/>
      <point x="318" y="37"/>
    </contour>
    <contour>
      <point x="109" y="375" type="curve" smooth="yes"/>
      <point x="110" y="389"/>
      <point x="118" y="396"/>
      <point x="132" y="396" type="curve" smooth="yes"/>
      <point x="147" y="396"/>
      <point x="153" y="389"/>
      <point x="152" y="375" type="curve" smooth="yes"/>
      <point x="151" y="361"/>
      <point x="144" y="354"/>
      <point x="130" y="354" type="curve" smooth="yes"/>
      <point x="115" y="354"/>
      <point x="108" y="361"/>
    </contour>
    <contour>
      <point x="385" y="94" type="curve" smooth="yes"/>
      <point x="386" y="109"/>
      <point x="392" y="115"/>
      <point x="406" y="115" type="curve" smooth="yes"/>
      <point x="421" y="115"/>
      <point x="428" y="109"/>
      <point x="427" y="94" type="curve" smooth="yes"/>
      <point x="426" y="79"/>
      <point x="419" y="72"/>
      <point x="405" y="72" type="curve" smooth="yes"/>
      <point x="390" y="72"/>
      <point x="384" y="79"/>
    </contour>
    <contour>
      <point x="174" y="418" type="curve" smooth="yes"/>
      <point x="175" y="433"/>
      <point x="182" y="439"/>
      <point x="196" y="439" type="curve" smooth="yes"/>
      <point x="211" y="439"/>
      <point x="218" y="433"/>
      <point x="217" y="418" type="curve" smooth="yes"/>
      <point x="216" y="403"/>
      <point x="209" y="396"/>
      <point x="195" y="396" type="curve" smooth="yes"/>
      <point x="180" y="396"/>
      <point x="173" y="403"/>
    </contour>
    <contour>
      <point x="428" y="160" type="curve" smooth="yes"/>
      <point x="429" y="175"/>
      <point x="435" y="182"/>
      <point x="450" y="182" type="curve" smooth="yes"/>
      <point x="466" y="182"/>
      <point x="473" y="175"/>
      <point x="472" y="160" type="curve" smooth="yes"/>
      <point x="471" y="145"/>
      <point x="463" y="138"/>
      <point x="448" y="138" type="curve" smooth="yes"/>
      <point x="432" y="138"/>
      <point x="427" y="145"/>
    </contour>
    <contour>
      <point x="250" y="432" type="curve" smooth="yes"/>
      <point x="251" y="447"/>
      <point x="257" y="454"/>
      <point x="271" y="454" type="curve" smooth="yes"/>
      <point x="286" y="454"/>
      <point x="293" y="447"/>
      <point x="292" y="432" type="curve" smooth="yes"/>
      <point x="291" y="417"/>
      <point x="285" y="410"/>
      <point x="271" y="410" type="curve" smooth="yes"/>
      <point x="256" y="410"/>
      <point x="249" y="417"/>
    </contour>
    <contour>
      <point x="443" y="234" type="curve" smooth="yes"/>
      <point x="443" y="249"/>
      <point x="451" y="256"/>
      <point x="466" y="256" type="curve" smooth="yes"/>
      <point x="482" y="256"/>
      <point x="488" y="249"/>
      <point x="487" y="234" type="curve" smooth="yes"/>
      <point x="486" y="219"/>
      <point x="480" y="213"/>
      <point x="466" y="213" type="curve" smooth="yes"/>
      <point x="451" y="213"/>
      <point x="443" y="219"/>
    </contour>
    <contour>
      <point x="325" y="418" type="curve" smooth="yes"/>
      <point x="326" y="433"/>
      <point x="334" y="439"/>
      <point x="348" y="439" type="curve" smooth="yes"/>
      <point x="363" y="439"/>
      <point x="369" y="433"/>
      <point x="368" y="418" type="curve" smooth="yes"/>
      <point x="367" y="403"/>
      <point x="361" y="396"/>
      <point x="347" y="396" type="curve" smooth="yes"/>
      <point x="332" y="396"/>
      <point x="324" y="403"/>
    </contour>
    <contour>
      <point x="431" y="309" type="curve" smooth="yes"/>
      <point x="432" y="324"/>
      <point x="439" y="331"/>
      <point x="453" y="331" type="curve" smooth="yes"/>
      <point x="469" y="331"/>
      <point x="476" y="324"/>
      <point x="475" y="309" type="curve" smooth="yes"/>
      <point x="474" y="294"/>
      <point x="466" y="287"/>
      <point x="452" y="287" type="curve" smooth="yes"/>
      <point x="436" y="287"/>
      <point x="430" y="294"/>
    </contour>
    <contour>
      <point x="389" y="375" type="curve" smooth="yes"/>
      <point x="390" y="389"/>
      <point x="396" y="396"/>
      <point x="411" y="396" type="curve" smooth="yes"/>
      <point x="427" y="396"/>
      <point x="434" y="389"/>
      <point x="433" y="375" type="curve" smooth="yes"/>
      <point x="432" y="361"/>
      <point x="425" y="354"/>
      <point x="410" y="354" type="curve" smooth="yes"/>
      <point x="394" y="354"/>
      <point x="388" y="361"/>
    </contour>
  </outline>
</glyph>
<glyph name="uniFB01" format="1">
  <advance width="580"/>
  <unicode hex="FB01"/>
  <outline>
    <contour>
      <point x="237" y="26" type="curve" smooth="yes"/>
      <point x="181" y="26" type="line"/>
      <point x="181" y="431" type="line"/>
      <point x="106" y="441" type="line"/>
      <point x="106" y="78" type="line" smooth="yes"/>
      <point x="106" y="36"/>
      <point x="72" y="26"/>
      <point x="30" y="26" type="curve"/>
      <point x="30" y="0" type="line"/>
      <point x="261" y="0" type="line"/>
      <point x="261" y="22"/>
      <point x="256" y="26"/>
    </contour>
    <contour>
      <point x="485" y="566" type="curve" smooth="yes"/>
      <point x="485" y="604"/>
      <point x="438" y="655"/>
      <point x="326" y="655" type="curve" smooth="yes"/>
      <point x="212" y="655"/>
      <point x="106" y="601"/>
      <point x="106" y="441" type="curve"/>
      <point x="181" y="431" type="line"/>
      <point x="181" y="591"/>
      <point x="230" y="630"/>
      <point x="301" y="630" type="curve" smooth="yes"/>
      <point x="401" y="630"/>
      <point x="366" y="526"/>
      <point x="440" y="526" type="curve" smooth="yes"/>
      <point x="469" y="526"/>
      <point x="485" y="544"/>
    </contour>
    <contour>
      <point x="35" y="399" type="line"/>
      <point x="330" y="399" type="line"/>
      <point x="330" y="425" type="line"/>
      <point x="35" y="425" type="line"/>
    </contour>
    <contour>
      <point x="531" y="26" type="curve" smooth="yes"/>
      <point x="477" y="26" type="line"/>
      <point x="477" y="425" type="line"/>
      <point x="323" y="425" type="line"/>
      <point x="323" y="399" type="line"/>
      <point x="402" y="399" type="line"/>
      <point x="402" y="78" type="line" smooth="yes"/>
      <point x="402" y="36"/>
      <point x="373" y="26"/>
      <point x="328" y="26" type="curve"/>
      <point x="328" y="0" type="line"/>
      <point x="555" y="0" type="line"/>
      <point x="555" y="22"/>
      <point x="550" y="26"/>
    </contour>
  </outline>
</glyph>
<glyph name="uniFB02" format="1">
  <advance width="581"/>
  <unicode hex="FB02"/>
  <outline>
    <contour>
      <point x="556" y="0" type="line"/>
      <point x="556" y="22"/>
      <point x="551" y="26"/>
      <point x="532" y="26" type="curve" smooth="yes"/>
      <point x="477" y="26" type="line"/>
      <point x="477" y="650" type="line"/>
      <point x="324" y="650" type="line"/>
      <point x="402" y="624" type="line"/>
      <point x="402" y="80" type="line" smooth="yes"/>
      <point x="402" y="35"/>
      <point x="384" y="26"/>
      <point x="329" y="26" type="curve"/>
      <point x="329" y="0" type="line"/>
    </contour>
    <contour>
      <point x="261" y="0" type="line"/>
      <point x="261" y="22"/>
      <point x="256" y="26"/>
      <point x="237" y="26" type="curve" smooth="yes"/>
      <point x="181" y="26" type="line"/>
      <point x="181" y="431" type="line"/>
      <point x="106" y="441" type="line"/>
      <point x="106" y="78" type="line" smooth="yes"/>
      <point x="106" y="36"/>
      <point x="72" y="26"/>
      <point x="30" y="26" type="curve"/>
      <point x="30" y="0" type="line"/>
    </contour>
    <contour>
      <point x="291" y="399" type="line"/>
      <point x="291" y="425" type="line"/>
      <point x="35" y="425" type="line"/>
      <point x="35" y="399" type="line"/>
    </contour>
    <contour>
      <point x="293" y="629" type="curve" smooth="yes"/>
      <point x="330" y="629"/>
      <point x="371" y="621"/>
      <point x="407" y="607" type="curve"/>
      <point x="407" y="644" type="line"/>
      <point x="358" y="651"/>
      <point x="320" y="655"/>
      <point x="281" y="655" type="curve" smooth="yes"/>
      <point x="180" y="655"/>
      <point x="106" y="587"/>
      <point x="106" y="441" type="curve"/>
      <point x="181" y="431" type="line"/>
      <point x="181" y="578"/>
      <point x="208" y="629"/>
    </contour>
  </outline>
</glyph>
<glyph name="si_B.halant" format="1">
  <advance width="619"/>
  <outline>
    <contour>
      <point x="101.49" y="76" type="curve" smooth="yes"/>
      <point x="101.49" y="49.54"/>
      <point x="123.54" y="27.4902"/>
      <point x="150" y="27.4902" type="curve" smooth="yes"/>
      <point x="176.46" y="27.4902"/>
      <point x="198.51" y="49.54"/>
      <point x="198.51" y="76" type="curve" smooth="yes"/>
      <point x="198.51" y="102.46"/>
      <point x="176.46" y="124.51"/>
      <point x="150" y="124.51" type="curve" smooth="yes"/>
      <point x="123.54" y="124.51"/>
      <point x="101.49" y="102.46"/>
    </contour>
    <contour>
      <point x="136.75" y="543" type="curve" smooth="yes"/>
      <point x="136.75" y="531"/>
      <point x="160.75" y="526"/>
      <point x="160.75" y="515" type="curve" smooth="yes"/>
      <point x="160.75" y="513"/>
      <point x="159.75" y="510"/>
      <point x="157.75" y="508" type="curve"/>
      <point x="190.75" y="514"/>
      <point x="230.425" y="519"/>
      <point x="276.75" y="519" type="curve" smooth="yes"/>
      <point x="384.75" y="519"/>
      <point x="476.75" y="485"/>
      <point x="524.75" y="422" type="curve"/>
      <point x="491.75" y="537"/>
      <point x="397.75" y="590"/>
      <point x="281.75" y="590" type="curve" smooth="yes"/>
      <point x="209.75" y="590"/>
      <point x="136.75" y="567"/>
    </contour>
    <contour>
      <point x="33" y="187" type="curve" smooth="yes"/>
      <point x="33" y="313.688"/>
      <point x="120.107" y="396"/>
      <point x="247" y="396" type="curve" smooth="yes"/>
      <point x="338.787" y="396"/>
      <point x="423" y="344.764"/>
      <point x="423" y="257" type="curve" smooth="yes"/>
      <point x="423" y="126"/>
      <point x="304" y="167"/>
      <point x="304" y="101" type="curve" smooth="yes"/>
      <point x="304" y="76.3333"/>
      <point x="319.667" y="64"/>
      <point x="351" y="64" type="curve" smooth="yes"/>
      <point x="464.525" y="64"/>
      <point x="533" y="188.894"/>
      <point x="533" y="289" type="curve" smooth="yes"/>
      <point x="533" y="312.15"/>
      <point x="529.993" y="333.701"/>
      <point x="524" y="353.459" type="curve" smooth="yes"/>
      <point x="497.345" y="441.337"/>
      <point x="411.627" y="493.75"/>
      <point x="268.75" y="493.75" type="curve" smooth="yes"/>
      <point x="192.75" y="493.75"/>
      <point x="120.75" y="480"/>
      <point x="39.75" y="442" type="curve"/>
      <point x="39.75" y="473" type="line"/>
      <point x="71.75" y="485"/>
      <point x="123.75" y="499"/>
      <point x="123.75" y="508" type="curve" smooth="yes"/>
      <point x="123.75" y="520"/>
      <point x="95.75" y="524"/>
      <point x="95.75" y="546" type="curve" smooth="yes"/>
      <point x="95.75" y="583"/>
      <point x="160.75" y="629"/>
      <point x="275.75" y="629" type="curve" smooth="yes"/>
      <point x="483.75" y="629"/>
      <point x="554.75" y="490"/>
      <point x="566.75" y="356" type="curve" smooth="yes"/>
      <point x="569.713" y="343.158"/>
      <point x="574.882" y="300.426"/>
      <point x="574.732" y="267.005" type="curve" smooth="yes"/>
      <point x="573.58" y="138.247"/>
      <point x="516.656" y="-2"/>
      <point x="381" y="-2" type="curve" smooth="yes"/>
      <point x="321.202" y="-2"/>
      <point x="273" y="34.5566"/>
      <point x="273" y="94" type="curve" smooth="yes"/>
      <point x="273" y="186"/>
      <point x="388" y="156"/>
      <point x="388" y="237" type="curve" smooth="yes"/>
      <point x="388" y="296"/>
      <point x="308.91" y="320"/>
      <point x="237" y="320" type="curve" smooth="yes"/>
      <point x="146" y="320"/>
      <point x="64" y="267"/>
      <point x="64" y="162" type="curve" smooth="yes"/>
      <point x="64" y="136"/>
      <point x="69" y="106"/>
      <point x="77" y="91" type="curve"/>
      <point x="81" y="126"/>
      <point x="109.438" y="153"/>
      <point x="150" y="153" type="curve" smooth="yes"/>
      <point x="193" y="153"/>
      <point x="229" y="119"/>
      <point x="229" y="77" type="curve" smooth="yes"/>
      <point x="229" y="29"/>
      <point x="190" y="-1"/>
      <point x="150" y="-1" type="curve" smooth="yes"/>
      <point x="68" y="-1"/>
      <point x="33" y="91.123"/>
    </contour>
  </outline>
</glyph>
<glyph name="si_BIi" format="1">
  <advance width="619"/>
  <outline>
    <contour>
      <point x="391" y="555" type="curve" smooth="yes"/>
      <point x="391" y="525"/>
      <point x="419" y="501"/>
      <point x="452" y="501" type="curve" smooth="yes"/>
      <point x="485" y="501"/>
      <point x="512" y="525"/>
      <point x="512" y="555" type="curve" smooth="yes"/>
      <point x="512" y="585"/>
      <point x="485" y="609"/>
      <point x="452" y="609" type="curve" smooth="yes"/>
      <point x="419" y="609"/>
      <point x="391" y="585"/>
    </contour>
    <contour>
      <point x="67" y="562" type="curve" smooth="yes"/>
      <point x="67" y="652"/>
      <point x="198" y="670"/>
      <point x="298" y="670" type="curve" smooth="yes"/>
      <point x="434" y="670"/>
      <point x="544" y="639"/>
      <point x="544" y="558" type="curve" smooth="yes"/>
      <point x="544" y="505"/>
      <point x="496" y="474"/>
      <point x="452" y="474" type="curve" smooth="yes"/>
      <point x="408" y="474"/>
      <point x="360" y="505"/>
      <point x="360" y="558" type="curve" smooth="yes"/>
      <point x="360" y="583"/>
      <point x="373" y="600"/>
      <point x="379" y="608" type="curve"/>
      <point x="372" y="609"/>
      <point x="340" y="611"/>
      <point x="298" y="611" type="curve" smooth="yes"/>
      <point x="222" y="611"/>
      <point x="109" y="606"/>
      <point x="109" y="554" type="curve" smooth="yes"/>
      <point x="109" y="508"/>
      <point x="174" y="508"/>
      <point x="276" y="504" type="curve" smooth="yes"/>
      <point x="341" y="501"/>
      <point x="435" y="499"/>
      <point x="490" y="459" type="curve" smooth="yes"/>
      <point x="539" y="423"/>
      <point x="575" y="359"/>
      <point x="575" y="274" type="curve"/>
      <point x="575" y="274"/>
      <point x="544" y="281"/>
      <point x="536" y="296" type="curve"/>
      <point x="536" y="339"/>
      <point x="525" y="384"/>
      <point x="497" y="414" type="curve" smooth="yes"/>
      <point x="444" y="472"/>
      <point x="378" y="472"/>
      <point x="277" y="478" type="curve" smooth="yes"/>
      <point x="188" y="483"/>
      <point x="67" y="476"/>
    </contour>
    <contour>
      <point x="101" y="76" type="curve" smooth="yes"/>
      <point x="101" y="50"/>
      <point x="124" y="27"/>
      <point x="150" y="27" type="curve" smooth="yes"/>
      <point x="176" y="27"/>
      <point x="199" y="50"/>
      <point x="199" y="76" type="curve" smooth="yes"/>
      <point x="199" y="102"/>
      <point x="176" y="125"/>
      <point x="150" y="125" type="curve" smooth="yes"/>
      <point x="124" y="125"/>
      <point x="101" y="102"/>
    </contour>
    <contour>
      <point x="33" y="187" type="curve" smooth="yes"/>
      <point x="33" y="314"/>
      <point x="120" y="396"/>
      <point x="247" y="396" type="curve" smooth="yes"/>
      <point x="339" y="396"/>
      <point x="423" y="345"/>
      <point x="423" y="257" type="curve" smooth="yes"/>
      <point x="423" y="126"/>
      <point x="304" y="167"/>
      <point x="304" y="101" type="curve" smooth="yes"/>
      <point x="304" y="76"/>
      <point x="320" y="64"/>
      <point x="351" y="64" type="curve" smooth="yes"/>
      <point x="462" y="64"/>
      <point x="536" y="190"/>
      <point x="536" y="301" type="curve"/>
      <point x="554" y="293"/>
      <point x="560" y="282"/>
      <point x="575" y="278" type="curve"/>
      <point x="575" y="140"/>
      <point x="518" y="-2"/>
      <point x="381" y="-2" type="curve" smooth="yes"/>
      <point x="321" y="-2"/>
      <point x="273" y="35"/>
      <point x="273" y="94" type="curve" smooth="yes"/>
      <point x="273" y="186"/>
      <point x="388" y="156"/>
      <point x="388" y="237" type="curve" smooth="yes"/>
      <point x="388" y="296"/>
      <point x="309" y="320"/>
      <point x="237" y="320" type="curve" smooth="yes"/>
      <point x="146" y="320"/>
      <point x="64" y="267"/>
      <point x="64" y="162" type="curve" smooth="yes"/>
      <point x="64" y="136"/>
      <point x="69" y="106"/>
      <point x="77" y="91" type="curve"/>
      <point x="81" y="126"/>
      <point x="109" y="153"/>
      <point x="150" y="153" type="curve" smooth="yes"/>
      <point x="193" y="153"/>
      <point x="229" y="119"/>
      <point x="229" y="77" type="curve" smooth="yes"/>
      <point x="229" y="29"/>
      <point x="190" y="-1"/>
      <point x="150" y="-1" type="curve" smooth="yes"/>
      <point x="68" y="-1"/>
      <point x="33" y="91"/>
    </contour>
  </outline>
</glyph>
<glyph name="si_BRIi" format="1">
  <advance width="619"/>
  <outline>
    <contour>
      <point x="58.1396" y="-44" type="curve"/>
      <point x="86.8301" y="-44" type="line"/>
      <point x="121.103" y="-119.333"/>
      <point x="185.857" y="-157"/>
      <point x="288.03" y="-157" type="curve" smooth="yes"/>
      <point x="426.74" y="-157"/>
      <point x="537.95" y="-87.1421"/>
      <point x="537.95" y="50" type="curve" smooth="yes"/>
      <point x="537.95" y="71"/>
      <point x="533.1" y="93"/>
      <point x="526.31" y="102" type="curve"/>
      <point x="542.17" y="133" type="line"/>
      <point x="559.63" y="106.333"/>
      <point x="568.36" y="74.667"/>
      <point x="568.36" y="38" type="curve" smooth="yes"/>
      <point x="568.36" y="-123.729"/>
      <point x="443.23" y="-219"/>
      <point x="303.55" y="-219" type="curve" smooth="yes"/>
      <point x="174.54" y="-219"/>
      <point x="94.3525" y="-153.333"/>
    </contour>
    <component base="si_BIi"/>
  </outline>
</glyph>
<glyph name="si_BU" format="1">
  <advance width="619"/>
  <outline>
    <contour>
      <point x="49" y="-142" type="curve" smooth="yes"/>
      <point x="49" y="-90"/>
      <point x="96" y="-50"/>
      <point x="151" y="-50" type="curve" smooth="yes"/>
      <point x="193" y="-50"/>
      <point x="230" y="-74"/>
      <point x="245" y="-110" type="curve"/>
      <point x="215" y="-122" type="line"/>
      <point x="208" y="-102"/>
      <point x="184" y="-80"/>
      <point x="151" y="-80" type="curve" smooth="yes"/>
      <point x="114" y="-80"/>
      <point x="83" y="-106"/>
      <point x="83" y="-142" type="curve" smooth="yes"/>
      <point x="83" y="-171"/>
      <point x="106" y="-199"/>
      <point x="172" y="-199" type="curve" smooth="yes"/>
      <point x="532" y="-199" type="line"/>
      <point x="532" y="128" type="line"/>
      <point x="566" y="219" type="line"/>
      <point x="566" y="-235" type="line"/>
      <point x="155" y="-235" type="line" smooth="yes"/>
      <point x="86" y="-235"/>
      <point x="49" y="-186"/>
    </contour>
    <component base="uni0DB6"/>
  </outline>
</glyph>
<glyph name="si_BUu" format="1">
  <advance width="619"/>
  <outline>
    <contour>
      <point x="49.25" y="-138" type="curve" smooth="yes"/>
      <point x="49.25" y="-80"/>
      <point x="98.25" y="-40"/>
      <point x="151.25" y="-40" type="curve" smooth="yes"/>
      <point x="193.25" y="-40"/>
      <point x="225.583" y="-55"/>
      <point x="248.25" y="-91" type="curve"/>
      <point x="218.25" y="-102" type="line"/>
      <point x="206.25" y="-83"/>
      <point x="185.25" y="-68"/>
      <point x="156.25" y="-68" type="curve" smooth="yes"/>
      <point x="117.25" y="-68"/>
      <point x="85.25" y="-92"/>
      <point x="85.25" y="-129" type="curve" smooth="yes"/>
      <point x="85.25" y="-166.366"/>
      <point x="116.25" y="-191"/>
      <point x="159.25" y="-191" type="curve" smooth="yes"/>
      <point x="243.25" y="-191"/>
      <point x="318.25" y="-117"/>
      <point x="413.25" y="-117" type="curve" smooth="yes"/>
      <point x="456.25" y="-117"/>
      <point x="505.25" y="-136"/>
      <point x="532.25" y="-168" type="curve"/>
      <point x="532.25" y="152" type="line"/>
      <point x="565.25" y="212" type="line"/>
      <point x="565.25" y="-231" type="line"/>
      <point x="542.25" y="-231" type="line"/>
      <point x="527.25" y="-195"/>
      <point x="484.25" y="-144"/>
      <point x="416.25" y="-144" type="curve" smooth="yes"/>
      <point x="325.25" y="-144"/>
      <point x="258.25" y="-237"/>
      <point x="160.25" y="-237" type="curve" smooth="yes"/>
      <point x="105.25" y="-237"/>
      <point x="49.25" y="-206"/>
    </contour>
    <component base="si_Ba"/>
  </outline>
</glyph>
<glyph name="si_Ba.touch" format="1">
  <advance width="619"/>
  <outline>
    <contour>
      <point x="575" y="0" type="move" name="cursive"/>
    </contour>
    <component base="si_Ba"/>
  </outline>
</glyph>
<glyph name="si_Bh.halant" format="1">
  <advance width="670"/>
  <outline>
    <contour>
      <point x="468" y="387" type="line"/>
      <point x="468" y="681" type="line"/>
      <point x="522" y="639"/>
      <point x="618" y="634"/>
      <point x="618" y="542" type="curve" smooth="yes"/>
      <point x="618" y="498"/>
      <point x="583.191" y="468"/>
      <point x="540" y="468" type="curve" smooth="yes"/>
      <point x="525.333" y="468"/>
      <point x="510.333" y="471.333"/>
      <point x="495" y="478" type="curve"/>
      <point x="495" y="370" type="line"/>
    </contour>
    <contour>
      <point x="495" y="503" type="line"/>
      <point x="503.667" y="498.333"/>
      <point x="514.667" y="496"/>
      <point x="528" y="496" type="curve" smooth="yes"/>
      <point x="566" y="496"/>
      <point x="581" y="521"/>
      <point x="581" y="545" type="curve" smooth="yes"/>
      <point x="581" y="587"/>
      <point x="542" y="607"/>
      <point x="495" y="638" type="curve"/>
    </contour>
    <component base="si_Bha"/>
  </outline>
</glyph>
<glyph name="si_BhI" format="1">
  <advance width="670"/>
  <outline>
    <contour>
      <point x="178.25" y="537" type="curve" smooth="yes"/>
      <point x="178.25" y="628"/>
      <point x="277.234" y="667"/>
      <point x="379.25" y="667" type="curve" smooth="yes"/>
      <point x="484.595" y="667"/>
      <point x="587.25" y="618"/>
      <point x="587.25" y="523" type="curve" smooth="yes"/>
      <point x="587.25" y="461"/>
      <point x="548.25" y="415"/>
      <point x="467.25" y="409" type="curve"/>
      <point x="449.25" y="431" type="line"/>
      <point x="451.943" y="430.867"/>
      <point x="454.61" y="430.806"/>
      <point x="457.25" y="430.806" type="curve" smooth="yes"/>
      <point x="515.25" y="430.806"/>
      <point x="558.25" y="462.296"/>
      <point x="558.25" y="512" type="curve" smooth="yes"/>
      <point x="558.25" y="576.843"/>
      <point x="458.924" y="598"/>
      <point x="379.25" y="598" type="curve" smooth="yes"/>
      <point x="297.777" y="598"/>
      <point x="219.25" y="568"/>
      <point x="219.25" y="516" type="curve" smooth="yes"/>
      <point x="219.25" y="455.697"/>
      <point x="353.25" y="431.5"/>
      <point x="439.25" y="431.492" type="curve" smooth="yes"/>
      <point x="440.256" y="431.492"/>
      <point x="440.256" y="431.494"/>
      <point x="441.25" y="431.5" type="curve"/>
      <point x="425.25" y="410.25" type="line"/>
      <point x="265.25" y="413.583"/>
      <point x="178.25" y="462"/>
    </contour>
    <component base="si_Bha"/>
  </outline>
</glyph>
<glyph name="si_BhRI" format="1">
  <advance width="670"/>
  <outline>
    <contour>
      <point x="178.25" y="537" type="curve" smooth="yes"/>
      <point x="178.25" y="628"/>
      <point x="277.234" y="667"/>
      <point x="379.25" y="667" type="curve" smooth="yes"/>
      <point x="484.595" y="667"/>
      <point x="587.25" y="618"/>
      <point x="587.25" y="523" type="curve" smooth="yes"/>
      <point x="587.25" y="461"/>
      <point x="548.25" y="413.75"/>
      <point x="467.25" y="407.75" type="curve"/>
      <point x="449.25" y="431" type="line"/>
      <point x="451.943" y="430.867"/>
      <point x="454.61" y="430.806"/>
      <point x="457.25" y="430.806" type="curve" smooth="yes"/>
      <point x="515.25" y="430.806"/>
      <point x="558.25" y="462.296"/>
      <point x="558.25" y="512" type="curve" smooth="yes"/>
      <point x="558.25" y="576.843"/>
      <point x="458.924" y="598"/>
      <point x="379.25" y="598" type="curve" smooth="yes"/>
      <point x="297.777" y="598"/>
      <point x="219.25" y="568"/>
      <point x="219.25" y="516" type="curve" smooth="yes"/>
      <point x="219.25" y="455.697"/>
      <point x="353.25" y="431.5"/>
      <point x="439.25" y="431.492" type="curve" smooth="yes"/>
      <point x="440.256" y="431.492"/>
      <point x="440.256" y="431.494"/>
      <point x="441.25" y="431.5" type="curve"/>
      <point x="425.25" y="409.5" type="line"/>
      <point x="265.25" y="412.833"/>
      <point x="178.25" y="462"/>
    </contour>
    <contour>
      <point x="75.75" y="-44" type="curve"/>
      <point x="102.75" y="-44" type="line"/>
      <point x="138.083" y="-119.333"/>
      <point x="207.417" y="-157"/>
      <point x="312.75" y="-157" type="curve" smooth="yes"/>
      <point x="455.75" y="-157"/>
      <point x="573.75" y="-90"/>
      <point x="573.75" y="50" type="curve" smooth="yes"/>
      <point x="573.75" y="71"/>
      <point x="568.75" y="93"/>
      <point x="561.75" y="102" type="curve"/>
      <point x="574.75" y="133" type="line"/>
      <point x="592.75" y="106.333"/>
      <point x="601.75" y="74.667"/>
      <point x="601.75" y="38" type="curve" smooth="yes"/>
      <point x="601.75" y="-123.729"/>
      <point x="472.75" y="-219"/>
      <point x="328.75" y="-219" type="curve" smooth="yes"/>
      <point x="195.75" y="-219"/>
      <point x="113.083" y="-153.333"/>
    </contour>
    <component base="si_Bha"/>
  </outline>
</glyph>
<glyph name="si_BhRIi" format="1">
  <advance width="670"/>
  <outline>
    <contour>
      <point x="417.801" y="520" type="curve" smooth="yes"/>
      <point x="417.801" y="554.943"/>
      <point x="449.179" y="583.468"/>
      <point x="488.4" y="583.468" type="curve" smooth="yes"/>
      <point x="527.622" y="583.468"/>
      <point x="559" y="554.943"/>
      <point x="559" y="520" type="curve" smooth="yes"/>
      <point x="559" y="485.057"/>
      <point x="527.622" y="456.532"/>
      <point x="488.4" y="456.532" type="curve" smooth="yes"/>
      <point x="449.179" y="456.532"/>
      <point x="417.801" y="485.057"/>
    </contour>
    <contour>
      <point x="178.4" y="537" type="curve" smooth="yes"/>
      <point x="178.4" y="462"/>
      <point x="265.4" y="410.833"/>
      <point x="425.4" y="407.5" type="curve"/>
      <point x="441.4" y="431.5" type="line"/>
      <point x="440.406" y="431.494"/>
      <point x="440.406" y="431.492"/>
      <point x="439.4" y="431.492" type="curve" smooth="yes"/>
      <point x="353.4" y="431.5"/>
      <point x="219.4" y="455.697"/>
      <point x="219.4" y="516" type="curve" smooth="yes"/>
      <point x="219.4" y="568"/>
      <point x="297.928" y="598"/>
      <point x="379.4" y="598" type="curve" smooth="yes"/>
      <point x="403.04" y="598"/>
      <point x="417.4" y="597"/>
      <point x="439.4" y="593.824" type="curve"/>
      <point x="423.4" y="591"/>
      <point x="389.4" y="564.604"/>
      <point x="389.4" y="519" type="curve" smooth="yes"/>
      <point x="389.4" y="464"/>
      <point x="442.4" y="431"/>
      <point x="486.4" y="431" type="curve" smooth="yes"/>
      <point x="529.4" y="431"/>
      <point x="587.4" y="456"/>
      <point x="587.4" y="525" type="curve" smooth="yes"/>
      <point x="587.4" y="618"/>
      <point x="484.745" y="667"/>
      <point x="379.4" y="667" type="curve" smooth="yes"/>
      <point x="277.385" y="667"/>
      <point x="178.4" y="628"/>
    </contour>
    <contour>
      <point x="75.75" y="-44" type="curve"/>
      <point x="102.75" y="-44" type="line"/>
      <point x="138.083" y="-119.333"/>
      <point x="207.417" y="-157"/>
      <point x="312.75" y="-157" type="curve" smooth="yes"/>
      <point x="455.75" y="-157"/>
      <point x="573.75" y="-90"/>
      <point x="573.75" y="50" type="curve" smooth="yes"/>
      <point x="573.75" y="71"/>
      <point x="568.75" y="93"/>
      <point x="561.75" y="102" type="curve"/>
      <point x="574.75" y="133" type="line"/>
      <point x="592.75" y="106.333"/>
      <point x="601.75" y="74.667"/>
      <point x="601.75" y="38" type="curve" smooth="yes"/>
      <point x="601.75" y="-123.729"/>
      <point x="472.75" y="-219"/>
      <point x="328.75" y="-219" type="curve" smooth="yes"/>
      <point x="195.75" y="-219"/>
      <point x="113.083" y="-153.333"/>
    </contour>
    <component base="uni0DB7"/>
  </outline>
</glyph>
<glyph name="si_BhRa" format="1">
  <advance width="670"/>
  <outline>
    <contour>
      <point x="75.75" y="-44" type="curve"/>
      <point x="102.75" y="-44" type="line"/>
      <point x="138.083" y="-119.333"/>
      <point x="207.417" y="-157"/>
      <point x="312.75" y="-157" type="curve" smooth="yes"/>
      <point x="455.75" y="-157"/>
      <point x="573.75" y="-90"/>
      <point x="573.75" y="50" type="curve" smooth="yes"/>
      <point x="573.75" y="71"/>
      <point x="568.75" y="93"/>
      <point x="561.75" y="102" type="curve"/>
      <point x="574.75" y="133" type="line"/>
      <point x="592.75" y="106.333"/>
      <point x="601.75" y="74.667"/>
      <point x="601.75" y="38" type="curve" smooth="yes"/>
      <point x="601.75" y="-123.729"/>
      <point x="472.75" y="-219"/>
      <point x="328.75" y="-219" type="curve" smooth="yes"/>
      <point x="195.75" y="-219"/>
      <point x="113.083" y="-153.333"/>
    </contour>
    <component base="si_Bha"/>
  </outline>
</glyph>
<glyph name="si_BhU" format="1">
  <advance width="670"/>
  <outline>
    <contour>
      <point x="6" y="271" type="curve"/>
      <point x="6" y="303" type="line"/>
      <point x="212" y="303" type="line"/>
      <point x="171" y="278" type="line"/>
      <point x="140" y="278" type="line" smooth="yes"/>
      <point x="69" y="277"/>
      <point x="22" y="273.667"/>
    </contour>
    <contour>
      <point x="49.0234" y="364" type="curve" smooth="yes"/>
      <point x="49.0234" y="394.208"/>
      <point x="77.7021" y="432.033"/>
      <point x="134.455" y="432.033" type="curve" smooth="yes"/>
      <point x="213.35" y="432.033"/>
      <point x="253.805" y="360.444"/>
      <point x="255" y="278" type="curve"/>
      <point x="243" y="280"/>
      <point x="233" y="280.021"/>
      <point x="229" y="280.021" type="curve" smooth="yes"/>
      <point x="163" y="280.021"/>
      <point x="85.75" y="245.325"/>
      <point x="85.75" y="175.359" type="curve" smooth="yes"/>
      <point x="85.75" y="105.729"/>
      <point x="149.657" y="72"/>
      <point x="224" y="72" type="curve" smooth="yes"/>
      <point x="290.437" y="72"/>
      <point x="346.111" y="100.488"/>
      <point x="346.111" y="164.323" type="curve" smooth="yes"/>
      <point x="346.111" y="194.87"/>
      <point x="331" y="212.412"/>
      <point x="311" y="212.412" type="curve" smooth="yes"/>
      <point x="297.518" y="212.412"/>
      <point x="283.754" y="203.011"/>
      <point x="277" y="182" type="curve"/>
      <point x="255" y="192" type="line"/>
      <point x="264" y="317"/>
      <point x="345.087" y="432.01"/>
      <point x="446.302" y="432.01" type="curve" smooth="yes"/>
      <point x="558.174" y="432.01"/>
      <point x="621.019" y="328.65"/>
      <point x="621.019" y="210.962" type="curve" smooth="yes"/>
      <point x="621.019" y="96.8028"/>
      <point x="540.75" y="0"/>
      <point x="460.75" y="0" type="curve" smooth="yes"/>
      <point x="450.75" y="0"/>
      <point x="428.75" y="-2"/>
      <point x="414.75" y="-8" type="curve"/>
      <point x="404.75" y="18" type="line"/>
      <point x="423.75" y="26"/>
      <point x="441.75" y="27"/>
      <point x="449.75" y="27" type="curve" smooth="yes"/>
      <point x="512.75" y="27"/>
      <point x="573.147" y="98.605"/>
      <point x="573.147" y="192.821" type="curve" smooth="yes"/>
      <point x="573.147" y="288.169"/>
      <point x="520.794" y="362"/>
      <point x="430" y="362" type="curve" smooth="yes"/>
      <point x="356.667" y="362"/>
      <point x="309" y="317.667"/>
      <point x="287" y="229" type="curve"/>
      <point x="296.835" y="234.532"/>
      <point x="306.634" y="237.17"/>
      <point x="316" y="237.17" type="curve" smooth="yes"/>
      <point x="354" y="237.17"/>
      <point x="382.163" y="199.14"/>
      <point x="382.163" y="145.35" type="curve" smooth="yes"/>
      <point x="382.163" y="52.9932"/>
      <point x="311.501" y="-0.762695"/>
      <point x="217.033" y="-0.762695" type="curve" smooth="yes"/>
      <point x="119.482" y="-0.762695"/>
      <point x="48.9551" y="61.0615"/>
      <point x="48.9551" y="155.113" type="curve" smooth="yes"/>
      <point x="48.9551" y="253"/>
      <point x="148" y="303.353"/>
      <point x="218" y="303.353" type="curve" smooth="yes"/>
      <point x="221.958" y="303.353"/>
      <point x="217.959" y="303.224"/>
      <point x="222" y="303" type="curve"/>
      <point x="222" y="345.316"/>
      <point x="198" y="383.056"/>
      <point x="160.457" y="383.056" type="curve" smooth="yes"/>
      <point x="139.505" y="383.056"/>
      <point x="127.798" y="370.856"/>
      <point x="122" y="355.692" type="curve" smooth="yes"/>
      <point x="116" y="340"/>
      <point x="102.673" y="327.24"/>
      <point x="81.8027" y="327.24" type="curve" smooth="yes"/>
      <point x="62" y="327.24"/>
      <point x="49.0234" y="341"/>
    </contour>
    <contour>
      <point x="340.75" y="-80" type="curve" smooth="yes"/>
      <point x="340.75" y="-30"/>
      <point x="370.75" y="9"/>
      <point x="413.75" y="21" type="curve"/>
      <point x="419.75" y="-6" type="line"/>
      <point x="397.75" y="-14"/>
      <point x="378.75" y="-34"/>
      <point x="378.75" y="-63" type="curve" smooth="yes"/>
      <point x="378.75" y="-109.283"/>
      <point x="428.798" y="-132"/>
      <point x="480.25" y="-132" type="curve" smooth="yes"/>
      <point x="541.25" y="-132"/>
      <point x="588.442" y="-93.7344"/>
      <point x="588.442" y="-45" type="curve" smooth="yes"/>
      <point x="588.442" y="-42.0391"/>
      <point x="588.169" y="-39.0381"/>
      <point x="587.75" y="-36" type="curve"/>
      <point x="617.75" y="-36" type="line"/>
      <point x="620.104" y="-45.416"/>
      <point x="620.185" y="-60.29"/>
      <point x="620.185" y="-69.5" type="curve" smooth="yes"/>
      <point x="620.185" y="-122.146"/>
      <point x="576.451" y="-191.5"/>
      <point x="475.75" y="-191.5" type="curve" smooth="yes"/>
      <point x="409.111" y="-191.5"/>
      <point x="340.75" y="-149.233"/>
    </contour>
  </outline>
</glyph>
<glyph name="si_Bha.reph" format="1">
  <advance width="670"/>
  <outline>
    <contour>
      <point x="296.086" y="511" type="curve" smooth="yes"/>
      <point x="296.086" y="490.446"/>
      <point x="314.684" y="473.807"/>
      <point x="337" y="473.807" type="curve" smooth="yes"/>
      <point x="359.316" y="473.807"/>
      <point x="377.914" y="490.446"/>
      <point x="377.914" y="511" type="curve" smooth="yes"/>
      <point x="377.914" y="531.554"/>
      <point x="359.316" y="548.193"/>
      <point x="337" y="548.193" type="curve" smooth="yes"/>
      <point x="314.684" y="548.193"/>
      <point x="296.086" y="531.554"/>
    </contour>
    <contour>
      <point x="194" y="530" type="curve" smooth="yes"/>
      <point x="194" y="594"/>
      <point x="252.12" y="631"/>
      <point x="334" y="631" type="curve" smooth="yes"/>
      <point x="411" y="631"/>
      <point x="475" y="588"/>
      <point x="475" y="517" type="curve" smooth="yes"/>
      <point x="475" y="493"/>
      <point x="466.667" y="471.333"/>
      <point x="450" y="452" type="curve"/>
      <point x="416.25" y="452" type="line"/>
      <point x="429.42" y="464.387"/>
      <point x="444.75" y="488.734"/>
      <point x="444.75" y="516" type="curve" smooth="yes"/>
      <point x="444.75" y="573.241"/>
      <point x="394" y="603.75"/>
      <point x="333" y="603.75" type="curve" smooth="yes"/>
      <point x="280.222" y="603.75"/>
      <point x="225.25" y="582.556"/>
      <point x="225.25" y="530" type="curve" smooth="yes"/>
      <point x="225.25" y="490.925"/>
      <point x="266.304" y="472.216"/>
      <point x="289.5" y="470.25" type="curve"/>
      <point x="281.5" y="476.25"/>
      <point x="269" y="491"/>
      <point x="269" y="512" type="curve" smooth="yes"/>
      <point x="269" y="547"/>
      <point x="300.354" y="572"/>
      <point x="336" y="572" type="curve" smooth="yes"/>
      <point x="377" y="572"/>
      <point x="405" y="545"/>
      <point x="405" y="510" type="curve" smooth="yes"/>
      <point x="405" y="471"/>
      <point x="370" y="445"/>
      <point x="312" y="445" type="curve" smooth="yes"/>
      <point x="253" y="445"/>
      <point x="194" y="474"/>
    </contour>
    <component base="uni0DB7"/>
  </outline>
</glyph>
<glyph name="si_CU" format="1">
  <advance width="597"/>
  <outline>
    <contour>
      <point x="70" y="-142" type="curve" smooth="yes"/>
      <point x="70" y="-90"/>
      <point x="117" y="-50"/>
      <point x="172" y="-50" type="curve" smooth="yes"/>
      <point x="214" y="-50"/>
      <point x="251" y="-74"/>
      <point x="266" y="-110" type="curve"/>
      <point x="236" y="-122" type="line"/>
      <point x="229" y="-102"/>
      <point x="205" y="-80"/>
      <point x="172" y="-80" type="curve" smooth="yes"/>
      <point x="135" y="-80"/>
      <point x="104" y="-106"/>
      <point x="104" y="-142" type="curve" smooth="yes"/>
      <point x="104" y="-171"/>
      <point x="127" y="-199"/>
      <point x="193" y="-199" type="curve" smooth="yes"/>
      <point x="533" y="-199" type="line"/>
      <point x="533" y="128" type="line"/>
      <point x="566" y="219" type="line"/>
      <point x="566" y="-235" type="line"/>
      <point x="176" y="-235" type="line" smooth="yes"/>
      <point x="107" y="-235"/>
      <point x="70" y="-186"/>
    </contour>
    <component base="uni0DA0"/>
  </outline>
</glyph>
<glyph name="si_CUu" format="1">
  <advance width="597"/>
  <outline>
    <contour>
      <point x="70.5" y="-138" type="curve" smooth="yes"/>
      <point x="70.5" y="-80"/>
      <point x="119.5" y="-40"/>
      <point x="172.5" y="-40" type="curve" smooth="yes"/>
      <point x="214.5" y="-40"/>
      <point x="246.833" y="-55"/>
      <point x="269.5" y="-91" type="curve"/>
      <point x="239.5" y="-102" type="line"/>
      <point x="227.5" y="-83"/>
      <point x="206.5" y="-68"/>
      <point x="177.5" y="-68" type="curve" smooth="yes"/>
      <point x="138.5" y="-68"/>
      <point x="106.5" y="-92"/>
      <point x="106.5" y="-129" type="curve" smooth="yes"/>
      <point x="106.5" y="-166.366"/>
      <point x="137.5" y="-191"/>
      <point x="180.5" y="-191" type="curve" smooth="yes"/>
      <point x="264.5" y="-191"/>
      <point x="328" y="-117"/>
      <point x="423" y="-117" type="curve" smooth="yes"/>
      <point x="470.594" y="-117"/>
      <point x="506" y="-136"/>
      <point x="533" y="-168" type="curve"/>
      <point x="533" y="152" type="line"/>
      <point x="566" y="212" type="line"/>
      <point x="566" y="-231" type="line"/>
      <point x="543" y="-231" type="line"/>
      <point x="528" y="-195"/>
      <point x="490.875" y="-144"/>
      <point x="426" y="-144" type="curve" smooth="yes"/>
      <point x="335" y="-144"/>
      <point x="279.5" y="-237"/>
      <point x="181.5" y="-237" type="curve" smooth="yes"/>
      <point x="126.5" y="-237"/>
      <point x="70.5" y="-206"/>
    </contour>
    <component base="si_Ca"/>
  </outline>
</glyph>
<glyph name="si_Ca.reph" format="1">
  <advance width="597"/>
  <outline>
    <contour>
      <point x="273.586" y="515.5" type="curve" smooth="yes"/>
      <point x="273.586" y="494.946"/>
      <point x="292.184" y="478.307"/>
      <point x="314.5" y="478.307" type="curve" smooth="yes"/>
      <point x="336.816" y="478.307"/>
      <point x="355.414" y="494.946"/>
      <point x="355.414" y="515.5" type="curve" smooth="yes"/>
      <point x="355.414" y="536.054"/>
      <point x="336.816" y="552.693"/>
      <point x="314.5" y="552.693" type="curve" smooth="yes"/>
      <point x="292.184" y="552.693"/>
      <point x="273.586" y="536.054"/>
    </contour>
    <contour>
      <point x="171.5" y="534.5" type="curve" smooth="yes"/>
      <point x="171.5" y="598.5"/>
      <point x="229.62" y="635.5"/>
      <point x="311.5" y="635.5" type="curve" smooth="yes"/>
      <point x="388.5" y="635.5"/>
      <point x="452.5" y="592.5"/>
      <point x="452.5" y="521.5" type="curve" smooth="yes"/>
      <point x="452.5" y="497.5"/>
      <point x="444.167" y="475.833"/>
      <point x="427.5" y="456.5" type="curve"/>
      <point x="393.75" y="456.5" type="line"/>
      <point x="406.92" y="468.887"/>
      <point x="422.25" y="493.234"/>
      <point x="422.25" y="520.5" type="curve" smooth="yes"/>
      <point x="422.25" y="577.741"/>
      <point x="371.5" y="608.25"/>
      <point x="310.5" y="608.25" type="curve" smooth="yes"/>
      <point x="257.722" y="608.25"/>
      <point x="202.75" y="587.056"/>
      <point x="202.75" y="534.5" type="curve" smooth="yes"/>
      <point x="202.75" y="495.425"/>
      <point x="243.804" y="476.716"/>
      <point x="267" y="474.75" type="curve"/>
      <point x="259" y="480.75"/>
      <point x="246.5" y="495.5"/>
      <point x="246.5" y="516.5" type="curve" smooth="yes"/>
      <point x="246.5" y="551.5"/>
      <point x="277.854" y="576.5"/>
      <point x="313.5" y="576.5" type="curve" smooth="yes"/>
      <point x="354.5" y="576.5"/>
      <point x="382.5" y="549.5"/>
      <point x="382.5" y="514.5" type="curve" smooth="yes"/>
      <point x="382.5" y="475.5"/>
      <point x="347.5" y="449.5"/>
      <point x="289.5" y="449.5" type="curve" smooth="yes"/>
      <point x="230.5" y="449.5"/>
      <point x="171.5" y="478.5"/>
    </contour>
    <component base="si_Ca"/>
  </outline>
</glyph>
<glyph name="si_Ch.halant" format="1">
  <advance width="598"/>
  <outline>
    <contour>
      <point x="289" y="356" type="line"/>
      <point x="289" y="756" type="line"/>
      <point x="346" y="709"/>
      <point x="436" y="704"/>
      <point x="436" y="626" type="curve" smooth="yes"/>
      <point x="436" y="580"/>
      <point x="402" y="550"/>
      <point x="359" y="550" type="curve" smooth="yes"/>
      <point x="345" y="550"/>
      <point x="330" y="551"/>
      <point x="315" y="556" type="curve"/>
      <point x="315" y="400" type="line"/>
    </contour>
    <contour>
      <point x="315" y="581" type="line"/>
      <point x="325" y="577"/>
      <point x="337" y="575"/>
      <point x="352" y="575" type="curve" smooth="yes"/>
      <point x="385" y="575"/>
      <point x="399" y="599"/>
      <point x="399" y="622" type="curve" smooth="yes"/>
      <point x="399" y="672"/>
      <point x="352" y="687"/>
      <point x="315" y="712" type="curve"/>
    </contour>
    <component base="uni0DA1"/>
  </outline>
</glyph>
<glyph name="si_ChI" format="1">
  <advance width="583"/>
  <outline>
    <contour>
      <point x="228" y="479" type="curve" smooth="yes"/>
      <point x="228" y="564"/>
      <point x="296" y="642"/>
      <point x="373" y="642" type="curve" smooth="yes"/>
      <point x="419" y="642"/>
      <point x="450" y="611"/>
      <point x="450" y="569" type="curve" smooth="yes"/>
      <point x="450" y="565"/>
      <point x="449" y="563"/>
      <point x="449" y="559" type="curve"/>
      <point x="420" y="531" type="line"/>
      <point x="424" y="537"/>
      <point x="426" y="551"/>
      <point x="426" y="562" type="curve" smooth="yes"/>
      <point x="426" y="590"/>
      <point x="414" y="607"/>
      <point x="384" y="607" type="curve" smooth="yes"/>
      <point x="328" y="607"/>
      <point x="270" y="537"/>
      <point x="270" y="475" type="curve" smooth="yes"/>
      <point x="270" y="444"/>
      <point x="284" y="419"/>
      <point x="324" y="419" type="curve" smooth="yes"/>
      <point x="338" y="419"/>
      <point x="348" y="421"/>
      <point x="365" y="426" type="curve"/>
      <point x="361" y="415" type="line"/>
      <point x="348" y="407"/>
      <point x="321" y="398"/>
      <point x="319" y="397" type="curve"/>
      <point x="318" y="397"/>
      <point x="316" y="397"/>
      <point x="315" y="397" type="curve" smooth="yes"/>
      <point x="253" y="397"/>
      <point x="228" y="430"/>
    </contour>
    <component base="si_Cha"/>
  </outline>
</glyph>
<glyph name="si_ChIi" format="1">
  <advance width="598"/>
  <outline>
    <contour>
      <point x="337.721" y="579" type="curve" smooth="yes"/>
      <point x="337.721" y="551.832"/>
      <point x="359.332" y="530.221"/>
      <point x="386.5" y="530.221" type="curve" smooth="yes"/>
      <point x="413.668" y="530.221"/>
      <point x="435.279" y="551.832"/>
      <point x="435.279" y="579" type="curve" smooth="yes"/>
      <point x="435.279" y="606.168"/>
      <point x="413.668" y="627.779"/>
      <point x="386.5" y="627.779" type="curve" smooth="yes"/>
      <point x="359.332" y="627.779"/>
      <point x="337.721" y="606.168"/>
    </contour>
    <contour>
      <point x="233" y="489.5" type="curve" smooth="yes"/>
      <point x="233" y="576.568"/>
      <point x="303.261" y="656.5"/>
      <point x="386.75" y="656.5" type="curve" smooth="yes"/>
      <point x="431.64" y="656.5"/>
      <point x="463.955" y="619.452"/>
      <point x="463.955" y="579" type="curve" smooth="yes"/>
      <point x="463.955" y="540.549"/>
      <point x="433.976" y="501.5"/>
      <point x="386.75" y="501.5" type="curve" smooth="yes"/>
      <point x="339.065" y="501.5"/>
      <point x="311.635" y="539.847"/>
      <point x="311.635" y="574.25" type="curve" smooth="yes"/>
      <point x="311.635" y="574.75"/>
      <point x="311.712" y="576"/>
      <point x="311.75" y="576.75" type="curve"/>
      <point x="293.181" y="551.954"/>
      <point x="276.5" y="519.777"/>
      <point x="276.5" y="486" type="curve" smooth="yes"/>
      <point x="276.5" y="454.192"/>
      <point x="290.994" y="429.027"/>
      <point x="332" y="429.026" type="curve" smooth="yes"/>
      <point x="345.842" y="429.026"/>
      <point x="357.154" y="431.185"/>
      <point x="374" y="436" type="curve"/>
      <point x="373.999" y="435.978"/>
      <point x="370.001" y="425.001"/>
      <point x="370" y="425" type="curve"/>
      <point x="357.178" y="416.842"/>
      <point x="329.23" y="407.635"/>
      <point x="327" y="407" type="curve"/>
      <point x="325.947" y="406.999"/>
      <point x="324.051" y="406.952"/>
      <point x="323" y="406.952" type="curve" smooth="yes"/>
      <point x="260.125" y="406.952"/>
      <point x="233" y="439.49"/>
    </contour>
    <component base="si_Cha"/>
  </outline>
</glyph>
<glyph name="si_ChU" format="1">
  <advance width="598"/>
  <outline>
    <contour>
      <point x="38.75" y="-142.5" type="curve" smooth="yes"/>
      <point x="38.75" y="-90.4912"/>
      <point x="85.043" y="-50.5"/>
      <point x="140.25" y="-50.5" type="curve" smooth="yes"/>
      <point x="182.156" y="-50.5"/>
      <point x="219.5" y="-74.1416"/>
      <point x="234.25" y="-110" type="curve"/>
      <point x="204.25" y="-121.5" type="line"/>
      <point x="197.232" y="-101.896"/>
      <point x="173.25" y="-80"/>
      <point x="140.25" y="-80" type="curve" smooth="yes"/>
      <point x="103.546" y="-80"/>
      <point x="72.25" y="-106.714"/>
      <point x="72.25" y="-142.5" type="curve" smooth="yes"/>
      <point x="72.25" y="-171.663"/>
      <point x="95.6338" y="-199"/>
      <point x="161.25" y="-199" type="curve" smooth="yes"/>
      <point x="507.5" y="-199" type="line"/>
      <point x="507.5" y="128" type="line"/>
      <point x="540.5" y="198" type="line"/>
      <point x="540.5" y="-235" type="line"/>
      <point x="144.25" y="-235" type="line" smooth="yes"/>
      <point x="75.0898" y="-235"/>
      <point x="38.75" y="-186.092"/>
    </contour>
    <component base="uni0DA1"/>
  </outline>
</glyph>
<glyph name="si_ChUu" format="1">
  <advance width="598"/>
  <outline>
    <contour>
      <point x="39" y="-138" type="curve" smooth="yes"/>
      <point x="39" y="-80"/>
      <point x="88" y="-40"/>
      <point x="141" y="-40" type="curve" smooth="yes"/>
      <point x="183" y="-40"/>
      <point x="215.333" y="-55"/>
      <point x="238" y="-91" type="curve"/>
      <point x="208" y="-102" type="line"/>
      <point x="196" y="-83"/>
      <point x="175" y="-68"/>
      <point x="146" y="-68" type="curve" smooth="yes"/>
      <point x="107" y="-68"/>
      <point x="75" y="-92"/>
      <point x="75" y="-129" type="curve" smooth="yes"/>
      <point x="75" y="-166.366"/>
      <point x="106" y="-191"/>
      <point x="149" y="-191" type="curve" smooth="yes"/>
      <point x="233" y="-191"/>
      <point x="299.75" y="-117"/>
      <point x="394.75" y="-117" type="curve" smooth="yes"/>
      <point x="442.344" y="-117"/>
      <point x="483.079" y="-137.891"/>
      <point x="507.75" y="-167.5" type="curve"/>
      <point x="507.75" y="140.75" type="line"/>
      <point x="540.75" y="200.75" type="line"/>
      <point x="540.75" y="-231" type="line"/>
      <point x="517.75" y="-231" type="line"/>
      <point x="502.75" y="-195"/>
      <point x="462.625" y="-144"/>
      <point x="397.75" y="-144" type="curve" smooth="yes"/>
      <point x="306.75" y="-144"/>
      <point x="248" y="-237"/>
      <point x="150" y="-237" type="curve" smooth="yes"/>
      <point x="95" y="-237"/>
      <point x="39" y="-206"/>
    </contour>
    <component base="uni0DA1"/>
  </outline>
</glyph>
<glyph name="si_DAa" format="1">
  <advance width="456"/>
  <outline>
    <contour>
      <point x="31" y="169" type="curve" smooth="yes"/>
      <point x="31" y="274"/>
      <point x="104" y="317"/>
      <point x="223" y="317" type="curve" smooth="yes"/>
      <point x="343" y="317" type="line"/>
      <point x="333" y="363"/>
      <point x="304" y="396"/>
      <point x="260" y="396" type="curve" smooth="yes"/>
      <point x="241" y="396"/>
      <point x="225" y="384"/>
      <point x="216" y="366" type="curve" smooth="yes"/>
      <point x="206" y="344"/>
      <point x="190" y="336"/>
      <point x="175" y="336" type="curve" smooth="yes"/>
      <point x="150" y="336"/>
      <point x="137" y="351"/>
      <point x="137" y="372" type="curve" smooth="yes"/>
      <point x="137" y="408"/>
      <point x="177" y="433"/>
      <point x="232" y="433" type="curve" smooth="yes"/>
      <point x="318" y="433"/>
      <point x="361" y="389"/>
      <point x="379" y="294" type="curve"/>
      <point x="242" y="294" type="line" smooth="yes"/>
      <point x="154" y="294"/>
      <point x="108" y="257"/>
      <point x="108" y="173" type="curve" smooth="yes"/>
      <point x="108" y="89"/>
      <point x="173" y="26"/>
      <point x="258" y="26" type="curve" smooth="yes"/>
      <point x="308" y="26"/>
      <point x="350" y="46"/>
      <point x="390" y="92" type="curve"/>
      <point x="412" y="75" type="line"/>
      <point x="392" y="58"/>
      <point x="376" y="41"/>
      <point x="361" y="33" type="curve"/>
      <point x="364" y="34"/>
      <point x="362" y="34"/>
      <point x="366" y="34" type="curve" smooth="yes"/>
      <point x="414" y="34"/>
      <point x="447" y="-18"/>
      <point x="447" y="-87" type="curve" smooth="yes"/>
      <point x="447" y="-175"/>
      <point x="407" y="-212"/>
      <point x="348" y="-212" type="curve" smooth="yes"/>
      <point x="299" y="-212"/>
      <point x="282" y="-187"/>
      <point x="282" y="-166" type="curve"/>
      <point x="310" y="-166" type="line"/>
      <point x="310" y="-176"/>
      <point x="319" y="-187"/>
      <point x="338" y="-187" type="curve" smooth="yes"/>
      <point x="380" y="-187"/>
      <point x="390" y="-148"/>
      <point x="390" y="-87" type="curve" smooth="yes"/>
      <point x="390" y="-42"/>
      <point x="376" y="0"/>
      <point x="345" y="0" type="curve" smooth="yes"/>
      <point x="316" y="0"/>
      <point x="304" y="-29"/>
      <point x="304" y="-45" type="curve"/>
      <point x="277" y="-45" type="line"/>
      <point x="277" y="-29"/>
      <point x="286" y="-6"/>
      <point x="299" y="4" type="curve"/>
      <point x="271" y="-1"/>
      <point x="255" y="-1"/>
      <point x="234" y="-1" type="curve" smooth="yes"/>
      <point x="103" y="-1"/>
      <point x="31" y="69"/>
    </contour>
  </outline>
</glyph>
<glyph name="si_DAa.halant" format="1">
  <advance width="456"/>
  <outline>
    <contour>
      <point x="33.6611" y="-43" type="curve"/>
      <point x="58.5938" y="-43" type="line"/>
      <point x="80.334" y="-111.712"/>
      <point x="126.548" y="-142.25"/>
      <point x="203.336" y="-142.25" type="curve" smooth="yes"/>
      <point x="307.583" y="-142.25"/>
      <point x="382.154" y="-72.0848"/>
      <point x="382.154" y="51" type="curve" smooth="yes"/>
      <point x="382.154" y="72"/>
      <point x="381.689" y="66.0068"/>
      <point x="380.75" y="74" type="curve"/>
      <point x="407" y="78.75" type="line"/>
      <point x="407.004" y="58.4798"/>
      <point x="407.25" y="75.667"/>
      <point x="407.25" y="39" type="curve" smooth="yes"/>
      <point x="407.25" y="-108.6"/>
      <point x="319.976" y="-204.25"/>
      <point x="215" y="-204.25" type="curve" smooth="yes"/>
      <point x="109.809" y="-204.25"/>
      <point x="53.2828" y="-144.604"/>
    </contour>
    <contour>
      <point x="31" y="169" type="curve" smooth="yes"/>
      <point x="31" y="274"/>
      <point x="104" y="317"/>
      <point x="223" y="317" type="curve" smooth="yes"/>
      <point x="343" y="317" type="line"/>
      <point x="333.277" y="363.186"/>
      <point x="304" y="396"/>
      <point x="260" y="396" type="curve" smooth="yes"/>
      <point x="241" y="396"/>
      <point x="225.048" y="383.911"/>
      <point x="216.5" y="366" type="curve" smooth="yes"/>
      <point x="206" y="344"/>
      <point x="189.802" y="336"/>
      <point x="175" y="336" type="curve" smooth="yes"/>
      <point x="150" y="336"/>
      <point x="137" y="351"/>
      <point x="137" y="372" type="curve" smooth="yes"/>
      <point x="137" y="408.283"/>
      <point x="177" y="433"/>
      <point x="232" y="433" type="curve" smooth="yes"/>
      <point x="317.739" y="433"/>
      <point x="360.904" y="389.003"/>
      <point x="379" y="294" type="curve"/>
      <point x="242" y="294" type="line" smooth="yes"/>
      <point x="154" y="294"/>
      <point x="108" y="257"/>
      <point x="108" y="173" type="curve" smooth="yes"/>
      <point x="108" y="89"/>
      <point x="178" y="27"/>
      <point x="261" y="27" type="curve" smooth="yes"/>
      <point x="307.077" y="27"/>
      <point x="351.052" y="50.0427"/>
      <point x="384" y="92" type="curve"/>
      <point x="407" y="78.75" type="line"/>
      <point x="367.4" y="33.3636"/>
      <point x="328.458" y="-1"/>
      <point x="234" y="-1" type="curve" smooth="yes"/>
      <point x="103" y="-1"/>
      <point x="31" y="69"/>
    </contour>
  </outline>
</glyph>
<glyph name="si_DAae" format="1">
  <advance width="738"/>
  <outline>
    <contour>
      <point x="408" y="315" type="line"/>
      <point x="408" y="339" type="line"/>
      <point x="653" y="339" type="line"/>
      <point x="653" y="317" type="line"/>
      <point x="526" y="223" type="line"/>
      <point x="676" y="223" type="line"/>
      <point x="676" y="201" type="line"/>
      <point x="630" y="168"/>
      <point x="563" y="96"/>
      <point x="563" y="13" type="curve" smooth="yes"/>
      <point x="563" y="-74"/>
      <point x="621.188" y="-106"/>
      <point x="710" y="-106" type="curve"/>
      <point x="710" y="-131" type="line"/>
      <point x="684.667" y="-142.333"/>
      <point x="658.333" y="-148"/>
      <point x="633" y="-148" type="curve" smooth="yes"/>
      <point x="542.408" y="-148"/>
      <point x="494" y="-91.2393"/>
      <point x="494" y="-12" type="curve" smooth="yes"/>
      <point x="494" y="78"/>
      <point x="573.631" y="155.42"/>
      <point x="639" y="199" type="curve"/>
      <point x="476" y="199" type="line"/>
      <point x="476" y="218" type="line"/>
      <point x="609" y="315" type="line"/>
    </contour>
    <component base="uni0DAF"/>
  </outline>
</glyph>
<glyph name="si_DAe" format="1">
  <advance width="445"/>
  <outline>
    <contour>
      <point x="30" y="165" type="curve" smooth="yes"/>
      <point x="30" y="268"/>
      <point x="102" y="310"/>
      <point x="218" y="310" type="curve" smooth="yes"/>
      <point x="335" y="310" type="line"/>
      <point x="325" y="355"/>
      <point x="297" y="387"/>
      <point x="254" y="387" type="curve" smooth="yes"/>
      <point x="235" y="387"/>
      <point x="220" y="375"/>
      <point x="211" y="357" type="curve" smooth="yes"/>
      <point x="201" y="336"/>
      <point x="186" y="328"/>
      <point x="171" y="328" type="curve" smooth="yes"/>
      <point x="147" y="328"/>
      <point x="134" y="342"/>
      <point x="134" y="363" type="curve" smooth="yes"/>
      <point x="134" y="398"/>
      <point x="173" y="423"/>
      <point x="227" y="423" type="curve" smooth="yes"/>
      <point x="311" y="423"/>
      <point x="352" y="380"/>
      <point x="370" y="287" type="curve"/>
      <point x="236" y="287" type="line" smooth="yes"/>
      <point x="150" y="287"/>
      <point x="105" y="251"/>
      <point x="105" y="169" type="curve" smooth="yes"/>
      <point x="105" y="87"/>
      <point x="170" y="25"/>
      <point x="253" y="25" type="curve" smooth="yes"/>
      <point x="302" y="25"/>
      <point x="336" y="45"/>
      <point x="375" y="90" type="curve"/>
      <point x="397" y="73" type="line"/>
      <point x="371" y="44"/>
      <point x="361" y="5"/>
      <point x="361" y="-58" type="curve" smooth="yes"/>
      <point x="361" y="-124"/>
      <point x="388" y="-199"/>
      <point x="422" y="-199" type="curve"/>
      <point x="422" y="-223" type="line"/>
      <point x="419" y="-224"/>
      <point x="415" y="-225"/>
      <point x="411" y="-225" type="curve" smooth="yes"/>
      <point x="356" y="-225"/>
      <point x="314" y="-173"/>
      <point x="314" y="-102" type="curve" smooth="yes"/>
      <point x="314" y="-48"/>
      <point x="338" y="6"/>
      <point x="348" y="30" type="curve"/>
      <point x="285" y="-9"/>
      <point x="239" y="-50"/>
      <point x="239" y="-113" type="curve" smooth="yes"/>
      <point x="239" y="-171"/>
      <point x="274" y="-195"/>
      <point x="308" y="-201" type="curve"/>
      <point x="308" y="-223" type="line"/>
      <point x="304" y="-224"/>
      <point x="294" y="-225"/>
      <point x="289" y="-225" type="curve" smooth="yes"/>
      <point x="228" y="-225"/>
      <point x="182" y="-193"/>
      <point x="182" y="-129" type="curve" smooth="yes"/>
      <point x="182" y="-77"/>
      <point x="220" y="-40"/>
      <point x="266" y="1" type="curve"/>
      <point x="253" y="-1"/>
      <point x="239" y="-1"/>
      <point x="233" y="-1" type="curve" smooth="yes"/>
      <point x="98" y="-1"/>
      <point x="30" y="67"/>
    </contour>
  </outline>
</glyph>
<glyph name="si_DDdh.halant" format="1">
  <advance width="729"/>
  <outline>
    <contour>
      <point x="231" y="543" type="curve" smooth="yes"/>
      <point x="231" y="531"/>
      <point x="255" y="526"/>
      <point x="255" y="515" type="curve" smooth="yes"/>
      <point x="255" y="513"/>
      <point x="254" y="510"/>
      <point x="252" y="508" type="curve"/>
      <point x="285" y="514"/>
      <point x="324.675" y="519"/>
      <point x="371" y="519" type="curve" smooth="yes"/>
      <point x="479" y="519"/>
      <point x="564" y="490"/>
      <point x="622" y="422" type="curve"/>
      <point x="589" y="537"/>
      <point x="492" y="590"/>
      <point x="376" y="590" type="curve" smooth="yes"/>
      <point x="304" y="590"/>
      <point x="231" y="567"/>
    </contour>
    <contour>
      <point x="125" y="195" type="curve" smooth="yes"/>
      <point x="125" y="288"/>
      <point x="178.248" y="363.669"/>
      <point x="244" y="387" type="curve" smooth="yes"/>
      <point x="264.667" y="394.333"/>
      <point x="287.667" y="398"/>
      <point x="313" y="398" type="curve"/>
      <point x="313" y="373" type="line" smooth="yes"/>
      <point x="309.651" y="373.289"/>
      <point x="306.316" y="373.437"/>
      <point x="303" y="373.437" type="curve" smooth="yes"/>
      <point x="224" y="373.437"/>
      <point x="159" y="301"/>
      <point x="159" y="212" type="curve" smooth="yes"/>
      <point x="159" y="135.558"/>
      <point x="206.568" y="71"/>
      <point x="280" y="71" type="curve" smooth="yes"/>
      <point x="330.911" y="71"/>
      <point x="382" y="92"/>
      <point x="382" y="156" type="curve" smooth="yes"/>
      <point x="382" y="196" type="line"/>
      <point x="410" y="196" type="line"/>
      <point x="410" y="156" type="line" smooth="yes"/>
      <point x="410" y="92"/>
      <point x="459.83" y="71"/>
      <point x="509" y="71" type="curve" smooth="yes"/>
      <point x="609.206" y="71"/>
      <point x="645.576" y="187.906"/>
      <point x="645.576" y="265.5" type="curve" smooth="yes"/>
      <point x="645.576" y="412.094"/>
      <point x="535" y="493.75"/>
      <point x="374" y="493.75" type="curve" smooth="yes"/>
      <point x="298" y="493.75"/>
      <point x="215" y="477.923"/>
      <point x="134" y="453" type="curve"/>
      <point x="134" y="484" type="line"/>
      <point x="166" y="492.229"/>
      <point x="218" y="501.829"/>
      <point x="218" y="508" type="curve" smooth="yes"/>
      <point x="218" y="520"/>
      <point x="190" y="524"/>
      <point x="190" y="546" type="curve" smooth="yes"/>
      <point x="190" y="583"/>
      <point x="255" y="629"/>
      <point x="370" y="629" type="curve" smooth="yes"/>
      <point x="578" y="629"/>
      <point x="652" y="490"/>
      <point x="664" y="356" type="curve"/>
      <point x="673.166" y="331.008"/>
      <point x="681.5" y="287.347"/>
      <point x="681.5" y="245" type="curve" smooth="yes"/>
      <point x="681.5" y="134.355"/>
      <point x="639.534" y="2.84217e-14"/>
      <point x="514" y="0" type="curve" smooth="yes"/>
      <point x="464.667" y="0"/>
      <point x="425" y="19.6667"/>
      <point x="395" y="59" type="curve"/>
      <point x="364.333" y="20.3333"/>
      <point x="326.672" y="0"/>
      <point x="282" y="0" type="curve" smooth="yes"/>
      <point x="180" y="0"/>
      <point x="125" y="96"/>
    </contour>
    <contour>
      <point x="27" y="211.5" type="curve" smooth="yes"/>
      <point x="27" y="343.2"/>
      <point x="101.731" y="433"/>
      <point x="220.25" y="433" type="curve" smooth="yes"/>
      <point x="246.319" y="433"/>
      <point x="288.876" y="427.134"/>
      <point x="313.25" y="398" type="curve"/>
      <point x="300.255" y="396.265"/>
      <point x="278.707" y="394.113"/>
      <point x="274.75" y="394" type="curve"/>
      <point x="267.182" y="402.054"/>
      <point x="243.838" y="406.75"/>
      <point x="225.5" y="406.75" type="curve" smooth="yes"/>
      <point x="91.6787" y="406.75"/>
      <point x="56" y="295.411"/>
      <point x="56" y="208.5" type="curve" smooth="yes"/>
      <point x="56" y="131.217"/>
      <point x="83" y="75.333"/>
      <point x="135" y="30" type="curve"/>
      <point x="135" y="0" type="line"/>
      <point x="68.5828" y="33.2086"/>
      <point x="27" y="110.57"/>
    </contour>
  </outline>
</glyph>
<glyph name="si_DDhU" format="1">
  <advance width="729"/>
  <outline>
    <contour>
      <point x="143.75" y="-142.5" type="curve" smooth="yes"/>
      <point x="143.75" y="-90.4912"/>
      <point x="190.043" y="-50.5"/>
      <point x="245.25" y="-50.5" type="curve" smooth="yes"/>
      <point x="287.156" y="-50.5"/>
      <point x="324.5" y="-74.1416"/>
      <point x="339.25" y="-110" type="curve"/>
      <point x="309.25" y="-121.5" type="line"/>
      <point x="302.232" y="-101.896"/>
      <point x="278.25" y="-80"/>
      <point x="245.25" y="-80" type="curve" smooth="yes"/>
      <point x="208.546" y="-80"/>
      <point x="177.25" y="-106.714"/>
      <point x="177.25" y="-142.5" type="curve" smooth="yes"/>
      <point x="177.25" y="-171.663"/>
      <point x="200.634" y="-199"/>
      <point x="266.25" y="-199" type="curve" smooth="yes"/>
      <point x="634.25" y="-199" type="line"/>
      <point x="634.25" y="128" type="line"/>
      <point x="667.25" y="219" type="line"/>
      <point x="667.25" y="-235" type="line"/>
      <point x="249.25" y="-235" type="line" smooth="yes"/>
      <point x="180.09" y="-235"/>
      <point x="143.75" y="-186.092"/>
    </contour>
    <component base="si_DDha"/>
  </outline>
</glyph>
<glyph name="si_DDhUu" format="1">
  <advance width="729"/>
  <outline>
    <contour>
      <point x="143.25" y="-138" type="curve" smooth="yes"/>
      <point x="143.25" y="-80"/>
      <point x="192.25" y="-40"/>
      <point x="245.25" y="-40" type="curve" smooth="yes"/>
      <point x="287.25" y="-40"/>
      <point x="319.583" y="-55"/>
      <point x="342.25" y="-91" type="curve"/>
      <point x="312.25" y="-102" type="line"/>
      <point x="300.25" y="-83"/>
      <point x="279.25" y="-68"/>
      <point x="250.25" y="-68" type="curve" smooth="yes"/>
      <point x="211.25" y="-68"/>
      <point x="179.25" y="-92"/>
      <point x="179.25" y="-129" type="curve" smooth="yes"/>
      <point x="179.25" y="-166.366"/>
      <point x="210.25" y="-191"/>
      <point x="253.25" y="-191" type="curve" smooth="yes"/>
      <point x="337.25" y="-191"/>
      <point x="420.25" y="-117"/>
      <point x="515.25" y="-117" type="curve" smooth="yes"/>
      <point x="558.25" y="-117"/>
      <point x="607.25" y="-136"/>
      <point x="634.25" y="-168" type="curve"/>
      <point x="634.25" y="152" type="line"/>
      <point x="667.25" y="212" type="line"/>
      <point x="667.25" y="-231" type="line"/>
      <point x="644.25" y="-231" type="line"/>
      <point x="629.25" y="-195"/>
      <point x="586.25" y="-144"/>
      <point x="518.25" y="-144" type="curve" smooth="yes"/>
      <point x="427.25" y="-144"/>
      <point x="352.25" y="-237"/>
      <point x="254.25" y="-237" type="curve" smooth="yes"/>
      <point x="199.25" y="-237"/>
      <point x="143.25" y="-206"/>
    </contour>
    <component base="si_DDha"/>
  </outline>
</glyph>
<glyph name="si_DDha" format="1">
  <advance width="729"/>
  <outline>
    <contour>
      <point x="27" y="212" type="curve" smooth="yes"/>
      <point x="27" y="344"/>
      <point x="101" y="433"/>
      <point x="220" y="433" type="curve" smooth="yes"/>
      <point x="246" y="433"/>
      <point x="289" y="427"/>
      <point x="313" y="398" type="curve"/>
      <point x="275" y="394" type="line"/>
      <point x="267" y="402"/>
      <point x="244" y="407"/>
      <point x="226" y="407" type="curve" smooth="yes"/>
      <point x="92" y="407"/>
      <point x="56" y="295"/>
      <point x="56" y="208" type="curve" smooth="yes"/>
      <point x="56" y="131"/>
      <point x="83" y="75"/>
      <point x="135" y="30" type="curve"/>
      <point x="135" y="0" type="line"/>
      <point x="69" y="33"/>
      <point x="27" y="111"/>
    </contour>
    <component base="si_Dha" xOffset="92"/>
  </outline>
</glyph>
<glyph name="si_DIi" format="1">
  <advance width="456"/>
  <outline>
    <contour>
      <point x="247" y="514" type="curve" smooth="yes"/>
      <point x="247" y="483"/>
      <point x="277" y="458"/>
      <point x="313" y="458" type="curve" smooth="yes"/>
      <point x="349" y="458"/>
      <point x="379" y="483"/>
      <point x="379" y="514" type="curve" smooth="yes"/>
      <point x="379" y="545"/>
      <point x="349" y="570"/>
      <point x="313" y="570" type="curve" smooth="yes"/>
      <point x="277" y="570"/>
      <point x="247" y="545"/>
    </contour>
    <contour>
      <point x="35" y="518" type="curve" smooth="yes"/>
      <point x="35" y="619"/>
      <point x="126" y="671"/>
      <point x="223" y="671" type="curve" smooth="yes"/>
      <point x="320" y="671"/>
      <point x="411" y="615"/>
      <point x="411" y="523" type="curve" smooth="yes"/>
      <point x="411" y="464"/>
      <point x="363" y="429"/>
      <point x="312" y="429" type="curve" smooth="yes"/>
      <point x="252" y="429"/>
      <point x="215" y="470"/>
      <point x="215" y="515" type="curve" smooth="yes"/>
      <point x="215" y="560"/>
      <point x="251" y="587"/>
      <point x="278" y="592" type="curve"/>
      <point x="267" y="595"/>
      <point x="237" y="598"/>
      <point x="223" y="598" type="curve" smooth="yes"/>
      <point x="151" y="598"/>
      <point x="66" y="573"/>
      <point x="66" y="509" type="curve" smooth="yes"/>
      <point x="66" y="461"/>
      <point x="109" y="425"/>
      <point x="194" y="425" type="curve"/>
      <point x="151" y="405" type="line"/>
      <point x="85" y="415"/>
      <point x="35" y="451"/>
    </contour>
    <component base="uni0DAF"/>
  </outline>
</glyph>
<glyph name="si_DUu" format="1">
  <advance width="456"/>
  <outline>
    <contour>
      <point x="32.75" y="-138.75" type="curve" smooth="yes"/>
      <point x="32.75" y="-80.75"/>
      <point x="81.75" y="-40.75"/>
      <point x="134.75" y="-40.75" type="curve" smooth="yes"/>
      <point x="176.75" y="-40.75"/>
      <point x="209.083" y="-55.75"/>
      <point x="231.75" y="-91.75" type="curve"/>
      <point x="201.75" y="-102.75" type="line"/>
      <point x="189.75" y="-83.75"/>
      <point x="168.75" y="-68.75"/>
      <point x="139.75" y="-68.75" type="curve" smooth="yes"/>
      <point x="100.75" y="-68.75"/>
      <point x="68.75" y="-92.75"/>
      <point x="68.75" y="-129.75" type="curve" smooth="yes"/>
      <point x="68.75" y="-167.116"/>
      <point x="96.75" y="-191.75"/>
      <point x="139.75" y="-191.75" type="curve" smooth="yes"/>
      <point x="194.962" y="-191.75"/>
      <point x="222.425" y="-127.5"/>
      <point x="300" y="-127.5" type="curve" smooth="yes"/>
      <point x="325.479" y="-127.5"/>
      <point x="354.534" y="-136.224"/>
      <point x="374" y="-159.75" type="curve"/>
      <point x="374" y="72" type="line"/>
      <point x="407" y="78.75" type="line"/>
      <point x="407" y="-231.75" type="line"/>
      <point x="384" y="-231.75" type="line"/>
      <point x="370.064" y="-193.978"/>
      <point x="350.303" y="-154.5"/>
      <point x="305.75" y="-154.5" type="curve" smooth="yes"/>
      <point x="228.297" y="-154.5"/>
      <point x="208.529" y="-237.75"/>
      <point x="132.5" y="-237.75" type="curve" smooth="yes"/>
      <point x="84.5342" y="-237.75"/>
      <point x="32.75" y="-206.75"/>
    </contour>
    <contour>
      <point x="31" y="169" type="curve" smooth="yes"/>
      <point x="31" y="274"/>
      <point x="104" y="317"/>
      <point x="223" y="317" type="curve" smooth="yes"/>
      <point x="343" y="317" type="line"/>
      <point x="333.277" y="363.186"/>
      <point x="304" y="396"/>
      <point x="260" y="396" type="curve" smooth="yes"/>
      <point x="241" y="396"/>
      <point x="225.048" y="383.911"/>
      <point x="216.5" y="366" type="curve" smooth="yes"/>
      <point x="206" y="344"/>
      <point x="189.802" y="336"/>
      <point x="175" y="336" type="curve" smooth="yes"/>
      <point x="150" y="336"/>
      <point x="137" y="351"/>
      <point x="137" y="372" type="curve" smooth="yes"/>
      <point x="137" y="408.283"/>
      <point x="177" y="433"/>
      <point x="232" y="433" type="curve" smooth="yes"/>
      <point x="317.739" y="433"/>
      <point x="360.904" y="389.003"/>
      <point x="379" y="294" type="curve"/>
      <point x="242" y="294" type="line" smooth="yes"/>
      <point x="154" y="294"/>
      <point x="108" y="257"/>
      <point x="108" y="173" type="curve" smooth="yes"/>
      <point x="108" y="89"/>
      <point x="178" y="27"/>
      <point x="261" y="27" type="curve" smooth="yes"/>
      <point x="307.077" y="27"/>
      <point x="351.052" y="50.0427"/>
      <point x="384" y="92" type="curve"/>
      <point x="407" y="78.75" type="line"/>
      <point x="367.4" y="33.3636"/>
      <point x="328.458" y="-1"/>
      <point x="234" y="-1" type="curve" smooth="yes"/>
      <point x="103" y="-1"/>
      <point x="31" y="69"/>
    </contour>
  </outline>
</glyph>
<glyph name="si_DV.halant" format="1">
  <advance width="688"/>
  <outline>
    <contour>
      <point x="126" y="165" type="curve" smooth="yes"/>
      <point x="126" y="250"/>
      <point x="191" y="304"/>
      <point x="292" y="304" type="curve" smooth="yes"/>
      <point x="353" y="304" type="line" smooth="yes"/>
      <point x="353.082" y="306.041"/>
      <point x="353.086" y="306.041"/>
      <point x="353.086" y="308" type="curve" smooth="yes"/>
      <point x="353.086" y="362"/>
      <point x="319" y="395"/>
      <point x="282" y="395" type="curve" smooth="yes"/>
      <point x="237" y="395"/>
      <point x="229" y="371"/>
      <point x="223.5" y="355" type="curve" smooth="yes"/>
      <point x="216.951" y="335.948"/>
      <point x="207.371" y="323"/>
      <point x="185.5" y="323" type="curve" smooth="yes"/>
      <point x="169.5" y="323"/>
      <point x="148.75" y="333.618"/>
      <point x="148.75" y="359.25" type="curve" smooth="yes"/>
      <point x="148.75" y="404.581"/>
      <point x="199" y="431.5"/>
      <point x="254" y="431.5" type="curve" smooth="yes"/>
      <point x="342" y="431.5"/>
      <point x="385.146" y="376"/>
      <point x="385.146" y="290" type="curve" smooth="yes"/>
      <point x="385.146" y="286.722"/>
      <point x="385.101" y="283.388"/>
      <point x="385" y="280" type="curve" smooth="yes"/>
      <point x="295" y="280" type="line" smooth="yes"/>
      <point x="221" y="280"/>
      <point x="161" y="245.216"/>
      <point x="161" y="180" type="curve" smooth="yes"/>
      <point x="161" y="94"/>
      <point x="273" y="71"/>
      <point x="363" y="71" type="curve" smooth="yes"/>
      <point x="512.46" y="71"/>
      <point x="602.755" y="154.021"/>
      <point x="606.854" y="290.23" type="curve"/>
      <point x="606.826" y="408.44"/>
      <point x="512.592" y="493.75"/>
      <point x="357.5" y="493.75" type="curve" smooth="yes"/>
      <point x="281.5" y="493.75"/>
      <point x="212.23" y="480.284"/>
      <point x="132.25" y="447" type="curve"/>
      <point x="132.25" y="478" type="line"/>
      <point x="164.25" y="488.286"/>
      <point x="214.5" y="500.286"/>
      <point x="214.5" y="508" type="curve" smooth="yes"/>
      <point x="214.5" y="520"/>
      <point x="186.5" y="524"/>
      <point x="186.5" y="546" type="curve" smooth="yes"/>
      <point x="186.5" y="583"/>
      <point x="249.5" y="629"/>
      <point x="364.5" y="629" type="curve" smooth="yes"/>
      <point x="559.102" y="629"/>
      <point x="621.25" y="490"/>
      <point x="633.25" y="356" type="curve" smooth="yes"/>
      <point x="638.302" y="331.829"/>
      <point x="640.662" y="305.024"/>
      <point x="641" y="274" type="curve"/>
      <point x="641.001" y="112.779"/>
      <point x="542.362" y="0"/>
      <point x="360" y="0" type="curve" smooth="yes"/>
      <point x="239" y="0"/>
      <point x="126" y="46"/>
    </contour>
    <contour>
      <point x="227.5" y="543" type="curve" smooth="yes"/>
      <point x="227.5" y="531"/>
      <point x="251.5" y="526"/>
      <point x="251.5" y="515" type="curve" smooth="yes"/>
      <point x="251.5" y="513"/>
      <point x="250.5" y="510"/>
      <point x="248.5" y="508" type="curve"/>
      <point x="281.5" y="514"/>
      <point x="319.175" y="519"/>
      <point x="365.5" y="519" type="curve" smooth="yes"/>
      <point x="454.48" y="519"/>
      <point x="543.079" y="486.84"/>
      <point x="591.25" y="422" type="curve"/>
      <point x="558.25" y="537"/>
      <point x="476.414" y="590"/>
      <point x="370.5" y="590" type="curve" smooth="yes"/>
      <point x="298.5" y="590"/>
      <point x="227.5" y="567"/>
    </contour>
    <contour>
      <point x="27" y="221" type="curve" smooth="yes"/>
      <point x="27" y="352.7"/>
      <point x="99.7562" y="433"/>
      <point x="239" y="433" type="curve" smooth="yes"/>
      <point x="248" y="433"/>
      <point x="271" y="433"/>
      <point x="293" y="427" type="curve"/>
      <point x="272" y="416"/>
      <point x="194" y="406"/>
      <point x="177" y="400" type="curve"/>
      <point x="102" y="382"/>
      <point x="56" y="319.268"/>
      <point x="56" y="218" type="curve" smooth="yes"/>
      <point x="56" y="137.333"/>
      <point x="83" y="75.333"/>
      <point x="135" y="30" type="curve"/>
      <point x="135" y="0" type="line"/>
      <point x="68.5828" y="33.2086"/>
      <point x="27" y="120.07"/>
    </contour>
  </outline>
</glyph>
